<?xml version="1.0" standalone="no"?>
<!DOCTYPE svg PUBLIC "-//W3C//DTD SVG 20010904//EN"
 "http://www.w3.org/TR/2001/REC-SVG-20010904/DTD/svg10.dtd">
<svg version="1.0" xmlns="http://www.w3.org/2000/svg"
 width="652.000000pt" height="1280.000000pt" viewBox="0 0 652.000000 1280.000000"
 preserveAspectRatio="xMidYMid meet">
<metadata>
Created by potrace 1.15, written by Peter Selinger 2001-2017
</metadata>
<g transform="translate(0.000000,1280.000000) scale(0.100000,-0.100000)"
fill="#000000" stroke="none">
<path d="M2930 12791 c-35 -8 -169 -54 -248 -86 l-43 -18 -28 27 c-76 73 -307
50 -449 -44 -54 -36 -66 -40 -122 -40 -35 0 -90 5 -124 11 -71 13 -242 -7
-295 -35 -17 -9 -45 -23 -63 -33 -43 -22 -148 -131 -165 -170 -7 -18 -26 -39
-41 -47 -16 -8 -34 -22 -41 -30 -11 -13 -9 -17 13 -27 44 -21 24 -34 -53 -35
-40 -1 -100 -10 -134 -20 -53 -16 -74 -30 -157 -110 -90 -86 -100 -93 -180
-118 -87 -29 -225 -101 -270 -141 -14 -12 -64 -49 -112 -82 -48 -33 -99 -74
-113 -91 -57 -68 -135 -196 -135 -221 0 -15 9 -56 20 -92 12 -35 25 -78 31
-96 8 -27 6 -38 -21 -81 -44 -73 -47 -102 -15 -141 34 -40 74 -61 118 -61 31
0 35 -3 46 -42 7 -24 20 -51 29 -60 19 -23 70 -23 102 -1 24 17 166 138 225
193 36 33 95 70 113 70 8 0 5 -15 -12 -47 -13 -27 -33 -79 -44 -118 -23 -80
-46 -248 -37 -276 15 -47 97 -58 168 -22 27 14 30 13 88 -41 59 -55 60 -56 89
-41 16 8 38 28 49 44 36 50 99 220 141 382 97 365 225 737 247 715 2 -2 -14
-71 -36 -153 -60 -220 -81 -374 -81 -589 0 -191 12 -273 51 -364 34 -80 82
-90 170 -37 50 30 57 32 84 20 54 -22 90 -16 120 19 25 29 27 37 21 87 -4 31
-22 105 -41 166 -27 88 -36 142 -48 275 -14 167 -10 397 6 300 4 -25 14 -110
22 -190 9 -80 27 -201 42 -270 21 -105 35 -144 85 -243 33 -65 70 -125 83
-133 21 -14 27 -13 72 10 27 13 55 32 62 40 8 10 31 16 60 17 83 2 105 11 123
49 17 34 17 39 -7 142 -13 59 -28 116 -34 127 -14 25 -14 38 -1 25 14 -14 163
-327 202 -424 44 -111 153 -435 198 -590 43 -150 90 -364 145 -665 21 -110 50
-260 65 -332 15 -73 24 -133 20 -133 -14 0 -93 95 -129 154 -34 57 -91 213
-91 251 0 12 -7 30 -15 41 -14 18 -15 18 -29 1 -25 -32 -28 -106 -7 -202 10
-49 17 -92 15 -94 -8 -9 -84 50 -84 65 0 11 -5 14 -16 10 -9 -4 -23 -1 -30 5
-16 13 -44 -4 -44 -26 0 -7 53 -64 119 -127 90 -88 134 -123 184 -147 35 -17
69 -31 74 -31 5 0 19 -11 30 -24 12 -13 28 -28 37 -33 20 -11 60 -212 46 -227
-14 -14 -65 12 -157 80 -85 62 -145 86 -166 65 -8 -8 15 -36 79 -95 l89 -85
-53 -1 c-37 0 -67 7 -102 25 l-49 25 -12 -21 c-18 -35 4 -67 66 -95 45 -19 82
-26 185 -32 72 -5 135 -13 140 -18 10 -10 50 -262 50 -315 0 -32 -1 -33 -50
-19 -27 7 -48 26 -87 77 -28 38 -61 87 -72 111 -18 36 -25 41 -37 32 -18 -15
-17 -48 1 -125 8 -33 10 -64 6 -68 -5 -5 -48 7 -97 28 -114 48 -134 52 -134
31 0 -34 28 -82 73 -123 74 -68 113 -83 250 -94 67 -5 132 -12 143 -14 26 -6
29 -24 44 -260 6 -93 16 -204 22 -245 15 -111 22 -1320 9 -1560 -6 -107 -18
-328 -26 -490 -15 -308 -21 -370 -35 -370 -9 0 -32 57 -49 120 -5 19 -25 78
-44 130 -20 52 -44 122 -55 155 -11 33 -41 114 -67 180 -26 66 -59 156 -74
200 -16 44 -37 103 -49 130 -11 28 -36 91 -55 140 -19 50 -47 122 -62 160 -15
39 -34 81 -43 95 -11 17 -17 56 -20 120 -4 100 -14 129 -38 109 -17 -14 -40 2
-50 34 -3 12 -31 87 -61 165 l-55 144 16 71 c8 40 18 92 21 117 4 25 18 84 31
132 28 96 26 149 -7 223 -27 60 -108 141 -155 154 -47 13 -164 14 -196 2 -13
-5 -42 -14 -66 -21 -54 -14 -107 -66 -160 -156 -39 -67 -40 -71 -38 -159 2
-122 24 -172 95 -210 28 -16 59 -42 69 -59 26 -45 116 -118 189 -155 58 -30
63 -35 106 -119 25 -48 73 -152 107 -232 34 -80 66 -149 71 -154 18 -19 0
-106 -21 -106 -4 0 -31 39 -61 88 -86 136 -227 322 -292 382 -32 30 -96 92
-142 138 -78 76 -115 99 -115 70 0 -7 36 -58 80 -113 44 -55 80 -106 80 -114
0 -19 -50 -8 -125 28 -87 43 -96 23 -20 -45 33 -30 80 -66 105 -81 115 -66
178 -115 213 -166 47 -67 47 -81 5 -72 -54 12 -110 40 -168 84 -85 64 -124 47
-59 -27 62 -70 132 -121 211 -153 85 -34 181 -110 200 -158 17 -43 37 -143 38
-188 0 -34 -4 -43 -17 -43 -31 0 -107 94 -172 210 -90 165 -108 181 -113 105
l-3 -46 -45 60 c-41 56 -74 81 -87 68 -3 -3 18 -46 46 -94 28 -49 51 -92 51
-96 0 -48 -125 127 -204 286 -64 130 -135 233 -275 400 -61 74 -90 95 -111 82
-20 -12 -9 -39 31 -76 69 -63 169 -236 169 -291 0 -17 -70 -4 -150 28 -51 20
-74 24 -81 17 -17 -17 -5 -28 89 -82 48 -27 103 -61 122 -76 61 -45 141 -128
168 -175 14 -25 46 -73 70 -107 24 -35 40 -63 35 -63 -17 1 -268 145 -417 240
-133 85 -193 135 -216 179 -10 20 -29 46 -43 58 -14 12 -55 79 -90 150 -82
165 -87 173 -114 173 -28 0 -29 -18 -5 -91 11 -30 22 -67 26 -82 l7 -28 -43
29 c-24 16 -74 62 -113 101 -68 69 -88 81 -99 62 -11 -18 13 -59 76 -132 87
-101 218 -269 231 -296 5 -13 14 -23 19 -23 4 0 8 -5 8 -11 0 -7 -10 -9 -27
-4 -16 4 -140 10 -278 15 -137 5 -297 15 -355 24 -124 18 -140 19 -140 6 0
-17 90 -76 144 -95 92 -32 99 -36 94 -40 -2 -3 -42 -12 -89 -20 -118 -22 -172
-41 -265 -92 -89 -49 -158 -106 -151 -126 7 -23 65 -19 134 11 105 46 294 85
307 64 9 -16 -62 -90 -99 -102 -36 -12 -44 -31 -25 -60 7 -12 19 -13 82 -2 94
16 198 67 268 132 30 28 77 63 104 76 46 24 56 25 182 22 77 -2 138 -8 144
-14 7 -7 -25 -30 -115 -79 -144 -79 -245 -161 -307 -249 -23 -33 -57 -80 -75
-104 -40 -53 -72 -147 -55 -164 8 -8 36 14 109 89 71 72 110 104 138 113 22 7
46 17 52 22 7 6 20 8 28 4 13 -5 15 -15 10 -48 -4 -30 -2 -49 8 -62 13 -18 15
-18 46 10 37 34 93 113 120 170 24 51 75 94 168 140 105 52 166 55 263 16 114
-45 250 -113 250 -123 0 -32 -190 12 -316 73 -61 29 -91 39 -120 36 -51 -4
-58 -34 -17 -69 49 -41 171 -111 234 -134 33 -12 59 -26 57 -31 -5 -16 -180
-126 -263 -166 -118 -56 -193 -65 -358 -42 -49 8 -50 -14 0 -55 36 -30 50 -33
223 -59 l55 -8 -144 -72 c-123 -61 -152 -72 -196 -72 -28 0 -59 -6 -69 -13
-17 -12 -16 -15 10 -33 41 -27 206 -25 327 4 82 20 200 77 250 120 9 8 20 13
22 10 7 -6 -34 -116 -64 -176 -24 -47 -28 -102 -7 -102 42 0 155 142 171 215
8 38 37 111 78 195 39 79 126 168 203 206 l55 27 23 -22 c43 -41 107 -231 77
-231 -5 0 -28 9 -52 20 -52 23 -79 25 -79 6 0 -23 98 -124 169 -173 79 -56
121 -93 121 -108 0 -18 -123 -93 -197 -120 -82 -29 -117 -31 -173 -9 -55 22
-216 15 -255 -10 -43 -28 -29 -50 35 -57 152 -16 230 -39 230 -66 0 -6 -28
-33 -61 -60 -100 -78 -182 -182 -220 -276 -18 -45 -41 -95 -52 -110 -36 -52 6
-79 54 -34 14 12 60 69 103 125 43 57 82 100 86 95 5 -4 10 -28 12 -53 2 -37
6 -45 23 -45 15 0 23 12 36 60 36 134 61 165 229 280 147 101 154 98 87 -39
-78 -158 -116 -269 -95 -282 16 -10 53 39 79 106 28 70 85 168 142 247 25 34
55 80 67 103 11 22 29 44 38 47 9 3 59 23 109 45 l93 40 42 -25 c107 -63 338
-279 338 -315 -1 -9 -14 -35 -30 -57 -16 -22 -40 -56 -53 -75 -15 -21 -52 -50
-93 -73 -79 -44 -293 -107 -376 -112 -99 -5 -149 -58 -66 -69 140 -19 222 -26
240 -20 36 11 16 -28 -30 -59 -121 -82 -48 -131 93 -64 71 34 108 71 270 269
37 45 150 138 167 138 17 0 38 -114 48 -255 5 -82 10 -429 10 -770 1 -1001 21
-1505 66 -1712 32 -145 50 -280 40 -290 -24 -25 -102 125 -126 240 -19 96 -61
89 -70 -11 l-5 -57 -62 74 c-34 40 -64 83 -66 95 -3 19 -5 18 -16 -9 -24 -58
17 -160 113 -281 52 -66 155 -156 222 -196 l31 -18 7 -118 c3 -64 8 -333 11
-597 6 -536 10 -605 30 -605 8 0 19 9 25 20 7 13 12 221 15 597 3 318 8 588
10 600 6 26 36 31 54 9 20 -23 22 -90 26 -716 2 -338 7 -632 10 -653 9 -45 32
-59 52 -31 12 16 13 48 7 179 -4 88 -7 167 -6 175 1 8 3 179 5 380 4 379 14
609 27 630 10 16 114 -49 131 -82 23 -45 132 -184 184 -235 41 -41 60 -53 84
-53 40 0 39 13 -2 64 -33 40 -57 78 -57 91 0 12 51 -33 81 -71 58 -73 151
-122 274 -144 39 -7 83 -16 99 -21 62 -19 145 -4 120 21 -6 6 -42 19 -80 29
-100 26 -181 58 -222 88 -79 58 -134 121 -80 92 21 -11 48 -8 168 22 19 5 49
9 67 9 29 0 52 15 40 26 -3 3 -58 9 -123 14 -127 10 -138 14 -399 147 -106 55
-104 67 27 128 121 56 192 69 339 63 143 -6 175 -22 285 -147 88 -98 134 -167
216 -325 84 -158 118 -176 118 -63 0 57 -7 86 -30 142 -47 110 -49 108 75 100
103 -7 105 -7 105 14 0 17 -13 28 -57 47 -125 55 -303 146 -303 155 0 12 15
11 84 -3 49 -9 60 -9 73 5 8 8 12 20 8 27 -10 16 -125 70 -149 70 -11 0 -16 3
-13 7 6 6 45 12 327 57 58 9 155 27 215 39 117 23 342 31 418 13 35 -8 39 -7
35 10 -2 14 -30 28 -106 54 l-103 36 23 20 c13 12 38 31 56 43 17 12 32 27 32
33 0 6 27 40 61 75 60 62 72 94 38 101 -9 2 -50 -23 -90 -56 -93 -74 -242
-167 -300 -187 -24 -9 -89 -23 -144 -31 -55 -8 -121 -19 -147 -25 -75 -17 -76
-7 -6 43 67 48 205 111 270 123 84 16 71 65 -18 65 -30 0 -54 4 -54 9 0 5 39
42 86 83 48 40 110 93 138 118 34 30 67 49 101 58 59 15 112 53 100 71 -5 10
-22 11 -59 7 l-51 -6 40 32 c44 36 71 63 223 222 56 59 102 114 102 122 0 33
-37 11 -169 -100 -25 -22 -70 -55 -100 -75 -29 -20 -60 -40 -67 -46 -25 -18
-23 0 7 62 16 33 32 75 35 92 9 46 -19 41 -54 -9 -82 -121 -154 -208 -190
-233 -23 -15 -45 -27 -48 -27 -7 0 -133 -54 -166 -71 -10 -5 -24 -9 -32 -9
-22 0 38 93 80 125 38 29 140 161 170 219 22 43 25 46 101 77 28 11 54 28 58
37 7 20 -20 42 -51 42 -32 0 -54 10 -54 25 0 7 55 51 122 97 67 45 146 100
175 120 156 108 315 298 248 298 -8 0 -39 -22 -69 -49 -44 -40 -165 -121 -182
-121 -2 0 -4 28 -4 63 0 34 -4 68 -9 75 -16 26 -42 7 -64 -43 -41 -99 -117
-195 -202 -258 -133 -97 -276 -158 -258 -109 13 34 197 296 265 376 32 38 72
58 158 79 145 34 175 52 291 166 60 59 109 113 109 120 0 25 -63 3 -137 -49
-40 -28 -77 -50 -81 -50 -5 0 -7 22 -4 49 8 83 -17 75 -105 -37 -32 -39 -132
-97 -155 -90 -5 2 10 30 34 63 25 33 58 80 74 105 27 41 110 103 246 185 22
14 34 29 36 48 4 36 -15 42 -72 23 -58 -20 -86 -20 -86 -2 0 18 144 232 177
264 39 39 52 92 22 92 -21 0 -73 -48 -114 -106 -49 -69 -111 -127 -128 -121
-12 4 -14 53 -6 132 3 31 0 40 -13 43 -25 5 -40 -32 -87 -214 -46 -182 -48
-197 -24 -192 12 2 24 24 36 67 17 55 24 65 53 77 18 8 36 14 39 14 15 0 0
-36 -40 -93 -25 -36 -45 -70 -45 -76 0 -19 38 -12 76 14 20 14 39 23 42 20 9
-8 -20 -36 -67 -62 -62 -36 -79 -51 -109 -98 -13 -22 -56 -84 -95 -139 -56
-78 -68 -102 -60 -115 16 -25 41 -25 81 2 20 13 55 30 77 37 22 7 61 25 88 41
26 16 49 29 51 29 9 0 16 -54 9 -61 -4 -4 -69 -27 -143 -49 -74 -23 -154 -54
-178 -68 -46 -28 -105 -111 -232 -321 -34 -57 -74 -114 -88 -126 -20 -17 -24
-27 -18 -49 4 -15 14 -30 22 -33 9 -3 65 13 126 36 173 65 361 198 412 291 19
35 19 35 25 10 8 -31 43 -38 77 -16 13 9 24 13 24 8 0 -12 -28 -36 -70 -60
-19 -11 -78 -46 -130 -79 -52 -33 -128 -77 -168 -99 -82 -44 -86 -58 -29 -89
20 -11 37 -23 37 -27 0 -4 -42 -5 -92 -2 -76 5 -111 2 -188 -16 -94 -22 -95
-22 -156 -86 -86 -91 -109 -83 -59 22 16 35 28 80 32 131 4 43 9 69 11 58 6
-30 22 -45 46 -45 25 0 84 82 202 280 83 140 116 208 138 286 10 32 20 67 22
77 5 15 9 16 20 6 34 -28 88 31 178 195 34 61 37 70 23 84 -14 14 -21 7 -66
-64 -28 -43 -51 -82 -51 -86 0 -5 -4 -8 -10 -8 -5 0 -10 16 -10 36 0 26 17 66
60 141 34 58 60 113 58 121 -5 28 -26 24 -65 -12 l-38 -35 -10 101 c-6 62 -15
103 -22 105 -19 7 -44 -42 -59 -115 -8 -37 -21 -96 -29 -132 -9 -36 -20 -108
-26 -160 -22 -221 -29 -257 -60 -335 -35 -86 -227 -391 -239 -378 -14 16 10
313 30 374 11 32 20 63 20 69 0 5 15 31 34 57 35 50 78 131 90 171 13 39 -31
27 -75 -20 -21 -23 -41 -39 -46 -35 -4 4 2 68 12 142 10 74 15 138 11 142 -12
13 -54 -41 -80 -104 -22 -52 -66 -241 -93 -391 -3 -18 -10 -31 -16 -29 -6 2
-27 34 -47 73 -26 50 -41 69 -55 69 -14 0 -20 -6 -19 -20 4 -60 29 -182 54
-265 27 -90 58 -256 49 -263 -2 -2 -39 -20 -83 -41 -61 -30 -98 -57 -163 -122
l-83 -84 -11 27 c-7 17 -9 57 -5 99 7 90 34 140 121 221 38 37 65 71 65 83 0
28 -10 25 -66 -15 -27 -19 -70 -46 -97 -60 -59 -32 -61 -28 -55 103 4 71 11
111 27 147 25 57 41 175 23 175 -7 0 -26 -24 -42 -54 -35 -61 -54 -81 -70 -71
-5 3 -35 58 -65 121 -62 130 -62 135 -40 306 61 470 80 696 95 1122 6 164 17
358 24 430 8 72 17 176 21 231 8 128 13 155 31 155 24 0 97 -40 137 -77 45
-40 75 -54 137 -62 l45 -7 -37 -18 -37 -18 -55 36 c-89 57 -135 77 -168 74
-47 -5 -45 -26 4 -47 47 -20 157 -87 173 -106 6 -6 22 -19 36 -28 15 -9 54
-41 87 -72 61 -56 98 -69 120 -42 13 15 -2 42 -63 123 l-37 49 28 20 c60 43
104 88 104 106 0 31 -25 33 -73 5 -32 -19 -58 -26 -98 -26 -58 0 -67 5 -154
75 -27 22 -76 49 -107 60 -32 10 -58 24 -58 30 0 22 31 230 37 250 6 20 75 95
87 95 4 0 23 12 42 28 62 47 225 305 206 324 -14 14 -25 6 -88 -73 -70 -88
-133 -154 -139 -147 -3 3 1 21 8 39 25 59 39 131 27 143 -15 15 -27 -1 -55
-70 -13 -32 -29 -60 -36 -63 -6 -2 -9 1 -5 7 3 6 13 64 22 128 l15 118 77 85
c92 102 165 210 256 381 37 69 72 132 78 141 6 9 8 24 4 34 -6 16 -10 15 -37
-11 -17 -16 -48 -63 -70 -104 -41 -79 -93 -150 -111 -150 -5 0 -7 7 -4 16 4 9
1 55 -5 101 -11 76 -14 84 -33 81 -16 -2 -23 -13 -29 -48 -24 -132 -58 -275
-68 -285 -8 -7 -10 3 -6 35 5 50 62 327 77 375 5 17 18 59 29 95 11 36 27 94
35 130 17 80 61 190 136 340 32 63 72 150 90 194 31 75 86 146 113 146 41 -1
38 -17 -19 -136 -62 -128 -70 -173 -40 -219 26 -40 76 -67 113 -61 30 4 32 2
50 -46 20 -58 53 -86 84 -72 10 5 43 45 72 88 28 44 57 81 63 83 8 3 13 -26
16 -89 5 -98 28 -163 78 -215 23 -25 24 -26 93 -23 45 1 52 -2 86 -39 21 -23
43 -41 49 -41 33 0 71 70 141 263 6 15 14 27 19 27 5 0 16 -36 25 -79 20 -99
79 -228 112 -243 19 -9 30 -6 60 12 l36 22 28 -26 c24 -23 36 -27 72 -24 53 4
54 7 64 197 4 77 11 141 15 141 5 0 20 -39 35 -87 29 -93 84 -188 116 -198 25
-8 55 10 71 43 10 18 20 26 33 24 113 -20 115 -18 115 83 0 115 -18 230 -65
410 -57 220 -111 368 -169 468 -18 29 -32 81 -46 160 -29 174 -138 433 -201
479 -23 17 -26 26 -22 53 9 56 -15 166 -51 240 -46 92 -87 140 -151 176 -46
26 -60 42 -104 119 -28 48 -66 101 -84 117 -52 45 -105 75 -124 69 -14 -4 -29
12 -62 65 -49 77 -95 123 -175 174 -62 39 -101 52 -119 37 -9 -8 -41 15 -122
90 -190 174 -302 248 -373 248 -46 0 -72 -24 -72 -66 0 -27 -4 -31 -42 -40
-84 -18 -88 -87 -13 -199 49 -74 42 -81 -39 -40 -27 14 -57 25 -67 25 -38 0
-49 12 -49 51 0 81 40 241 94 379 57 143 68 200 42 200 -8 0 -31 -27 -51 -60
-20 -33 -40 -58 -45 -55 -15 9 -58 131 -70 195 -12 68 -34 120 -51 120 -23 0
-31 -54 -17 -120 8 -42 13 -135 12 -260 -1 -165 -4 -209 -22 -283 -28 -111
-35 -124 -76 -141 -45 -19 -62 -67 -45 -125 11 -38 10 -43 -14 -78 -15 -21
-36 -44 -47 -51 -24 -15 -26 -44 -4 -62 28 -24 35 -47 22 -74 -6 -14 -15 -26
-20 -26 -4 0 -8 1 -8 3 0 1 -10 49 -23 107 -32 150 -31 360 2 478 18 65 21 86
12 95 -15 15 -30 -3 -72 -87 -17 -32 -32 -56 -35 -53 -13 13 -53 192 -48 213
9 35 -23 32 -38 -3 -21 -49 -15 -359 10 -483 56 -280 64 -338 53 -393 -5 -28
-13 -81 -16 -117 -9 -86 -57 -277 -99 -392 -46 -125 -47 -128 -56 -128 -4 0
-27 57 -50 127 -70 210 -75 383 -15 538 12 33 34 90 49 128 30 77 33 107 11
107 -23 0 -132 -175 -157 -252 -12 -38 -25 -68 -29 -68 -9 0 -26 111 -34 223
-3 48 -13 136 -20 195 -8 59 -15 145 -15 190 0 108 -14 104 -53 -11 -16 -48
-32 -85 -37 -82 -16 10 -52 134 -58 202 -9 83 -25 91 -53 27 -18 -40 -20 -58
-15 -123 8 -91 68 -374 96 -455 22 -66 19 -80 -13 -64 -39 19 -157 157 -157
183 0 29 -16 41 -35 25 -26 -21 -18 -84 19 -155 48 -91 89 -139 157 -186 41
-28 74 -62 109 -114 49 -72 52 -82 121 -352 38 -153 70 -294 70 -313 0 -21
-20 -82 -50 -150 -28 -63 -51 -121 -51 -128 0 -23 -50 -112 -63 -112 -42 1
-87 71 -87 135 0 111 49 322 87 371 31 42 73 142 66 161 -11 28 -33 11 -75
-57 -24 -38 -47 -70 -51 -70 -5 0 -26 39 -48 86 -62 135 -85 97 -50 -83 17
-90 18 -108 6 -160 -7 -32 -18 -91 -25 -131 -7 -46 -16 -72 -23 -69 -26 8 -67
219 -67 344 0 132 42 350 91 477 20 51 24 91 11 100 -19 12 -48 -32 -72 -109
-7 -22 -24 -66 -37 -98 -30 -66 -39 -65 -80 17 -22 44 -27 48 -38 33 -7 -9
-15 -17 -18 -17 -10 0 -26 62 -56 225 -17 88 -46 223 -65 300 -19 77 -37 169
-41 205 -4 36 -15 82 -25 102 -11 20 -39 103 -64 185 -55 181 -90 282 -151
438 -26 66 -51 132 -57 148 -15 40 27 94 80 102 52 8 65 17 84 56 26 49 22 94
-13 179 -51 121 -123 214 -344 440 -142 146 -236 263 -222 276 6 7 39 -25 293
-287 186 -191 345 -323 459 -380 104 -52 127 -50 172 16 28 40 42 52 76 61 88
22 87 100 -4 202 -32 36 -57 68 -54 70 8 9 245 -74 245 -85 0 -18 31 -16 57 2
29 20 46 77 38 124 l-6 39 54 12 c70 14 81 27 73 84 -9 61 -64 121 -176 191
-50 31 -90 61 -90 66 0 5 15 9 33 9 53 0 248 37 311 59 66 23 96 46 96 71 0
10 -13 44 -30 76 l-29 59 23 20 c32 26 40 58 26 99 -17 51 -50 75 -147 105
-87 28 -88 28 -121 84 -41 72 -97 116 -208 169 -87 41 -91 42 -209 44 -66 2
-136 -1 -155 -5z m303 -82 c73 -24 150 -78 185 -129 l23 -35 -23 -6 c-13 -4
-106 -7 -208 -8 -187 -1 -366 -17 -495 -45 -38 -8 -108 -20 -155 -26 -47 -6
-98 -15 -115 -20 -16 -5 -52 -12 -80 -15 l-50 -6 25 20 c14 12 70 46 125 77
55 31 107 60 115 65 66 41 208 102 270 115 41 9 91 20 110 24 75 16 207 11
273 -11z m-664 -33 c14 -17 12 -19 -114 -88 -55 -30 -142 -81 -194 -112 -51
-31 -96 -55 -99 -52 -10 11 73 117 148 191 l78 75 85 0 c59 0 88 -4 96 -14z
m-298 -53 c-18 -21 -55 -69 -83 -107 -47 -63 -53 -67 -65 -50 -32 44 -9 78
102 153 75 50 85 51 46 4z m-353 -65 c14 -14 16 -32 2 -23 -10 6 -79 -23 -112
-47 -21 -15 -34 -5 -43 33 -5 21 -2 27 15 32 12 3 36 3 54 0 20 -3 36 -1 40 6
9 14 29 14 44 -1z m-250 -74 c-4 -23 -26 -30 -34 -10 -8 20 15 51 29 37 5 -5
7 -17 5 -27z m227 -33 c0 -7 -10 -20 -22 -28 -20 -14 -23 -14 -29 1 -3 9 -1
23 6 32 15 18 45 15 45 -5z m95 -3 c25 -27 22 -53 -5 -53 -12 0 -21 9 -25 25
l-6 24 -11 -29 c-7 -17 -15 -40 -18 -53 -8 -27 -25 -20 -25 11 0 22 47 97 61
97 5 0 18 -10 29 -22z m-390 -19 c0 -5 -8 -17 -19 -28 -21 -21 -63 -18 -82 5
-8 10 -4 16 22 27 35 14 79 11 79 -4z m162 -25 c10 -20 9 -27 -3 -35 -8 -5
-17 -9 -21 -9 -12 0 -40 68 -33 80 9 15 44 -6 57 -36z m1791 31 c75 -13 137
-39 144 -61 3 -10 -40 -36 -79 -48 -32 -10 -19 -42 38 -96 67 -63 64 -70 -46
-100 -58 -16 -117 -22 -260 -27 l-185 -5 -145 37 c-80 21 -152 41 -160 45 -33
17 -381 85 -584 114 -92 13 -117 36 -39 36 26 0 104 11 173 24 128 25 327 57
505 80 138 19 537 19 638 1z m-1467 -68 c16 -45 3 -56 -25 -21 -22 28 -26 46
-14 58 13 12 26 0 39 -37z m-420 -2 c16 -13 17 -16 4 -25 -21 -14 -34 -7 -38
18 -4 26 7 28 34 7z m-174 -37 c43 -13 44 -26 6 -47 -35 -20 -58 -8 -58 29 0
34 -1 34 52 18z m108 2 c0 -5 -5 -10 -11 -10 -5 0 -7 5 -4 10 3 6 8 10 11 10
2 0 4 -4 4 -10z m264 4 c18 -7 21 -36 5 -65 -8 -15 -14 -18 -23 -9 -8 5 -20 8
-28 5 -11 -4 -13 3 -10 35 4 41 17 49 56 34z m116 -13 c6 0 10 -7 10 -15 0
-19 -48 -30 -66 -15 -32 26 -9 38 56 30z m-236 -11 c18 -7 26 -17 26 -34 0
-35 -18 -42 -43 -18 l-21 21 -23 -25 c-17 -19 -29 -23 -48 -18 -18 4 -32 1
-46 -12 -15 -14 -22 -15 -32 -5 -18 18 5 46 41 47 17 1 44 12 62 28 35 29 46
31 84 16z m314 -42 c-3 -7 -12 -14 -21 -16 -12 -2 -15 1 -11 12 7 19 38 22 32
4z m342 -59 c429 -75 565 -118 810 -255 115 -64 300 -195 300 -213 0 -4 -19
-13 -42 -20 -65 -19 -76 -34 -70 -86 5 -52 10 -50 -98 -31 -96 17 -209 70
-419 195 -250 148 -325 191 -334 191 -5 0 -29 17 -55 38 -48 40 -214 143 -289
181 -24 12 -43 24 -43 27 0 9 101 -3 240 -27z m-970 17 c0 -3 -4 -8 -10 -11
-5 -3 -10 -1 -10 4 0 6 5 11 10 11 6 0 10 -2 10 -4z m510 -20 c0 -13 -6 -29
-14 -36 -12 -9 -18 -7 -32 9 -17 19 -19 19 -36 4 -15 -13 -18 -13 -18 -2 0 18
48 48 78 49 17 0 22 -6 22 -24z m-641 3 c17 -6 31 -17 31 -25 0 -11 -19 -14
-84 -14 -93 0 -116 -5 -116 -26 0 -12 18 -14 90 -12 60 2 93 -1 101 -9 7 -7
10 -15 7 -18 -6 -7 -233 -35 -278 -35 l-35 1 65 59 c45 41 80 63 115 73 63 19
65 19 104 6z m442 -19 c52 0 59 -2 59 -19 0 -29 -17 -35 -45 -17 -31 21 -35
20 -35 -4 0 -11 -4 -20 -10 -20 -5 0 -10 4 -10 10 0 5 -17 8 -37 7 -35 -2 -38
0 -41 27 -3 28 -2 29 28 22 18 -3 59 -6 91 -6z m-233 -18 c15 -10 41 -24 57
-31 29 -11 62 -48 52 -58 -3 -2 -16 3 -30 11 -13 9 -32 14 -41 10 -12 -5 -28
5 -52 31 -50 54 -42 75 14 37z m551 -8 c458 -215 741 -396 969 -618 78 -77
141 -144 139 -150 -2 -6 -20 -11 -40 -11 -52 -1 -80 -30 -74 -77 6 -48 -4 -49
-81 -6 -113 63 -208 132 -292 212 -47 45 -101 95 -120 113 -19 18 -40 38 -46
45 -6 7 -90 90 -185 184 -96 94 -200 201 -232 237 -42 47 -65 66 -80 64 -13
-1 -23 5 -25 16 -5 22 1 22 67 -9z m-609 -57 c26 -22 43 -58 31 -70 -15 -15
-41 10 -41 40 0 18 -4 24 -15 20 -15 -7 -29 6 -18 17 10 9 26 7 43 -7z m440 9
c0 -3 -4 -8 -10 -11 -5 -3 -10 -1 -10 4 0 6 5 11 10 11 6 0 10 -2 10 -4z m71
-48 c11 -22 37 -59 58 -81 21 -23 69 -89 107 -147 49 -74 113 -150 219 -260
314 -325 385 -426 385 -547 0 -38 -14 -42 -61 -17 -37 19 -53 14 -71 -23 -12
-25 -19 -28 -63 -29 -58 -2 -66 4 -160 116 -105 126 -167 237 -259 465 -32 76
-61 144 -66 150 -4 5 -16 37 -25 70 -9 33 -37 122 -61 197 -24 75 -44 142 -44
148 0 20 20 0 41 -42z m-267 -5 c-15 -11 -21 -10 -36 4 -18 16 -18 18 -2 30
15 11 21 10 36 -4 18 -16 18 -18 2 -30z m129 -57 c10 -68 107 -342 182 -511
103 -231 193 -486 213 -597 9 -53 13 -100 9 -104 -3 -4 -29 3 -56 15 -67 28
-78 27 -91 -13 -6 -19 -22 -41 -35 -50 -23 -15 -25 -14 -45 14 -126 177 -217
681 -200 1110 3 74 4 141 2 148 -2 6 -17 12 -33 12 -31 0 -35 10 -18 41 10 19
10 19 38 0 21 -15 30 -31 34 -65z m-223 30 c0 -16 -34 -31 -50 -21 -22 14 -10
35 20 35 19 0 30 -5 30 -14z m-242 -22 c2 -16 -6 -25 -31 -38 -45 -21 -64 -22
-47 -1 14 17 14 17 -60 15 -37 -1 -75 -11 -115 -30 -33 -15 -76 -31 -95 -35
-19 -4 -55 -18 -80 -31 -25 -13 -50 -24 -55 -24 -21 0 -125 -72 -125 -87 0
-14 3 -13 25 1 93 61 140 82 209 95 30 6 78 22 106 36 27 14 71 28 98 31 46 5
44 4 -67 -55 -63 -34 -118 -61 -121 -61 -14 0 -148 -64 -215 -103 -119 -68
-275 -186 -388 -291 -59 -56 -111 -102 -116 -104 -13 -4 -22 128 -12 170 5 21
24 57 42 80 57 73 202 214 239 233 19 10 60 32 90 50 72 44 245 105 340 121
41 7 98 18 125 24 56 13 187 28 225 26 17 -1 26 -8 28 -22z m150 -32 c3 -16
-1 -20 -12 -16 -19 7 -22 48 -3 42 6 -3 13 -14 15 -26z m189 1 c4 -10 -1 -153
-12 -320 -23 -396 -11 -645 41 -801 13 -40 24 -89 24 -108 0 -33 -2 -36 -22
-29 -13 4 -40 9 -61 12 -32 4 -43 0 -77 -31 -22 -20 -47 -36 -55 -36 -24 0
-46 45 -67 133 -34 141 -24 375 28 651 13 71 24 139 24 152 0 34 100 335 122
367 22 31 45 35 55 10z m-428 -140 c-7 -10 -34 -43 -60 -73 -25 -30 -77 -98
-115 -152 -83 -115 -326 -386 -433 -481 -88 -80 -210 -169 -221 -162 -4 3 -11
26 -15 52 -8 58 -26 72 -90 73 -27 0 -56 4 -63 8 -28 18 17 85 162 243 34 36
82 90 107 120 35 41 88 80 225 165 98 62 195 117 215 123 20 6 64 30 98 52 34
22 69 39 79 37 10 -2 -29 -43 -119 -123 -177 -158 -287 -265 -273 -265 12 0
121 92 300 255 97 88 178 145 208 145 5 0 2 -8 -5 -17z m56 -104 c-109 -163
-160 -279 -125 -279 6 0 10 7 10 15 0 43 185 345 211 345 5 0 1 -16 -7 -36
-21 -50 -110 -313 -140 -413 -13 -46 -29 -91 -34 -101 -9 -17 -47 -158 -94
-345 -12 -49 -35 -109 -50 -133 -15 -24 -31 -54 -36 -67 -12 -30 -24 -31 -48
-5 -63 74 -102 93 -141 68 -28 -17 -55 -1 -59 35 -6 49 69 297 118 392 101
195 151 279 229 385 54 73 231 264 238 257 2 -2 -31 -55 -72 -118z m1153 -872
c22 -25 62 -89 87 -142 55 -113 228 -628 280 -830 76 -297 179 -787 205 -980
6 -44 17 -120 26 -170 12 -77 49 -388 84 -708 5 -51 24 -283 42 -517 29 -385
32 -466 32 -860 1 -441 -14 -1001 -35 -1365 -9 -152 -9 -395 0 -1005 6 -443
11 -1001 11 -1240 0 -638 13 -861 71 -1224 20 -125 25 -246 10 -246 -12 0 -17
26 -31 145 -6 55 -18 134 -26 175 -28 143 -64 398 -75 526 -5 71 -14 550 -19
1064 -5 619 -12 974 -20 1049 -10 89 -10 157 -1 305 6 105 16 382 21 616 6
234 15 515 21 625 11 212 4 1032 -11 1275 -19 296 -118 1138 -171 1450 -17 96
-53 309 -80 472 -50 302 -96 530 -124 609 -9 24 -25 80 -36 124 -71 282 -181
579 -303 820 -20 39 -36 76 -36 83 0 20 30 0 78 -51z m1935 -397 c-1 -3 -14
-39 -29 -80 -24 -69 -54 -125 -41 -75 3 11 9 64 13 118 l6 97 26 -27 c15 -16
26 -30 25 -33z m312 -174 c23 -14 63 -37 87 -52 67 -42 225 -201 276 -279 76
-115 231 -429 219 -442 -10 -10 -60 45 -113 124 -80 119 -186 245 -324 383
-105 104 -210 192 -210 174 0 -3 75 -81 168 -173 144 -143 288 -308 301 -343
2 -6 -23 8 -55 32 -33 23 -129 89 -214 145 -162 108 -236 175 -288 263 -37 61
-40 82 -11 82 30 0 69 40 69 71 0 47 28 52 95 15z m-396 -95 c-6 -33 -18 -69
-26 -78 -13 -16 -14 -14 -9 20 6 43 36 130 43 123 2 -2 -1 -31 -8 -65z m-419
-19 c0 -18 7 -49 15 -69 12 -28 18 -34 27 -25 24 24 29 11 23 -50 -4 -44 1
-114 19 -235 13 -95 27 -177 31 -183 13 -21 44 -9 84 35 23 25 44 45 47 45 10
0 119 -78 138 -99 28 -31 12 -41 -74 -48 l-73 -6 7 46 c10 64 -8 68 -44 10
-17 -26 -51 -66 -75 -89 l-46 -41 4 81 c3 61 -1 93 -15 129 -10 26 -18 61 -18
76 0 33 -34 204 -48 241 -14 37 -26 249 -13 230 6 -8 11 -30 11 -48z m462
-201 c167 -54 223 -74 287 -100 40 -17 79 -31 85 -31 7 0 35 -16 62 -35 27
-19 54 -35 60 -35 29 0 382 -285 370 -298 -3 -2 -31 13 -63 34 -71 48 -317
171 -358 180 -51 11 -17 -11 84 -56 52 -23 111 -54 130 -69 20 -15 69 -49 109
-75 39 -26 72 -50 72 -53 0 -8 -87 4 -225 32 -66 13 -169 34 -230 45 -193 38
-364 101 -455 169 -64 47 -140 113 -140 122 0 5 18 18 40 29 44 22 49 41 29
99 -18 53 -7 65 56 58 30 -3 69 -10 87 -16z m-972 -83 c20 -61 40 -68 56 -19
l11 34 6 -31 c4 -17 11 -82 17 -144 18 -182 29 -256 45 -294 14 -34 15 -35 39
-19 l24 16 7 -98 c9 -132 30 -250 65 -358 16 -49 32 -106 35 -125 23 -114 72
-54 170 209 26 68 55 161 66 205 32 136 41 166 49 166 4 0 13 -18 20 -40 12
-37 11 -44 -13 -93 -56 -113 -108 -347 -76 -347 23 1 151 83 172 111 34 47 14
51 -42 9 -44 -34 -81 -50 -81 -37 0 9 34 103 39 109 3 4 51 -1 106 -10 71 -12
100 -21 100 -31 0 -8 -38 -35 -85 -62 -47 -26 -110 -62 -142 -79 -105 -60
-142 -102 -216 -250 -37 -74 -110 -233 -161 -353 -106 -248 -111 -285 -27
-214 178 149 286 291 286 376 0 40 18 65 44 59 12 -2 10 -15 -11 -73 -34 -92
-35 -119 -5 -123 12 -2 22 -7 22 -11 0 -5 -53 -45 -117 -91 -165 -116 -200
-144 -263 -205 -50 -48 -59 -62 -84 -145 -20 -63 -45 -115 -80 -166 -28 -41
-62 -93 -76 -116 -14 -22 -29 -41 -35 -42 -19 -2 -16 69 5 145 22 77 22 78 3
106 -45 65 -41 69 17 17 l40 -36 29 24 c32 25 113 194 132 276 7 26 47 118 90
204 43 87 81 174 85 195 4 21 13 51 22 67 10 22 13 46 8 89 -10 97 -61 308
-121 497 -7 25 -17 61 -21 80 -9 48 -86 167 -137 211 l-41 37 32 7 c43 9 66
44 57 87 -4 18 -25 80 -47 138 -36 96 -62 215 -43 198 4 -4 15 -31 25 -60z
m1892 17 c42 -8 102 -96 164 -240 73 -169 75 -179 34 -194 -25 -8 -36 -8 -48
2 -18 14 -221 429 -216 439 4 6 9 5 66 -7z m329 -298 c69 -92 74 -113 27 -103
-18 4 -38 12 -44 19 -12 12 -94 191 -94 204 0 14 56 -46 111 -120z m-824 -172
c65 -14 147 -34 183 -45 36 -10 110 -31 165 -45 57 -15 106 -33 115 -43 8 -10
28 -24 43 -30 30 -13 29 -33 -1 -26 -438 100 -602 130 -580 108 4 -3 73 -21
155 -39 264 -60 383 -89 383 -95 0 -8 -295 -47 -447 -60 -118 -10 -447 1 -578
20 -149 21 -175 40 -110 82 44 29 44 53 -1 94 -48 45 -44 75 11 87 107 22 165
26 347 21 158 -4 220 -10 315 -29z m508 -15 c3 -5 -1 -10 -9 -10 -9 0 -16 5
-16 10 0 6 4 10 9 10 6 0 13 -4 16 -10z m459 -10 c13 -12 -1 -40 -19 -40 -23
0 -65 30 -65 47 0 12 8 14 38 8 20 -3 41 -10 46 -15z m-174 0 c0 -5 -11 -12
-24 -16 -15 -3 -27 -15 -30 -30 -4 -13 -11 -24 -17 -24 -16 0 -21 25 -10 53 9
22 17 27 46 27 19 0 35 -4 35 -10z m230 -46 c0 -8 -5 -12 -10 -9 -6 4 -8 11
-5 16 9 14 15 11 15 -7z m-156 -12 c15 -18 15 -20 -4 -37 -16 -14 -22 -15 -35
-5 -8 7 -15 20 -15 30 0 34 28 40 54 12z m-341 -19 c-7 -2 -19 -2 -25 0 -7 3
-2 5 12 5 14 0 19 -2 13 -5z m151 -9 c7 -19 8 -18 -20 -32 -29 -15 -54 9 -34
33 17 20 46 19 54 -1z m381 6 c3 -5 -1 -10 -10 -10 -9 0 -13 5 -10 10 3 6 8
10 10 10 2 0 7 -4 10 -10z m-84 -20 c10 -6 19 -20 19 -31 0 -33 -52 -22 -61
14 -8 30 6 36 42 17z m-187 -23 c8 -14 8 -20 -4 -27 -18 -11 -40 6 -40 32 0
24 28 21 44 -5z m304 -55 c-4 -23 -68 -30 -68 -8 0 8 7 22 16 30 19 20 57 4
52 -22z m-124 -32 c42 0 50 -16 20 -39 -27 -22 -44 -27 -44 -13 -1 24 -18 32
-45 22 -40 -15 -65 -4 -65 29 0 47 18 54 68 26 25 -14 54 -25 66 -25z m-334
-5 c0 -32 -4 -45 -14 -45 -35 0 -24 88 12 90 1 0 2 -20 2 -45z m95 21 c22 -16
14 -46 -13 -46 -29 0 -48 26 -32 45 15 18 21 19 45 1z m415 -36 c0 -5 -7 -10
-16 -10 -8 0 -12 5 -9 10 3 6 10 10 16 10 5 0 9 -4 9 -10z m-368 -52 c-7 -7
-12 -8 -12 -2 0 14 12 26 19 19 2 -3 -1 -11 -7 -17z m278 15 c0 -15 -33 -41
-46 -36 -21 8 -17 22 9 33 28 11 37 12 37 3z m-154 -44 c13 -10 12 -14 -2 -30
-25 -28 -52 -33 -79 -15 -28 18 -31 35 -12 55 14 14 71 8 93 -10z m-1003 -10
c62 -16 51 -30 -46 -59 -87 -25 -283 -110 -353 -153 -69 -42 -137 -105 -159
-148 -15 -28 -14 -32 6 -69 l22 -39 -26 -40 c-32 -48 -82 -89 -128 -106 -19
-7 -42 -16 -51 -20 -25 -10 -23 8 7 84 35 90 86 177 144 246 51 59 68 91 57
103 -9 9 -118 -102 -178 -180 -28 -37 -56 -65 -61 -61 -6 3 -7 37 -2 84 7 84
2 92 -34 62 -16 -13 -27 -44 -41 -118 -11 -55 -25 -122 -30 -149 -20 -97 -56
-159 -125 -214 -62 -49 -83 -57 -65 -23 5 9 28 64 51 124 23 59 76 176 118
260 86 172 96 182 271 279 52 29 127 77 165 106 l70 52 175 -6 c96 -3 192 -10
213 -15z m634 6 c6 -18 -620 -485 -650 -485 -5 0 -23 -10 -40 -22 -54 -39
-226 -108 -269 -108 -22 0 -23 30 -3 69 17 35 11 42 -82 91 -35 18 -63 38 -63
45 0 25 118 123 202 169 181 98 333 148 628 207 25 5 77 17 115 28 72 21 156
24 162 6z m101 -2 c-2 -10 -10 -18 -18 -18 -8 0 -16 8 -18 18 -2 12 3 17 18
17 15 0 20 -5 18 -17z m88 3 c15 -12 17 -19 8 -32 -19 -32 -42 -40 -59 -23
-13 13 -14 20 -4 42 14 31 27 33 55 13z m-2372 -89 c4 -21 13 -40 21 -43 12
-5 15 -29 15 -123 1 -227 47 -425 107 -448 19 -8 52 29 54 61 2 34 16 -32 18
-81 1 -26 -4 -43 -10 -43 -13 0 -114 53 -142 75 -16 11 -21 40 -33 177 -8 90
-23 208 -33 263 -11 55 -25 128 -31 163 -6 35 -14 71 -17 80 -3 9 6 4 20 -13
14 -16 28 -47 31 -68z m2768 68 c15 -33 6 -40 -25 -20 -24 15 -26 15 -36 -2
-6 -10 -11 -13 -11 -8 0 18 30 55 46 55 8 0 20 -11 26 -25z m-2721 -52 c-9
-16 -10 -16 -11 4 0 12 3 30 7 40 7 16 8 16 11 -4 2 -12 -1 -30 -7 -40z m2598
35 c10 -27 -3 -58 -24 -58 -8 0 -30 -13 -48 -30 -42 -36 -63 -38 -69 -5 -4 20
0 25 24 30 19 5 37 20 54 46 27 44 51 50 63 17z m-216 -61 c17 -22 18 -29 7
-42 -17 -20 -33 -19 -54 4 -14 15 -15 23 -5 45 14 31 25 30 52 -7z m-223 13
c0 -5 -7 -10 -16 -10 -8 0 -12 5 -9 10 3 6 10 10 16 10 5 0 9 -4 9 -10z
m-2560 -81 c23 -27 40 -53 37 -56 -9 -8 -91 34 -112 57 -15 16 -15 22 -5 35
20 24 34 18 80 -36z m3080 31 c0 -11 -12 -27 -26 -36 -22 -15 -27 -15 -35 -3
-10 17 -12 43 -2 52 3 4 19 7 35 7 21 0 28 -5 28 -20z m-92 -50 c-2 -8 -13
-16 -26 -18 -25 -4 -29 16 -11 50 11 21 12 21 26 2 7 -10 12 -25 11 -34z
m-559 -6 c-18 -19 -56 -52 -84 -72 -101 -73 -333 -282 -462 -416 -103 -106
-140 -152 -167 -207 -20 -40 -36 -79 -36 -88 0 -32 26 -54 71 -60 39 -5 44 -9
47 -33 2 -15 -13 -69 -34 -120 -40 -101 -63 -177 -125 -422 -22 -87 -46 -171
-54 -185 -7 -14 -41 -53 -75 -86 -68 -68 -80 -65 -80 16 0 52 -22 91 -40 73
-7 -7 -23 -72 -36 -145 -25 -133 -48 -199 -71 -207 -10 -3 -13 26 -13 120 0
151 26 252 101 399 60 116 62 134 16 125 l-33 -6 7 59 c4 33 16 75 28 94 11
18 26 58 32 88 6 30 20 73 32 97 30 62 11 75 -41 28 -38 -35 -69 -90 -153
-278 -35 -79 -49 -95 -49 -56 0 12 -6 46 -12 75 -10 44 -16 53 -34 53 -44 0
-47 -19 -29 -162 14 -107 16 -178 11 -367 -3 -129 -8 -236 -9 -238 -7 -7 -65
96 -87 153 -32 84 -34 121 -15 244 17 110 14 132 -17 158 -23 18 -38 -2 -54
-67 -16 -72 -31 -104 -44 -96 -13 8 -59 157 -68 219 -8 54 -28 70 -57 46 -29
-24 -10 -148 43 -295 14 -38 37 -106 52 -151 34 -100 43 -117 92 -176 21 -26
60 -93 87 -150 46 -98 49 -109 60 -238 7 -74 14 -160 17 -190 l5 -55 -24 28
c-27 31 -98 170 -122 237 -25 69 -42 139 -50 205 -13 118 -22 129 -54 68 l-19
-38 -12 30 c-6 16 -20 60 -30 99 -11 38 -27 77 -35 86 -9 10 -20 31 -24 46
-12 45 -34 35 -48 -20 -10 -40 -10 -54 2 -76 7 -14 32 -98 55 -186 23 -87 51
-176 61 -196 11 -21 16 -38 12 -38 -4 0 -38 19 -75 41 -50 31 -72 39 -80 31
-8 -8 -7 -16 3 -31 58 -81 108 -138 199 -230 58 -58 123 -135 145 -170 115
-184 137 -221 133 -230 -5 -16 -169 61 -197 93 -14 16 -50 55 -79 85 -50 54
-53 55 -67 37 -22 -28 -20 -37 29 -135 l45 -89 -23 -21 c-12 -11 -29 -21 -37
-21 -20 0 -108 45 -140 71 -28 22 -63 20 -72 -5 -8 -21 60 -94 127 -138 68
-44 101 -47 178 -18 29 11 69 20 88 19 49 0 114 -29 139 -61 l21 -26 -39 -7
c-39 -6 -87 -33 -197 -109 -77 -53 -120 -61 -212 -41 -40 9 -80 14 -88 11 -49
-19 34 -98 122 -116 29 -6 74 -8 99 -5 47 8 58 -2 29 -26 -16 -13 -74 -108
-74 -121 0 -18 29 -5 75 33 63 52 68 38 30 -68 -60 -164 -241 -376 -382 -447
-40 -19 -74 -32 -76 -28 -3 4 -1 196 4 427 25 1180 23 1618 -8 2030 l-5 80
115 105 c123 111 246 196 532 365 54 32 167 135 208 190 34 46 49 95 28 95 -5
0 -42 -30 -82 -66 -87 -78 -165 -133 -233 -163 -45 -19 -76 -27 -76 -17 0 26
50 103 85 132 47 38 56 60 29 71 -37 14 -123 -61 -163 -142 -32 -65 -144 -196
-198 -231 -51 -32 -73 -41 -73 -28 0 3 28 60 62 127 52 102 74 134 137 197 42
42 101 90 132 107 31 17 85 57 120 87 61 54 103 79 267 163 61 32 75 36 90 25
87 -63 116 -65 228 -22 43 16 100 36 128 45 29 8 79 36 116 65 36 27 131 97
211 155 81 58 184 134 229 170 45 36 85 65 88 65 3 0 -10 -16 -29 -36z m121
-104 c-17 -56 -48 -127 -67 -158 -97 -152 -265 -374 -333 -440 -41 -41 -104
-103 -140 -138 -83 -82 -98 -83 -102 -6 l-3 57 -65 5 c-47 4 -66 9 -67 20 -5
26 69 146 135 220 67 74 284 267 436 387 50 40 108 87 130 105 47 40 100 69
104 58 2 -5 -11 -54 -28 -110z m560 95 c-7 -9 -15 -13 -17 -11 -7 7 7 26 19
26 6 0 6 -6 -2 -15z m-282 -23 c3 -17 -2 -22 -17 -22 -14 0 -21 6 -21 18 0 38
33 41 38 4z m136 -73 c-3 -5 -16 -9 -30 -9 -17 0 -27 8 -35 27 -6 15 -15 31
-21 34 -6 4 -8 14 -5 22 4 12 16 7 51 -25 25 -23 43 -45 40 -49z m309 59 c19
-14 27 -28 27 -49 0 -31 -7 -32 -43 -1 -9 8 -20 12 -24 8 -4 -3 18 -30 49 -59
42 -39 60 -65 73 -105 10 -29 15 -55 13 -58 -3 -2 -38 35 -79 83 -41 48 -84
98 -96 111 -22 22 -22 24 -7 63 18 44 32 45 87 7z m-228 -9 c10 -29 -1 -35
-25 -14 -25 23 -25 35 -1 35 11 0 23 -9 26 -21z m-327 -33 c3 -14 -22 -45 -89
-108 -51 -48 -94 -86 -96 -84 -6 6 32 79 80 154 36 58 42 63 71 60 21 -2 32
-9 34 -22z m-2088 -63 c-1 -22 -57 -234 -65 -241 -10 -11 -5 39 15 125 11 48
23 98 25 111 6 26 25 30 25 5z m2166 -10 c-7 -16 -30 -90 -50 -166 -20 -75
-65 -206 -100 -290 -34 -83 -69 -168 -77 -188 -30 -76 -196 -383 -226 -418
l-32 -36 -1 30 c0 17 -7 41 -16 53 -14 21 -21 23 -68 17 -41 -5 -55 -3 -65 9
-24 28 -6 112 44 210 117 232 204 384 250 437 28 31 62 77 77 101 33 54 91
122 142 168 92 83 112 99 124 100 10 0 9 -6 -2 -27z m344 -2 c7 -13 7 -22 0
-26 -15 -9 -30 4 -30 26 0 25 16 25 30 0z m-107 -43 c20 -78 50 -434 50 -586
1 -183 12 -206 27 -56 9 84 3 200 -19 364 -6 41 -10 104 -10 140 l1 65 19 -65
c11 -36 28 -87 38 -115 36 -93 102 -379 116 -505 9 -72 15 -214 15 -335 0
-230 -5 -253 -46 -214 l-23 22 -43 -22 -43 -21 -17 20 c-30 37 -55 123 -77
265 -12 77 -25 163 -30 190 -5 28 -5 55 -1 60 5 6 10 192 12 413 2 293 6 402
14 402 7 0 14 -10 17 -22z m208 -75 c20 -21 52 -60 71 -88 41 -57 168 -282
168 -296 0 -6 15 -47 34 -92 68 -165 125 -389 142 -558 6 -65 5 -66 -19 -73
-14 -3 -44 -27 -66 -52 -27 -31 -46 -44 -56 -40 -19 7 -48 73 -85 196 -26 86
-41 133 -87 270 -8 25 -23 81 -33 125 -10 44 -29 116 -40 160 -12 44 -28 105
-35 135 -7 30 -25 99 -40 153 -14 55 -24 101 -21 104 8 8 91 -164 156 -325 36
-89 71 -198 86 -264 28 -129 34 -148 41 -131 5 12 -32 217 -49 273 -31 105
-127 339 -179 437 -32 62 -59 115 -59 118 0 12 37 -15 71 -52z m-312 -5 c0
-31 -1 -31 -10 -10 -5 13 -7 28 -3 33 10 16 14 9 13 -23z m231 11 c0 -6 -4 -7
-10 -4 -5 3 -10 11 -10 16 0 6 5 7 10 4 6 -3 10 -11 10 -16z m-286 -51 c4 -35
11 -79 17 -99 16 -62 39 -259 39 -333 0 -64 -22 -260 -49 -451 -10 -67 -48
-195 -73 -242 -15 -31 -28 -29 -28 4 0 32 -26 63 -53 63 -11 0 -36 -12 -55
-27 -42 -32 -57 -26 -91 41 -32 62 -37 153 -17 293 16 109 55 223 105 309 10
16 33 68 50 115 18 46 41 102 52 125 10 22 19 47 19 55 0 13 40 157 55 197 11
29 23 8 29 -50z m-1442 -5 c10 -9 18 -22 18 -29 0 -16 -30 -33 -48 -27 -7 3
-25 -3 -40 -13 l-27 -17 18 26 c9 15 24 38 33 52 19 30 22 30 46 8z m-1258
-113 c19 -19 -9 -28 -69 -22 l-60 7 25 18 c26 19 83 18 104 -3z m325 -161 c66
-34 86 -50 120 -98 l40 -58 -25 -64 c-34 -88 -66 -150 -80 -156 -19 -7 -114
69 -114 92 0 11 -7 83 -15 160 -17 156 -17 165 -10 165 3 0 41 -18 84 -41z
m-305 -316 c26 -3 43 -10 40 -15 -4 -6 -48 -7 -118 -3 -94 6 -120 12 -170 37
-32 16 -56 32 -53 34 3 3 37 -6 77 -19 62 -21 73 -22 86 -10 8 8 14 24 14 36
0 19 4 17 39 -17 31 -30 49 -39 85 -43z m1720 -81 c2 -4 -9 -39 -26 -77 -26
-62 -75 -187 -144 -371 -12 -34 -35 -113 -49 -175 -87 -379 -109 -483 -135
-649 -16 -102 -43 -248 -59 -325 -36 -172 -41 -211 -90 -710 -48 -484 -49
-494 -61 -770 -5 -121 -20 -337 -34 -480 -13 -143 -29 -327 -36 -410 -10 -144
-59 -465 -81 -532 -10 -32 -29 -45 -29 -20 0 6 7 67 15 135 14 114 20 159 46
322 5 36 14 112 19 170 5 58 14 139 20 180 6 41 10 109 9 151 -1 42 2 83 7 90
5 8 12 79 15 159 20 455 47 890 59 943 5 23 19 141 30 262 24 252 60 511 96
700 70 366 87 443 101 480 8 22 23 79 33 127 19 92 74 298 116 438 15 47 41
139 60 204 19 66 41 130 49 143 15 22 58 32 69 15z m-979 -14 c14 -6 25 -15
25 -19 0 -5 -21 -20 -47 -33 -27 -14 -68 -38 -93 -55 -24 -17 -45 -29 -47 -28
-2 2 128 144 134 146 1 1 14 -4 28 -11z m370 -263 c-31 -112 -32 -145 -5 -145
25 0 25 0 -6 -63 -41 -85 -63 -198 -75 -390 -7 -98 -9 -180 -6 -184 4 -3 25 4
49 15 23 12 44 20 46 17 2 -2 -10 -24 -27 -49 -17 -25 -36 -69 -42 -98 -13
-65 1 -360 17 -365 16 -5 81 65 116 125 16 29 32 51 35 48 13 -13 -23 -75 -92
-161 -62 -78 -75 -100 -75 -130 0 -54 29 -184 51 -231 21 -45 24 -64 9 -64 -5
0 -14 17 -20 38 -6 20 -37 75 -70 122 -33 47 -72 108 -86 135 -39 74 -74 121
-153 210 -39 43 -71 84 -71 91 0 6 11 15 25 18 34 9 32 27 -10 95 -47 76 -57
113 -38 140 28 41 53 18 53 -50 0 -51 75 -238 130 -326 34 -53 86 -113 99
-113 6 0 18 11 26 24 14 21 15 46 4 222 -12 197 -12 200 -45 262 -41 75 -42
92 -10 92 13 0 29 6 35 14 8 10 16 110 23 296 l12 282 26 27 c15 14 37 57 50
96 21 65 38 100 46 92 2 -1 -8 -43 -21 -92z m-665 35 c-6 -11 -14 -20 -19 -20
-4 0 -37 -27 -73 -60 -36 -32 -68 -56 -72 -53 -12 12 -6 43 9 43 8 0 22 12 32
27 19 28 98 83 120 83 11 0 11 -5 3 -20z m-1276 -166 c21 -8 21 -43 0 -51 -11
-4 -22 1 -30 12 -27 36 -12 55 30 39z m-96 -51 c-2 -23 -8 -29 -35 -31 -40 -4
-42 9 -7 37 36 28 46 26 42 -6z m212 -18 c10 -12 10 -15 -3 -15 -8 0 -20 7
-27 15 -10 12 -10 15 3 15 8 0 20 -7 27 -15z m-325 -20 c0 -30 -39 -27 -43 3
-3 20 0 23 20 20 15 -2 23 -10 23 -23z m1841 -25 c-30 -152 -30 -151 -4 -225
14 -38 29 -78 33 -87 15 -37 -12 -15 -47 38 -51 77 -58 141 -23 208 14 27 25
60 25 73 0 13 5 23 11 23 7 0 9 -11 5 -30z m-1676 0 c0 -15 -7 -20 -25 -20
-24 0 -34 18 -18 33 15 15 43 7 43 -13z m104 -6 c21 -20 20 -37 -3 -58 -18
-16 -20 -16 -35 6 -35 50 -3 94 38 52z m-204 -29 c0 -19 -32 -85 -41 -85 -25
0 -33 56 -12 93 8 14 53 7 53 -8z m316 -12 c-10 -10 -19 5 -10 18 6 11 8 11
12 0 2 -7 1 -15 -2 -18z m-426 -48 c0 -37 -10 -44 -29 -21 -9 11 -10 20 -1 35
16 32 30 25 30 -14z m236 -24 c-9 -13 -43 -15 -51 -2 -3 5 2 17 11 26 15 14
19 15 32 2 8 -8 11 -20 8 -26z m140 -7 c-26 -19 -36 -18 -36 4 0 30 22 45 40
26 13 -14 13 -17 -4 -30z m-236 -9 c0 -34 -13 -47 -23 -22 -5 13 9 57 18 57 3
0 5 -16 5 -35z m179 -41 c8 -19 16 -24 29 -18 23 10 92 12 92 3 0 -14 -38 -29
-74 -29 -62 0 -142 43 -114 62 26 16 55 8 67 -18z m-369 1 c0 -8 -4 -15 -10
-15 -5 0 -10 7 -10 15 0 8 5 15 10 15 6 0 10 -7 10 -15z m138 -7 c3 -15 -4
-18 -37 -18 -45 0 -60 13 -34 29 26 16 67 9 71 -11z m2362 -13 c0 -8 -20 -36
-44 -62 -73 -81 -140 -158 -164 -189 -21 -28 -21 -27 3 23 14 29 25 67 26 85
1 18 4 44 8 57 6 21 8 22 20 8 11 -14 16 -15 40 -3 14 8 44 33 66 55 44 46 45
47 45 26z m-2226 -27 c13 -21 -2 -53 -25 -53 -17 0 -43 51 -34 66 10 15 46 7
59 -13z m-225 -22 c15 -8 33 -22 40 -30 12 -14 9 -16 -21 -16 -33 0 -53 13
-72 48 -10 17 18 16 53 -2z m130 -40 c8 -10 8 -16 -2 -25 -16 -13 -27 -5 -27
21 0 21 13 23 29 4z m205 6 c8 -13 -40 -36 -59 -28 -14 5 -15 9 -5 21 13 16
55 20 64 7z m-279 -62 c3 -5 -1 -10 -9 -10 -9 0 -16 5 -16 10 0 6 4 10 9 10 6
0 13 -4 16 -10z m2314 -197 c-36 -186 -40 -198 -72 -232 -19 -20 -46 -57 -61
-83 -15 -27 -33 -48 -40 -48 -15 0 -26 82 -26 199 l0 77 64 86 c66 91 157 198
167 198 3 0 -11 -89 -32 -197z m-2029 183 c0 -3 -4 -8 -10 -11 -5 -3 -10 -1
-10 4 0 6 5 11 10 11 6 0 10 -2 10 -4z m-180 -26 c12 -8 11 -10 -7 -10 -13 0
-23 5 -23 10 0 13 11 13 30 0z m230 -38 c-3 -21 -12 -46 -18 -57 -11 -20 -11
-20 -12 0 0 30 20 95 29 95 5 0 5 -17 1 -38z m1590 -10 c0 -15 -2 -15 -10 -2
-13 20 -13 33 0 25 6 -3 10 -14 10 -23z m-1685 -2 c3 -5 -3 -10 -14 -10 -11 0
-23 5 -26 10 -3 6 3 10 14 10 11 0 23 -4 26 -10z m2365 -60 c0 -17 7 -33 17
-38 15 -9 14 -14 -10 -53 -36 -62 -120 -163 -132 -160 -20 5 -4 42 34 80 23
23 42 53 45 72 18 91 29 129 37 129 5 0 9 -13 9 -30z m-2409 -19 c27 -21 18
-42 -9 -23 -9 7 -27 16 -39 22 -30 12 -29 20 1 20 13 0 34 -9 47 -19z m110
-67 c4 -16 30 -80 58 -142 28 -62 57 -135 65 -161 8 -27 21 -63 30 -80 9 -17
13 -31 9 -31 -11 0 -85 137 -100 184 -6 21 -35 86 -64 143 -42 85 -49 107 -38
114 21 13 33 5 40 -27z m-183 -282 c42 -52 105 -147 115 -175 4 -9 24 -43 45
-75 22 -31 54 -85 71 -120 19 -37 41 -66 54 -71 20 -8 22 -14 19 -75 -2 -36
-8 -66 -12 -66 -5 0 -14 19 -21 43 -6 23 -22 56 -35 74 -13 17 -28 43 -34 57
-8 23 -32 42 -118 97 l-32 21 30 28 c16 15 30 31 30 34 0 16 -56 116 -97 173
-50 72 -67 83 -122 83 -21 0 -46 3 -55 6 -34 13 -13 19 54 16 69 -4 70 -4 108
-50z m-1042 -52 c8 0 14 5 14 11 0 23 23 1 35 -34 7 -20 25 -53 40 -73 62 -81
259 -223 505 -362 80 -46 199 -123 265 -172 66 -49 126 -90 133 -90 27 0 7 45
-48 105 -16 17 -73 98 -129 182 -56 84 -109 158 -119 165 -9 7 -30 33 -46 57
-22 35 -25 45 -14 52 7 5 18 9 23 9 6 -1 44 -55 85 -122 41 -67 98 -147 126
-177 28 -31 66 -83 84 -116 84 -151 170 -251 347 -402 34 -29 65 -62 68 -73 7
-22 55 -29 55 -7 0 24 -130 271 -158 300 -15 16 -49 43 -77 62 -53 35 -93 75
-139 138 -27 37 -27 39 -10 52 11 8 21 15 25 15 3 0 24 -33 47 -74 68 -119
156 -187 204 -157 11 7 22 11 24 9 7 -7 36 -162 35 -186 0 -13 3 -21 8 -18 13
9 36 -23 84 -119 42 -85 134 -207 288 -387 61 -71 84 -106 75 -115 -8 -8 -116
94 -204 190 -44 48 -82 82 -95 83 -37 4 -144 -24 -200 -52 -74 -37 -112 -68
-148 -120 l-31 -46 -23 28 -23 28 -51 -32 c-29 -18 -56 -32 -61 -32 -18 0
-168 -121 -229 -185 -37 -38 -83 -75 -107 -85 -23 -10 -60 -38 -83 -61 -56
-59 -52 -45 12 34 28 36 91 95 140 132 48 36 87 70 87 76 0 5 -7 20 -15 33
-15 23 -15 24 22 31 21 3 61 17 90 31 28 13 58 24 65 24 24 1 183 106 186 123
5 25 -9 39 -123 130 -55 43 -103 82 -108 86 -4 4 15 8 43 8 27 0 50 -4 50 -9
0 -19 106 -121 155 -149 62 -36 91 -36 162 -3 41 20 58 35 69 60 8 18 14 38
14 43 0 31 -347 353 -417 386 -59 29 -188 33 -244 7 -66 -29 -215 -167 -232
-215 -5 -13 -13 -16 -31 -11 -19 4 -28 -1 -45 -25 -13 -17 -28 -31 -35 -31 -7
0 -28 -16 -47 -36 -79 -82 -224 -161 -282 -152 -14 2 10 19 81 56 123 64 164
97 160 126 -2 14 -9 20 -23 18 -11 -1 -45 -5 -75 -8 l-55 -5 84 34 c46 20 114
57 152 84 37 26 112 71 166 98 84 43 98 54 98 75 0 23 -5 26 -70 37 -71 12
-216 71 -231 94 -5 9 -2 10 12 4 78 -33 232 -78 297 -86 98 -12 117 -7 117 32
0 25 -9 35 -57 66 -155 99 -354 169 -454 160 -105 -9 -242 -88 -291 -167 -21
-35 -39 -52 -57 -55 -14 -3 -55 -12 -91 -21 -91 -23 -130 -28 -130 -16 0 6 30
38 68 72 70 65 139 104 337 190 113 49 135 71 101 99 -19 16 -301 44 -392 38
-94 -5 -151 -34 -238 -118 -38 -38 -82 -72 -97 -78 -46 -16 -36 8 26 62 40 35
55 55 55 74 0 25 -2 25 -42 19 -117 -17 -138 -19 -138 -8 0 6 19 16 43 22 76
20 82 22 105 36 27 17 29 59 5 73 -35 19 16 24 192 18 183 -7 384 -41 428 -72
26 -18 57 -20 57 -2 0 7 -47 55 -106 106 -95 84 -194 193 -194 214 0 5 12 -1
26 -12 15 -12 33 -21 40 -21z m3125 -143 c-3 -52 -39 -199 -52 -211 -5 -6 -9
24 -9 78 0 77 3 94 27 136 15 27 30 47 32 44 3 -3 4 -24 2 -47z m-1601 -254
c0 -2 -4 -3 -9 -3 -12 0 -51 93 -51 123 0 50 14 34 36 -40 13 -43 23 -79 24
-80z m1801 40 c-30 -26 -38 -14 -22 30 10 26 11 27 30 10 18 -18 18 -18 -8
-40z m-3954 -10 c4 -11 -44 -24 -142 -38 l-40 -6 30 18 c61 36 144 50 152 26z
m3364 -27 c22 -18 68 -44 101 -56 55 -20 128 -74 116 -85 -2 -3 -37 5 -77 16
l-73 21 -62 -20 c-87 -29 -123 -35 -131 -23 -3 6 2 14 12 17 10 3 25 10 33 15
8 5 29 15 46 23 40 18 51 36 32 50 -17 12 -52 76 -42 76 3 0 24 -15 45 -34z
m-1299 -19 c15 -22 66 -147 150 -372 64 -169 168 -488 168 -516 0 -22 -2 -21
-36 12 -20 18 -61 68 -92 109 -30 41 -65 86 -77 100 -12 14 -45 75 -73 137
-39 84 -55 135 -67 205 -22 134 -18 348 5 348 4 0 14 -10 22 -23z m145 -132
c25 -66 58 -148 75 -182 16 -33 32 -81 35 -105 l4 -43 -19 40 c-10 22 -31 76
-47 120 -16 44 -32 85 -37 91 -11 15 -78 183 -78 195 0 6 5 9 11 7 7 -2 32
-58 56 -123z m1413 -26 c0 -4 -7 -6 -15 -3 -8 4 -15 10 -15 15 0 4 7 6 15 3 8
-4 15 -10 15 -15z m55 -39 c3 -5 1 -10 -4 -10 -6 0 -11 5 -11 10 0 6 2 10 4
10 3 0 8 -4 11 -10z m-1784 -217 c11 -24 19 -48 17 -54 -9 -27 -198 181 -198
218 0 25 159 -120 181 -164z m1734 117 c-3 -5 -12 -10 -19 -10 -7 0 -39 -13
-72 -30 -45 -22 -71 -45 -109 -94 -27 -36 -52 -65 -55 -66 -3 0 -5 17 -5 37 0
21 -5 37 -10 36 -6 -1 -24 -4 -40 -8 -27 -5 -28 -4 -11 7 10 7 46 33 79 58 33
24 83 52 111 62 56 19 141 24 131 8z m29 -140 c0 -41 -8 -210 -17 -375 -10
-165 -24 -437 -32 -605 -26 -530 -52 -752 -125 -1080 -23 -102 -57 -257 -77
-345 -61 -279 -83 -356 -109 -390 -27 -36 -32 -54 -9 -35 19 16 19 18 -4 -73
-19 -72 -39 -117 -52 -117 -10 0 -34 32 -73 97 -44 75 -140 178 -155 169 -17
-11 -13 -35 13 -69 41 -54 147 -245 165 -298 l18 -50 -49 -162 c-107 -358
-170 -527 -196 -527 -8 0 -22 96 -48 330 -8 74 -20 173 -25 220 -13 109 -27
1778 -18 2095 9 322 15 338 155 408 29 15 75 52 105 85 61 67 134 122 199 151
62 27 180 141 180 174 0 39 -14 40 -66 7 -26 -16 -57 -30 -67 -30 -18 0 -19 5
-14 53 3 28 13 77 21 107 9 30 16 80 16 111 0 46 5 63 29 95 56 78 148 136
206 132 l30 -3 -1 -75z m-1894 -107 c71 -56 190 -175 190 -191 0 -6 3 -17 6
-26 8 -21 -52 -56 -97 -56 -24 0 -45 8 -62 24 -15 14 -35 27 -46 31 -26 8 -67
72 -75 116 -4 20 -29 81 -56 134 -27 54 -47 102 -44 107 3 5 31 -13 62 -40 31
-26 86 -71 122 -99z m585 26 c9 -28 14 -53 11 -56 -6 -7 -20 27 -31 75 -10 49
1 38 20 -19z m33 -104 c-3 -3 -9 2 -12 12 -6 14 -5 15 5 6 7 -7 10 -15 7 -18z
m163 -435 c42 -124 43 -130 30 -130 -11 0 -70 131 -87 194 -7 27 -24 76 -37
110 -36 91 -57 161 -57 187 1 28 93 -194 151 -361z m752 185 c-3 -9 -8 -14
-10 -11 -3 3 -2 9 2 15 9 16 15 13 8 -4z m-40 -72 c-4 -26 -26 -51 -103 -120
-102 -92 -232 -179 -250 -168 -16 10 -12 23 11 30 57 18 218 147 283 225 32
39 59 70 61 68 1 -2 0 -17 -2 -35z m-1903 -117 c0 -3 -4 -8 -10 -11 -5 -3 -10
-1 -10 4 0 6 5 11 10 11 6 0 10 -2 10 -4z m1277 -212 c4 -11 -113 -71 -122
-62 -3 2 11 22 31 42 26 27 43 36 62 34 14 -2 27 -8 29 -14z m-155 -106 c-7
-7 -12 -8 -12 -2 0 6 3 14 7 17 3 4 9 5 12 2 2 -3 -1 -11 -7 -17z m-28 -33
c-6 -15 -35 -35 -50 -35 -4 0 3 11 16 25 26 28 42 33 34 10z m-101 -97 c-69
-91 -145 -174 -178 -194 -48 -28 -70 -32 -38 -6 12 9 34 32 48 51 30 42 20 61
-33 61 -44 0 -32 12 28 29 25 8 74 28 110 46 65 33 81 36 63 13z m2437 -722
c0 -8 7 -22 15 -30 14 -14 14 -22 -5 -82 -11 -37 -23 -91 -26 -121 -4 -29 -11
-56 -17 -60 -11 -7 -4 261 8 290 9 21 25 23 25 3z m-383 -208 c-3 -8 -6 -5 -6
6 -1 11 2 17 5 13 3 -3 4 -12 1 -19z m23 -138 l29 0 -43 -84 c-38 -74 -45 -99
-60 -207 -9 -68 -16 -144 -16 -169 0 -87 -16 -71 -42 43 -14 61 -29 123 -33
137 l-8 25 25 -23 c24 -22 25 -22 41 -4 10 11 17 35 17 57 0 21 12 104 28 184
24 131 27 140 30 94 3 -51 4 -53 32 -53z m800 21 c0 -5 -7 -12 -16 -15 -14 -5
-15 -4 -4 9 14 17 20 19 20 6z m-1536 -132 c33 -82 66 -243 66 -321 0 -43 -3
-78 -7 -78 -5 0 -19 17 -33 37 -14 20 -44 59 -67 87 -57 66 -57 84 -7 264 8
28 18 52 23 52 5 0 16 -19 25 -41z m-174 -228 c-24 -127 -116 -460 -131 -475
-5 -6 -9 -19 -9 -30 0 -18 -3 -17 -19 8 -16 23 -17 34 -9 65 6 20 16 39 24 44
7 4 11 14 8 21 -3 8 4 36 15 63 18 43 44 148 85 350 8 39 23 84 33 100 l18 27
3 -28 c2 -16 -6 -81 -18 -145z m275 129 c3 -5 20 -10 37 -10 28 0 30 -2 23
-27 -4 -16 -10 -94 -12 -176 -4 -120 -2 -153 11 -179 12 -22 16 -61 16 -138 0
-199 15 -238 64 -162 39 60 246 251 246 226 0 -3 -16 -24 -35 -47 -41 -47 -43
-62 -14 -78 28 -14 9 -29 -38 -29 -26 0 -44 -12 -91 -57 -93 -92 -97 -103 -94
-273 2 -80 6 -147 8 -150 3 -2 22 4 42 15 41 22 109 116 207 285 52 90 65 105
84 102 13 -1 30 3 37 9 21 18 17 2 -7 -23 -12 -13 -35 -47 -53 -75 -46 -77
-153 -229 -208 -296 -26 -32 -48 -62 -48 -67 0 -45 183 0 289 71 123 82 301
299 301 366 0 18 5 33 10 33 6 0 10 -6 10 -14 0 -7 7 -19 15 -26 13 -11 22 -7
57 26 74 71 35 17 -95 -131 -74 -85 -127 -154 -125 -163 5 -26 65 -33 136 -16
93 23 249 101 279 141 15 19 30 30 37 26 6 -4 31 -10 55 -13 l44 -5 -77 -45
c-77 -46 -95 -70 -52 -70 14 0 27 -4 31 -9 3 -6 -27 -10 -74 -10 -71 0 -101
-7 -263 -61 -101 -34 -204 -66 -230 -71 -25 -6 -54 -19 -64 -30 -17 -19 -16
-21 17 -55 32 -34 33 -36 9 -29 -14 4 -37 14 -51 21 -55 28 -112 34 -181 19
-111 -23 -112 -24 -406 -280 -50 -44 -92 -85 -92 -91 -1 -49 186 -82 354 -64
112 13 180 41 256 107 25 22 82 65 126 96 45 31 96 73 113 93 53 60 151 136
167 130 8 -3 30 1 47 10 l32 16 -40 -42 c-22 -23 -59 -53 -82 -67 -37 -22 -41
-27 -32 -45 6 -11 9 -21 7 -22 -2 -1 -28 -17 -58 -36 -30 -18 -99 -62 -153
-97 -89 -58 -96 -66 -86 -84 12 -23 12 -23 134 5 39 9 90 16 114 16 82 0 226
23 251 40 14 10 41 22 61 29 20 6 57 25 83 41 26 17 49 30 53 30 3 0 -11 -18
-31 -40 -20 -22 -36 -45 -36 -50 0 -6 -20 -10 -44 -10 -27 0 -52 -7 -67 -18
-14 -11 -49 -22 -85 -25 -33 -4 -119 -18 -190 -32 -71 -14 -203 -34 -294 -45
-91 -11 -189 -27 -218 -37 -49 -15 -57 -15 -130 1 -59 14 -107 17 -202 14
l-125 -4 -140 -73 c-77 -40 -149 -82 -160 -93 -20 -19 -20 -19 13 -47 33 -28
117 -72 287 -152 84 -40 88 -43 60 -48 -25 -6 -30 -11 -28 -34 1 -15 -1 -27
-3 -27 -12 0 -172 131 -178 145 -6 17 -37 20 -52 5 -8 -8 -19 1 -36 27 -14 21
-52 56 -84 78 -65 44 -74 53 -74 76 0 12 7 14 29 11 18 -2 45 4 68 16 21 10
50 25 65 32 15 7 54 38 86 69 48 46 62 68 80 123 21 61 22 73 12 154 -17 136
-29 178 -66 240 -30 50 -33 59 -20 73 15 17 9 80 -13 135 -15 38 -8 56 23 56
29 0 32 -11 46 -147 15 -151 21 -181 36 -194 11 -9 17 -9 28 0 18 15 73 108
110 188 26 55 50 82 63 70 2 -3 -34 -80 -79 -172 -81 -163 -83 -170 -86 -250
-4 -88 7 -125 36 -125 26 0 112 54 162 102 25 24 79 83 120 133 l75 90 0 170
c0 257 -19 452 -51 532 l-26 65 20 28 c19 26 20 34 12 116 -5 49 -10 117 -10
150 0 34 -7 80 -15 103 -13 36 -6 57 10 31z m-126 -353 c87 -167 95 -189 121
-377 18 -120 21 -182 17 -275 -6 -145 -25 -202 -93 -282 -46 -53 -170 -163
-185 -163 -4 0 -10 31 -14 69 -7 67 -6 70 35 147 23 44 51 104 62 134 11 30
29 62 38 70 10 8 30 35 43 60 13 25 38 70 56 100 17 30 31 61 31 68 0 26 -28
10 -69 -38 -65 -77 -81 -69 -87 42 -3 71 -13 96 -32 84 -13 -8 -32 -94 -32
-141 0 -37 -32 -164 -55 -219 -15 -35 -42 -63 -51 -53 -3 3 -17 68 -31 144
-26 137 -26 138 -8 208 10 39 28 97 41 130 29 77 94 313 94 344 0 30 30 92 41
86 4 -3 39 -65 78 -138z m671 3 c0 -5 -2 -10 -4 -10 -3 0 -8 5 -11 10 -3 6 -1
10 4 10 6 0 11 -4 11 -10z m-80 -190 c-6 -22 -18 -44 -26 -47 -14 -5 -54 22
-54 38 0 5 19 27 42 51 39 39 42 41 46 21 2 -12 -2 -40 -8 -63z m424 -16 c24
-9 19 -27 -19 -64 l-35 -33 -15 36 c-8 20 -15 41 -15 46 0 16 56 26 84 15z
m-169 -86 c-9 -93 -28 -134 -107 -233 -109 -136 -183 -189 -291 -209 -43 -8
-43 -9 5 58 15 21 28 45 28 53 0 7 7 16 15 19 9 4 50 56 92 118 128 186 163
227 207 247 23 10 45 19 50 19 4 0 5 -33 1 -72z m-347 -37 c10 -6 8 -14 -11
-37 -13 -16 -39 -60 -58 -97 -18 -37 -54 -91 -80 -120 l-47 -52 -5 35 c-20
127 -19 135 29 195 25 30 46 55 47 55 1 0 20 7 42 15 46 16 65 18 83 6z m-857
-94 c-17 -17 -25 21 -10 51 l13 27 4 -34 c2 -18 -1 -38 -7 -44z m-42 -158 c16
-48 15 -65 -5 -49 -23 20 -35 47 -28 64 9 25 21 19 33 -15z m1451 -118 c0 -14
-100 -72 -111 -66 -17 11 8 38 52 56 53 21 59 22 59 10z m-1484 -72 c-19 -119
-222 -609 -246 -594 -9 6 -5 23 17 65 7 14 13 30 13 36 0 6 23 66 50 133 28
67 50 126 50 132 0 17 81 243 92 257 20 24 31 12 24 -29z m1264 -9 c0 -5 -5
-21 -12 -35 -10 -23 -16 -25 -75 -25 -34 0 -63 3 -63 8 0 9 109 60 133 61 9 1
17 -3 17 -9z m-1160 -122 c45 -106 49 -248 7 -309 -34 -50 -158 -147 -192
-151 -26 -3 -30 1 -33 24 -3 24 15 79 53 163 39 85 115 288 115 305 0 38 28
20 50 -32z m852 2 c34 -11 84 -23 111 -26 26 -4 49 -10 52 -14 11 -18 -235
-221 -310 -255 -76 -36 -189 -49 -293 -35 -47 6 -92 15 -100 19 -10 6 8 28 69
82 46 41 108 97 139 124 90 82 94 84 171 104 94 24 86 24 161 1z m393 -70 c-3
-5 -13 -10 -21 -10 -8 0 -12 5 -9 10 3 6 13 10 21 10 8 0 12 -4 9 -10z m-1926
-236 c28 -46 27 -53 -4 -24 -14 13 -25 32 -25 42 0 26 5 23 29 -18z m1376
-160 c17 -7 14 -9 -20 -15 -40 -7 -92 12 -81 30 6 9 66 0 101 -15z m-1085 -64
c0 -5 -4 -10 -9 -10 -6 0 -13 5 -16 10 -3 6 1 10 9 10 9 0 16 -4 16 -10z
m1252 -120 c59 -29 106 -56 103 -58 -2 -2 -29 4 -61 14 -45 14 -60 15 -76 5
-10 -6 -23 -9 -28 -6 -11 7 -100 123 -100 131 0 3 12 -3 28 -13 15 -10 75 -43
134 -73z m1 -125 c9 -19 13 -35 9 -35 -5 0 -16 16 -25 35 -9 19 -13 35 -9 35
5 0 16 -16 25 -35z"/>
<path d="M2915 12655 c-33 -7 -104 -29 -157 -50 -54 -20 -130 -45 -170 -56
-71 -20 -144 -56 -134 -66 3 -3 23 2 45 10 24 10 43 13 46 7 3 -5 28 0 58 12
195 79 285 106 377 113 103 8 145 19 135 35 -9 14 -128 11 -200 -5z"/>
<path d="M3134 12404 c-21 -8 -105 -30 -185 -49 -120 -29 -166 -35 -253 -35
-111 0 -141 -14 -59 -26 59 -9 225 10 318 36 39 11 102 23 140 26 66 6 115 24
115 43 0 16 -37 18 -76 5z"/>
<path d="M2260 11460 c0 -15 82 -166 100 -184 4 -4 13 -7 19 -5 6 2 -19 49
-54 104 -36 55 -65 93 -65 85z"/>
<path d="M1870 11672 c0 -9 99 -241 107 -251 12 -16 10 14 -3 60 -26 88 -104
231 -104 191z"/>
<path d="M607 11718 c-97 -60 -186 -132 -175 -143 4 -4 24 6 45 22 21 17 77
55 124 86 82 52 106 73 97 83 -3 2 -43 -20 -91 -48z"/>
<path d="M1657 11895 c-14 -44 -34 -255 -23 -244 8 7 38 228 34 246 -4 16 -5
16 -11 -2z"/>
<path d="M3092 8345 c0 -16 2 -22 5 -12 2 9 2 23 0 30 -3 6 -5 -1 -5 -18z"/>
<path d="M5325 9823 c20 -47 87 -153 98 -153 12 0 8 13 -14 45 -11 17 -33 56
-50 88 -33 63 -58 79 -34 20z"/>
<path d="M5156 9072 c-93 -27 -81 -44 14 -20 44 11 80 24 80 29 0 13 -26 10
-94 -9z"/>
<path d="M5607 8370 c-13 -100 -16 -150 -7 -150 4 0 11 38 15 84 8 91 1 140
-8 66z"/>
</g>
</svg>
