<?xml version="1.0" standalone="no"?>
   <!DOCTYPE svg PUBLIC "-//W3C//DTD SVG 1.1//EN" 
   "http://www.w3.org/Graphics/SVG/1.1/DTD/svg11.dtd"><svg id="svg" version="1.1" width="5502" height="5502" xmlns="http://www.w3.org/2000/svg"><path d="M3408.000 459.023 C 3286.523 469.084,3124.399 520.698,3036.000 577.453 C 3009.000 594.788,2976.528 619.189,2934.000 654.102 C 2886.628 692.991,2856.581 715.206,2822.392 736.618 L 2791.500 755.965 2733.000 756.051 C 2598.121 756.249,2483.426 763.240,2410.500 775.708 C 2331.280 789.252,2181.000 835.543,2181.000 846.402 C 2181.000 850.829,2187.338 849.570,2265.536 829.610 C 2348.320 808.480,2421.550 793.106,2453.610 790.126 C 2472.234 788.395,2474.602 788.824,2480.318 794.959 C 2489.062 804.344,2489.896 812.041,2493.008 912.000 C 2495.174 981.564,2497.020 1006.006,2501.638 1026.231 C 2512.838 1075.291,2538.795 1133.511,2579.113 1200.000 C 2618.943 1265.684,2663.542 1330.456,2666.740 1327.262 C 2667.708 1326.295,2669.175 1249.678,2670.000 1157.002 L 2671.500 988.500 2699.787 1035.000 C 2781.013 1168.528,2834.827 1233.900,2917.500 1299.473 C 2951.006 1326.049,2990.027 1350.979,3054.956 1387.292 C 3088.255 1405.915,3136.937 1434.168,3163.137 1450.076 C 3189.337 1465.984,3212.480 1479.000,3214.566 1479.000 C 3230.374 1479.000,3212.511 1429.080,3158.744 1323.000 C 3114.978 1236.652,3075.491 1181.750,3017.489 1126.599 C 2959.075 1071.057,2895.177 1027.596,2790.000 971.871 C 2724.526 937.182,2685.868 914.156,2647.977 887.279 C 2606.722 858.017,2532.000 795.486,2532.000 790.225 C 2532.000 781.112,2548.103 778.993,2627.424 777.668 C 2742.089 775.752,2894.315 784.819,2972.908 798.245 C 3014.067 805.276,3042.911 818.108,3080.399 846.062 C 3143.113 892.829,3218.888 983.279,3262.558 1063.500 C 3278.761 1093.264,3302.306 1152.837,3333.564 1243.161 C 3393.883 1417.462,3424.675 1474.866,3496.378 1546.687 C 3550.400 1600.798,3626.233 1656.589,3654.750 1663.201 C 3668.389 1666.364,3667.706 1664.064,3627.535 1571.511 C 3619.183 1552.267,3606.745 1518.517,3599.894 1496.511 C 3572.513 1408.548,3565.330 1389.023,3547.103 1353.000 C 3516.320 1292.165,3488.341 1257.841,3373.474 1140.000 C 3320.897 1086.062,3293.827 1053.561,3253.535 996.000 C 3198.975 918.054,3155.318 868.497,3113.363 836.882 C 3100.310 827.047,3091.156 819.000,3093.021 819.000 C 3094.885 819.000,3118.256 823.757,3144.955 829.571 C 3256.089 853.772,3262.830 857.162,3329.429 922.331 C 3401.297 992.656,3440.086 1041.249,3494.801 1129.500 C 3510.145 1154.250,3531.522 1188.675,3542.304 1206.000 C 3571.972 1253.672,3597.894 1287.080,3642.395 1335.000 L 3682.791 1378.500 3689.655 1447.500 C 3701.888 1570.486,3711.184 1610.164,3741.228 1667.616 C 3759.803 1703.135,3783.124 1735.575,3814.312 1769.277 C 3869.271 1828.664,3930.685 1880.426,3983.354 1911.750 C 4021.497 1934.435,4025.638 1930.858,4001.767 1895.844 C 3943.050 1809.721,3931.432 1788.996,3898.428 1711.500 C 3858.999 1618.916,3848.507 1601.616,3784.734 1524.029 C 3735.385 1463.990,3700.251 1410.497,3702.574 1398.937 C 3703.232 1395.660,3715.366 1403.081,3744.525 1424.595 C 3833.841 1490.496,3898.592 1527.390,3991.500 1565.318 C 4033.076 1582.291,4044.000 1585.522,4044.000 1580.848 C 4044.000 1575.686,4027.476 1552.994,4000.796 1521.516 C 3971.569 1487.032,3928.679 1431.040,3893.991 1382.082 C 3830.271 1292.148,3744.805 1204.091,3676.505 1158.003 C 3644.067 1136.114,3635.810 1126.550,3618.656 1090.995 C 3596.755 1045.603,3578.785 1020.077,3529.821 964.812 C 3520.098 953.837,3512.995 944.005,3514.037 942.963 C 3515.080 941.920,3537.885 950.264,3564.716 961.504 C 3696.343 1016.645,3755.206 1052.517,3840.747 1129.724 C 3919.769 1201.046,3948.978 1241.359,4027.522 1387.500 C 4094.394 1511.924,4139.622 1585.622,4180.333 1636.500 C 4228.894 1697.189,4313.536 1768.968,4373.343 1800.180 C 4408.245 1818.395,4404.644 1805.262,4356.020 1737.000 C 4316.904 1682.087,4301.248 1654.744,4236.631 1528.500 C 4133.118 1326.265,4112.600 1294.577,4038.029 1221.802 C 4019.038 1203.268,4005.147 1188.080,4007.160 1188.052 C 4012.260 1187.980,4104.386 1249.854,4132.953 1272.538 C 4185.663 1314.394,4236.901 1373.985,4350.697 1525.778 C 4382.972 1568.831,4419.491 1616.081,4431.849 1630.778 C 4461.669 1666.243,4512.799 1715.591,4548.000 1742.880 C 4582.236 1769.422,4700.337 1848.000,4705.993 1848.000 C 4713.584 1848.000,4710.011 1832.266,4693.136 1791.369 C 4627.546 1632.417,4568.143 1542.535,4476.247 1463.198 C 4411.208 1407.048,4334.067 1354.326,4224.000 1290.802 C 4186.875 1269.376,4112.730 1225.195,4059.233 1192.623 C 3950.412 1126.365,3892.388 1094.251,3778.727 1037.373 C 3679.598 987.768,3629.121 964.385,3565.710 938.696 C 3537.776 927.380,3513.594 916.794,3511.972 915.172 C 3508.517 911.717,3515.444 908.766,3551.720 898.240 C 3602.443 883.522,3635.381 878.255,3664.500 880.206 C 3737.935 885.128,3830.166 920.791,3975.000 1000.268 C 4111.017 1074.906,4197.907 1110.618,4291.150 1130.206 C 4330.272 1138.424,4331.170 1138.471,4446.000 1138.313 C 4513.164 1138.221,4576.177 1136.647,4596.571 1134.552 C 4656.958 1128.348,4656.771 1126.652,4593.000 1102.188 C 4528.902 1077.598,4450.435 1036.884,4362.026 982.343 C 4297.619 942.609,4247.819 916.538,4196.653 895.768 C 4148.073 876.047,4082.925 856.499,4045.500 850.413 C 4004.546 843.754,3883.021 839.033,3804.000 841.032 C 3683.264 844.086,3614.689 857.455,3518.036 896.782 L 3489.008 908.593 3453.754 896.682 C 3348.237 861.033,3238.464 829.811,3149.717 810.207 C 3059.309 790.236,2934.412 770.594,2863.921 765.261 C 2842.703 763.656,2824.558 761.558,2823.600 760.600 C 2819.823 756.823,2831.971 749.720,2864.565 736.647 C 2905.358 720.286,2966.713 700.650,2997.316 694.162 C 3033.962 686.393,3170.263 685.206,3273.301 691.758 C 3461.238 703.710,3569.077 695.977,3661.225 663.942 C 3715.746 644.988,3761.963 618.457,3870.298 543.919 C 3916.210 512.330,3926.903 502.703,3921.773 497.573 C 3919.636 495.436,3891.800 493.338,3844.781 491.771 C 3763.409 489.058,3732.614 486.283,3661.500 475.253 C 3556.415 458.955,3473.178 453.626,3408.000 459.023 M3554.087 483.141 C 3590.890 486.151,3664.608 496.889,3698.640 504.198 C 3709.855 506.607,3713.516 508.464,3710.640 510.286 C 3708.363 511.728,3640.082 512.929,3558.904 512.954 C 3403.087 513.003,3370.052 515.082,3321.000 527.928 L 3298.500 533.820 3324.000 532.436 C 3338.025 531.675,3365.700 529.718,3385.500 528.087 C 3426.100 524.743,3717.286 523.656,3733.974 526.787 C 3749.586 529.716,3741.871 532.741,3704.912 538.181 C 3657.832 545.111,3597.512 550.952,3486.000 559.379 C 3368.021 568.295,3313.798 573.976,3268.500 582.166 C 3232.584 588.660,3168.684 604.316,3165.629 607.371 C 3163.393 609.607,3175.611 607.962,3232.500 598.364 C 3290.564 588.568,3339.021 583.180,3433.500 576.013 C 3604.085 563.073,3739.486 547.197,3805.480 532.396 C 3842.405 524.115,3843.000 524.037,3843.000 527.448 C 3843.000 534.183,3789.893 556.439,3731.899 574.006 C 3690.181 586.644,3646.612 594.154,3546.000 606.052 C 3457.991 616.459,3448.641 617.942,3452.026 620.952 C 3456.238 624.699,3613.504 613.969,3652.500 607.274 L 3661.500 605.729 3650.856 611.625 C 3629.419 623.500,3580.788 632.054,3484.500 640.886 C 3425.770 646.272,3189.265 649.858,3200.002 645.198 C 3203.578 643.647,3235.262 639.520,3270.411 636.029 C 3305.560 632.538,3335.034 628.905,3335.909 627.955 C 3340.663 622.796,3239.797 632.072,3135.000 646.432 C 3030.511 660.750,3028.077 661.016,3031.500 657.742 C 3033.150 656.163,3047.985 649.721,3064.467 643.425 C 3080.950 637.129,3092.890 631.463,3091.001 630.834 C 3086.513 629.338,3061.045 636.023,3008.293 652.544 C 2934.650 675.607,2938.252 667.877,3019.500 628.489 C 3074.931 601.617,3115.856 584.386,3163.123 568.020 C 3179.830 562.235,3194.594 556.453,3195.930 555.171 C 3203.436 547.971,3112.494 570.701,3076.351 585.059 C 3050.821 595.201,3045.478 596.154,3050.921 589.595 C 3072.453 563.651,3278.368 492.570,3359.307 483.141 C 3389.824 479.586,3510.612 479.586,3554.087 483.141 M3774.000 588.394 C 3760.084 600.521,3687.373 635.764,3648.443 649.252 C 3608.503 663.089,3569.216 670.978,3520.814 674.881 C 3472.445 678.781,3342.330 678.950,3310.421 675.155 C 3297.265 673.590,3265.575 670.615,3240.000 668.544 C 3176.582 663.408,3192.860 660.794,3291.000 660.353 C 3448.171 659.648,3575.463 648.076,3643.968 628.265 C 3657.426 624.374,3692.526 611.744,3721.968 600.198 C 3751.411 588.653,3777.525 579.215,3780.000 579.226 C 3782.700 579.237,3780.300 582.904,3774.000 588.394 M1705.500 794.096 C 1683.713 805.850,1629.570 848.966,1542.000 924.300 C 1434.576 1016.712,1384.485 1074.222,1321.371 1177.604 C 1294.101 1222.272,1247.011 1318.048,1226.284 1371.000 C 1216.919 1394.925,1200.339 1437.450,1189.440 1465.500 C 1167.622 1521.651,1127.609 1605.172,1104.643 1642.500 C 1030.059 1763.727,998.228 1821.989,955.904 1914.750 C 937.813 1954.400,934.029 1945.116,938.899 1873.022 C 944.720 1786.837,954.355 1735.026,985.858 1620.515 C 1045.726 1402.900,1052.708 1368.835,1055.136 1282.500 C 1056.939 1218.377,1052.669 1168.124,1038.041 1081.282 C 1023.404 994.391,1003.465 912.645,994.688 903.543 C 990.054 898.738,988.595 907.573,984.017 968.152 C 976.926 1061.986,963.590 1124.097,928.441 1227.000 C 832.610 1507.550,835.325 1497.831,830.943 1576.016 C 826.596 1653.586,834.056 1733.804,852.470 1807.500 C 864.837 1856.992,878.728 1893.135,904.357 1942.500 L 926.162 1984.500 910.001 2026.500 C 852.434 2176.108,796.148 2381.870,759.001 2578.500 C 750.613 2622.902,747.529 2632.174,742.528 2628.023 C 737.815 2624.112,714.359 2554.270,703.730 2512.500 C 690.094 2458.919,689.540 2447.995,691.706 2275.500 C 694.880 2022.670,691.413 2000.575,618.494 1809.000 C 596.558 1751.369,588.387 1722.120,580.872 1674.329 C 573.417 1626.915,566.680 1628.009,545.931 1680.000 C 529.997 1719.926,488.285 1844.901,480.347 1876.500 C 470.702 1914.891,462.239 1968.594,458.589 2014.572 C 451.291 2106.516,467.882 2205.526,507.190 2304.605 C 530.665 2363.777,560.492 2411.675,627.309 2497.500 C 727.028 2625.588,736.782 2648.575,742.505 2769.000 C 745.545 2832.947,752.805 2897.588,762.216 2944.500 C 793.131 3098.593,838.128 3270.781,849.283 3277.675 C 853.326 3280.174,852.831 3276.672,842.784 3231.728 C 823.993 3147.668,801.000 3032.456,801.000 3022.358 C 801.000 3013.454,804.389 3008.381,824.250 2987.555 C 863.150 2946.765,925.675 2897.737,979.500 2865.819 C 1026.227 2838.111,1062.347 2829.544,1179.000 2818.506 C 1266.310 2810.244,1328.256 2798.260,1386.000 2778.458 C 1499.175 2739.649,1566.133 2696.536,1643.014 2612.973 C 1701.284 2549.639,1755.000 2483.825,1755.000 2475.765 C 1755.000 2468.852,1745.540 2471.876,1720.917 2486.660 C 1639.111 2535.775,1575.830 2555.395,1410.795 2582.807 C 1318.340 2598.163,1283.127 2605.478,1248.478 2616.523 C 1233.066 2621.436,1219.898 2624.898,1219.217 2624.217 C 1218.536 2623.536,1232.652 2592.720,1250.588 2555.739 C 1291.915 2470.526,1312.293 2424.347,1331.889 2371.500 C 1340.455 2348.400,1354.186 2311.504,1362.404 2289.508 C 1371.691 2264.648,1376.995 2245.932,1376.422 2240.043 L 1375.500 2230.571 1363.500 2243.659 C 1347.944 2260.626,1304.233 2298.504,1240.500 2350.245 C 1140.321 2431.575,1097.305 2473.539,1053.413 2532.760 C 1013.375 2586.779,987.936 2630.487,915.910 2769.000 C 835.016 2924.568,804.605 2976.000,793.514 2976.000 C 773.327 2976.000,761.860 2752.713,775.642 2628.000 C 782.794 2563.281,797.489 2515.974,829.508 2454.593 C 889.606 2339.383,967.321 2286.446,1156.137 2232.104 C 1184.712 2223.881,1220.108 2212.944,1234.795 2207.800 C 1299.616 2185.100,1362.070 2147.976,1400.828 2109.107 C 1455.794 2053.984,1580.999 1885.275,1581.000 1866.330 C 1581.000 1859.467,1580.326 1859.233,1565.250 1860.844 C 1536.778 1863.886,1456.784 1893.506,1393.500 1924.439 C 1318.244 1961.224,1272.239 1995.573,1186.491 2079.000 C 1121.402 2142.328,1084.274 2173.601,1024.500 2215.449 C 941.932 2273.254,894.741 2316.697,849.282 2376.750 C 827.033 2406.141,820.578 2411.757,823.419 2399.250 C 844.927 2304.586,846.622 2300.461,877.044 2268.773 C 904.926 2239.730,955.197 2200.897,1047.000 2137.485 C 1163.599 2056.946,1200.685 2027.663,1255.724 1972.683 C 1296.669 1931.780,1324.628 1897.570,1359.463 1845.750 C 1379.471 1815.986,1380.493 1814.999,1391.317 1814.954 C 1418.067 1814.843,1494.658 1808.555,1518.407 1804.520 C 1567.969 1796.100,1615.771 1778.323,1692.964 1739.606 C 1765.439 1703.255,1799.412 1680.948,1849.500 1636.821 C 1893.615 1597.957,1947.223 1547.081,1956.798 1534.992 L 1966.272 1523.030 1957.386 1525.252 C 1952.499 1526.474,1917.080 1539.500,1878.677 1554.199 C 1789.332 1588.397,1720.949 1611.758,1629.000 1639.496 C 1541.318 1665.946,1500.196 1680.015,1470.328 1693.781 C 1458.133 1699.401,1447.690 1704.000,1447.121 1704.000 C 1445.188 1704.000,1457.302 1675.628,1484.267 1617.000 C 1517.798 1544.094,1526.106 1521.906,1521.568 1517.368 C 1517.365 1513.165,1507.680 1519.743,1456.130 1561.821 C 1334.925 1660.752,1257.055 1734.665,1221.000 1785.000 C 1186.170 1833.625,1174.168 1844.271,1137.000 1859.514 C 1098.083 1875.474,1047.931 1904.246,1004.247 1935.674 C 985.996 1948.805,969.223 1960.254,966.975 1961.116 C 961.604 1963.178,962.650 1960.566,993.035 1896.052 C 1040.257 1795.788,1053.671 1776.424,1140.865 1682.644 C 1228.640 1588.241,1293.116 1539.056,1449.000 1447.585 C 1487.775 1424.832,1537.215 1394.936,1558.867 1381.148 C 1604.579 1352.038,1626.741 1341.070,1639.930 1341.029 C 1653.358 1340.988,1713.679 1325.314,1738.500 1315.418 C 1763.647 1305.391,1788.212 1290.399,1880.220 1228.923 C 1962.774 1173.764,1994.638 1157.172,2054.130 1138.367 C 2100.797 1123.616,2115.000 1117.697,2115.000 1113.000 C 2115.000 1097.667,2007.927 1085.509,1927.449 1091.704 C 1900.694 1093.763,1876.456 1097.540,1860.816 1102.087 C 1847.295 1106.018,1835.609 1108.609,1834.846 1107.846 C 1832.988 1105.988,1838.647 1090.862,1855.367 1053.000 C 1882.590 991.351,1906.965 915.751,1912.670 875.270 C 1916.817 845.842,1906.652 827.643,1899.465 851.630 C 1890.131 882.784,1811.502 983.129,1738.878 1056.567 C 1703.712 1092.127,1642.412 1145.536,1555.328 1216.488 C 1408.071 1336.468,1356.415 1381.042,1277.249 1456.440 C 1248.851 1483.487,1225.042 1505.042,1224.340 1504.340 C 1221.759 1501.759,1301.464 1404.679,1439.726 1242.000 C 1548.798 1113.667,1587.949 1060.060,1631.383 979.576 C 1652.964 939.586,1722.000 796.678,1722.000 791.994 C 1722.000 787.712,1715.891 788.490,1705.500 794.096 M2543.040 845.250 C 2557.462 860.927,2592.054 932.644,2608.430 980.818 C 2615.968 1002.993,2622.953 1021.893,2623.952 1022.818 C 2626.913 1025.559,2622.094 997.169,2612.584 955.845 C 2607.692 934.585,2604.196 914.335,2604.815 910.845 C 2606.727 900.067,2635.874 964.009,2641.385 991.074 C 2647.921 1023.167,2650.520 1100.907,2646.398 1140.991 C 2642.959 1174.430,2641.124 1181.356,2636.855 1177.011 C 2635.498 1175.630,2625.617 1140.750,2614.898 1099.500 C 2593.614 1017.592,2569.308 940.033,2557.549 916.500 C 2550.505 902.404,2550.161 902.133,2551.843 912.000 C 2552.827 917.775,2561.678 950.850,2571.511 985.500 C 2594.733 1067.327,2631.026 1209.752,2630.909 1218.598 C 2630.760 1229.828,2627.210 1221.062,2606.974 1159.500 C 2586.034 1095.800,2571.019 1054.981,2569.197 1056.803 C 2568.532 1057.468,2575.496 1085.379,2584.673 1118.827 C 2593.850 1152.275,2600.722 1180.278,2599.945 1181.055 C 2597.254 1183.746,2580.476 1144.251,2558.926 1084.500 C 2523.972 987.580,2522.653 995.864,2556.371 1100.544 C 2577.843 1167.205,2580.631 1179.303,2572.034 1168.500 C 2564.771 1159.374,2540.041 1106.106,2527.747 1073.109 C 2512.733 1032.813,2510.095 1007.653,2512.647 929.136 C 2513.815 893.185,2515.194 864.194,2515.711 864.711 C 2516.228 865.228,2522.843 888.460,2530.412 916.338 C 2543.569 964.801,2553.536 993.000,2557.508 993.000 C 2558.524 993.000,2558.684 991.915,2557.864 990.589 C 2555.859 987.345,2526.000 874.725,2526.000 870.407 C 2526.000 868.533,2528.025 867.000,2530.500 867.000 C 2532.975 867.000,2534.984 866.663,2534.964 866.250 C 2534.945 865.838,2533.042 858.413,2530.736 849.750 C 2525.681 830.761,2528.697 829.658,2543.040 845.250 M1664.627 878.250 C 1615.726 996.630,1570.071 1064.887,1438.382 1216.500 C 1414.018 1244.550,1373.560 1291.810,1348.475 1321.523 C 1294.284 1385.713,1289.020 1390.859,1295.799 1373.029 C 1298.272 1366.525,1297.892 1365.852,1292.537 1367.252 C 1287.034 1368.691,1287.328 1367.328,1295.738 1352.426 C 1306.220 1333.852,1306.993 1330.593,1300.304 1333.160 C 1293.521 1335.763,1296.402 1327.850,1317.580 1285.699 C 1327.473 1266.009,1336.867 1246.434,1338.457 1242.199 C 1349.923 1211.646,1304.149 1290.269,1250.945 1392.511 C 1214.384 1462.770,1206.000 1476.487,1206.000 1466.040 C 1206.000 1458.353,1230.185 1398.445,1258.798 1335.252 C 1304.654 1233.979,1349.344 1158.825,1405.231 1089.000 C 1425.744 1063.371,1507.435 979.120,1516.500 974.245 C 1521.496 971.558,1521.940 971.728,1519.152 975.259 C 1495.746 1004.909,1413.372 1121.028,1402.818 1139.250 C 1395.781 1151.400,1408.504 1136.646,1448.094 1086.750 C 1518.501 998.014,1616.818 886.818,1621.091 891.091 C 1623.231 893.231,1617.001 918.051,1611.701 928.500 C 1602.652 946.340,1563.316 1004.392,1530.532 1048.291 C 1512.134 1072.926,1497.763 1093.763,1498.596 1094.596 C 1501.004 1097.004,1522.616 1074.801,1546.382 1045.500 C 1574.527 1010.802,1608.981 960.186,1629.088 924.000 C 1660.295 867.836,1671.610 849.000,1674.140 849.000 C 1675.553 849.000,1671.272 862.163,1664.627 878.250 M4015.952 864.064 C 4089.439 876.600,4137.569 890.385,4198.500 916.350 C 4248.068 937.473,4335.000 980.739,4335.000 984.286 C 4335.000 988.196,4330.508 986.807,4285.500 968.976 C 4229.256 946.693,4154.143 923.857,4150.169 927.831 C 4148.654 929.346,4164.093 935.573,4219.500 955.796 C 4274.558 975.892,4388.754 1026.215,4471.751 1066.956 C 4515.976 1088.666,4530.531 1098.000,4520.156 1098.000 C 4504.003 1098.000,4308.644 1034.130,4184.908 988.395 C 4049.862 938.480,3940.709 901.417,3911.936 895.707 C 3897.602 892.862,3905.765 898.357,3925.500 904.836 C 3933.750 907.545,4014.075 937.125,4104.000 970.570 C 4301.765 1044.123,4333.310 1055.193,4429.500 1084.800 C 4470.750 1097.496,4505.592 1108.845,4506.927 1110.019 C 4517.267 1119.114,4322.775 1089.871,4267.510 1074.020 C 4221.029 1060.689,4229.889 1070.745,4278.000 1085.927 C 4316.294 1098.010,4364.915 1108.713,4414.853 1116.052 C 4437.547 1119.387,4456.765 1122.765,4457.558 1123.558 C 4460.224 1126.224,4384.822 1125.025,4351.500 1121.872 C 4264.540 1113.641,4163.228 1080.097,4056.000 1024.032 C 4008.715 999.309,3957.000 968.721,3957.000 965.477 C 3957.000 964.115,3957.478 963.000,3958.063 963.000 C 3958.648 963.000,4008.762 981.961,4069.428 1005.135 C 4130.094 1028.309,4180.347 1046.653,4181.100 1045.900 C 4184.398 1042.602,4150.284 1026.671,4078.093 997.798 C 3981.650 959.225,3879.488 919.929,3846.390 908.675 C 3815.509 898.175,3809.976 894.330,3818.886 889.561 C 3824.285 886.672,3820.005 884.950,3788.772 877.445 C 3735.156 864.562,3733.664 861.210,3781.500 861.106 C 3844.336 860.968,3911.650 868.249,4002.000 884.954 C 4027.575 889.682,4053.900 894.295,4060.500 895.204 L 4072.500 896.857 4061.289 892.599 C 4055.123 890.257,4029.136 882.664,4003.539 875.725 C 3977.943 868.786,3957.000 861.959,3957.000 860.554 C 3957.000 856.363,3978.208 857.625,4015.952 864.064 M3430.645 914.557 C 3465.095 931.088,3487.222 946.706,3513.692 973.176 C 3537.759 997.243,3580.325 1051.435,3605.663 1090.265 C 3624.789 1119.576,3622.902 1124.679,3597.797 1111.535 C 3574.993 1099.596,3502.506 1051.023,3472.628 1027.660 C 3429.256 993.746,3315.000 883.164,3315.000 875.101 C 3315.000 871.869,3407.334 903.372,3430.645 914.557 M1586.070 940.722 C 1549.109 981.355,1483.555 1065.158,1429.015 1141.500 C 1391.490 1194.025,1329.975 1286.047,1316.897 1309.221 C 1307.722 1325.478,1307.483 1326.569,1313.512 1324.655 C 1322.615 1321.766,1321.847 1327.683,1311.000 1344.000 C 1298.397 1362.959,1299.800 1365.350,1313.359 1348.019 C 1338.278 1316.169,1448.072 1162.254,1453.189 1152.000 C 1457.995 1142.368,1438.127 1167.600,1404.765 1213.500 C 1354.517 1282.630,1325.740 1320.000,1322.753 1320.000 C 1308.359 1320.000,1426.638 1150.202,1545.886 999.674 C 1602.832 927.792,1605.844 923.841,1604.612 922.642 C 1604.000 922.047,1595.656 930.183,1586.070 940.722 M2754.000 997.813 C 2808.189 1036.729,2851.910 1065.092,2857.375 1064.877 C 2863.138 1064.650,2836.234 1042.749,2793.983 1013.273 C 2770.941 997.198,2748.908 980.660,2745.021 976.523 C 2738.348 969.419,2738.284 969.000,2743.877 969.000 C 2747.135 969.000,2751.083 970.227,2752.650 971.727 C 2754.218 973.227,2783.740 990.183,2818.255 1009.408 C 2852.770 1028.633,2892.681 1052.356,2906.946 1062.126 C 2983.342 1114.451,3056.141 1189.319,3112.302 1273.317 C 3147.038 1325.272,3135.317 1318.148,3090.440 1260.030 C 3050.818 1208.718,2993.664 1150.498,2961.407 1128.592 C 2916.997 1098.433,2917.080 1099.477,2962.321 1140.098 C 3031.679 1202.373,3110.035 1299.986,3160.313 1386.750 C 3174.616 1411.434,3163.292 1402.286,3136.173 1367.250 C 3066.272 1276.941,2982.293 1195.017,2912.498 1149.048 C 2890.671 1134.672,2889.056 1133.017,2952.297 1189.844 C 2973.085 1208.524,3006.427 1240.705,3026.390 1261.357 C 3083.074 1319.999,3165.497 1419.503,3161.062 1423.938 C 3160.081 1424.919,3139.271 1406.996,3114.816 1384.111 C 3051.522 1324.876,2982.937 1266.000,2977.229 1266.000 C 2975.769 1266.000,2994.791 1286.250,3019.500 1311.000 C 3044.209 1335.750,3063.279 1356.000,3061.879 1356.000 C 3055.511 1356.000,2897.727 1218.867,2832.568 1156.701 C 2816.887 1141.741,2805.514 1132.200,2807.295 1135.500 C 2814.111 1148.133,2865.698 1200.004,2939.054 1267.984 C 2981.006 1306.861,3014.608 1339.392,3013.726 1340.274 C 3011.564 1342.436,2993.580 1330.380,2950.500 1297.892 C 2877.053 1242.504,2794.086 1150.040,2749.105 1073.444 C 2710.480 1007.673,2708.406 1006.762,2792.632 1092.565 C 2867.949 1169.292,2914.851 1213.510,2893.860 1188.000 C 2889.108 1182.225,2853.671 1144.616,2815.110 1104.423 C 2776.550 1064.231,2745.000 1030.096,2745.000 1028.568 C 2745.000 1023.667,2754.531 1030.674,2789.919 1061.591 C 2808.850 1078.130,2825.023 1090.977,2825.861 1090.139 C 2827.454 1088.546,2808.342 1069.616,2736.021 1001.157 C 2712.107 978.521,2694.557 960.025,2697.021 960.056 C 2699.484 960.086,2725.125 977.077,2754.000 997.813 M1818.679 1060.147 C 1788.218 1122.669,1776.347 1141.669,1747.513 1174.055 C 1718.238 1206.936,1644.043 1276.438,1612.091 1300.911 C 1575.025 1329.302,1400.479 1424.326,1391.124 1421.208 C 1389.209 1420.570,1396.360 1413.399,1407.014 1405.274 C 1417.668 1397.148,1432.485 1384.674,1439.942 1377.552 L 1453.500 1364.604 1443.000 1369.702 C 1431.611 1375.230,1403.811 1394.287,1350.314 1433.238 C 1331.512 1446.928,1315.405 1457.405,1314.520 1456.520 C 1309.939 1451.939,1381.067 1389.954,1499.584 1295.244 C 1545.188 1258.802,1604.100 1211.244,1630.500 1189.561 C 1689.589 1141.030,1701.000 1132.427,1701.000 1136.408 C 1701.000 1138.124,1677.739 1161.571,1649.309 1188.514 C 1564.726 1268.672,1543.546 1289.546,1545.161 1291.161 C 1550.730 1296.730,1630.802 1224.665,1722.793 1131.295 C 1763.607 1089.869,1797.000 1056.795,1797.000 1057.799 C 1797.000 1061.298,1750.976 1126.670,1732.807 1148.978 C 1686.753 1205.523,1622.854 1265.253,1549.477 1320.346 C 1527.215 1337.060,1509.000 1351.280,1509.000 1351.945 C 1509.000 1357.113,1566.063 1316.724,1621.488 1272.327 C 1694.577 1213.782,1723.969 1180.451,1794.524 1076.106 C 1817.728 1041.790,1837.407 1014.407,1838.256 1015.256 C 1839.104 1016.104,1830.295 1036.305,1818.679 1060.147 M3533.084 1087.876 C 3558.155 1104.169,3599.330 1130.055,3624.584 1145.401 C 3699.998 1191.226,3751.169 1232.361,3799.912 1286.341 C 3847.830 1339.409,3845.104 1343.270,3792.395 1296.989 C 3734.860 1246.471,3661.650 1191.680,3670.227 1205.558 C 3671.400 1207.456,3700.291 1232.142,3734.430 1260.416 C 3820.644 1331.818,3882.162 1394.388,3932.475 1461.848 C 3973.064 1516.269,3981.571 1529.597,3970.312 1521.129 C 3958.284 1512.083,3920.456 1478.670,3858.000 1421.926 C 3822.525 1389.695,3760.425 1334.468,3720.000 1299.199 C 3620.450 1212.347,3554.654 1151.723,3529.820 1123.971 C 3518.446 1111.260,3509.671 1100.340,3510.320 1099.704 C 3510.969 1099.067,3527.700 1108.656,3547.500 1121.012 C 3584.282 1143.965,3606.000 1156.144,3606.000 1153.818 C 3606.000 1153.102,3584.779 1137.887,3558.843 1120.007 C 3516.451 1090.785,3471.440 1053.313,3483.000 1056.869 C 3485.475 1057.630,3508.013 1071.583,3533.084 1087.876 M1032.475 1146.463 C 1034.609 1166.833,1036.362 1217.925,1036.372 1260.000 C 1036.386 1326.900,1035.537 1341.018,1029.600 1372.500 C 1012.107 1465.269,955.434 1666.930,951.734 1649.571 C 951.157 1646.861,958.741 1610.411,968.589 1568.571 C 995.069 1456.073,1002.382 1413.389,1001.668 1375.500 C 1001.423 1362.455,1001.086 1361.673,999.088 1369.500 C 994.204 1388.632,947.825 1609.307,937.636 1661.898 C 926.897 1717.328,923.215 1728.256,918.986 1717.252 C 914.128 1704.608,912.645 1727.701,914.249 1791.000 C 916.009 1860.394,913.805 1897.090,907.994 1895.182 C 906.072 1894.551,901.481 1882.665,897.790 1868.768 C 885.039 1820.750,881.748 1787.844,880.109 1692.000 C 879.248 1641.675,877.782 1598.475,876.851 1596.000 C 873.745 1587.744,867.293 1626.945,863.630 1676.335 C 861.232 1708.677,858.909 1724.805,856.754 1724.091 C 854.964 1723.497,852.588 1717.047,851.472 1709.756 C 848.210 1688.430,848.715 1581.665,852.274 1540.013 C 856.226 1493.774,863.221 1469.296,914.323 1322.881 C 947.777 1227.029,961.226 1185.887,973.323 1142.403 C 979.268 1121.030,984.000 1117.400,984.000 1134.212 C 984.000 1162.493,961.508 1245.181,924.287 1353.735 C 914.248 1383.014,901.945 1422.839,896.946 1442.235 C 888.270 1475.900,881.922 1518.552,886.167 1514.664 C 887.269 1513.655,895.482 1488.680,904.417 1459.164 C 934.516 1359.741,980.967 1228.400,983.424 1235.771 C 985.246 1241.239,980.193 1265.470,955.536 1369.500 C 943.413 1420.650,930.092 1480.050,925.935 1501.500 C 918.846 1538.074,910.211 1613.211,912.799 1615.799 C 913.442 1616.442,915.629 1607.863,917.659 1596.734 C 919.689 1585.605,933.490 1526.550,948.330 1465.500 C 981.647 1328.426,991.967 1277.755,995.987 1231.500 C 999.305 1193.324,1000.897 1185.000,1004.881 1185.000 C 1009.467 1185.000,1011.000 1194.348,1011.000 1222.305 C 1011.000 1237.603,1011.909 1258.755,1013.020 1269.310 C 1014.914 1287.311,1015.230 1287.942,1018.124 1279.500 C 1019.882 1274.372,1021.462 1235.003,1021.795 1188.000 C 1022.117 1142.625,1022.606 1103.475,1022.881 1101.000 C 1024.131 1089.743,1028.900 1112.341,1032.475 1146.463 M2036.057 1105.943 C 2034.988 1107.012,2020.049 1109.705,2002.860 1111.928 C 1985.671 1114.150,1968.433 1117.202,1964.553 1118.710 C 1958.146 1121.200,1958.685 1121.652,1970.437 1123.639 C 1977.552 1124.842,1982.277 1126.786,1980.937 1127.958 C 1979.597 1129.130,1960.349 1136.523,1938.165 1144.387 C 1875.155 1166.723,1791.000 1203.057,1791.000 1207.926 C 1791.000 1211.530,1809.632 1205.875,1861.720 1186.460 C 1890.843 1175.605,1916.107 1167.202,1917.863 1167.788 C 1919.618 1168.373,1909.679 1177.780,1895.777 1188.693 C 1881.875 1199.606,1863.545 1215.750,1855.045 1224.569 C 1829.420 1251.154,1731.247 1305.212,1690.500 1315.174 C 1656.830 1323.406,1653.000 1323.824,1653.000 1319.261 C 1653.000 1307.101,1687.347 1287.454,1737.705 1270.809 C 1776.818 1257.881,1805.940 1245.421,1797.716 1245.133 C 1795.635 1245.060,1778.344 1249.725,1759.292 1255.500 C 1740.240 1261.275,1723.380 1266.000,1721.826 1266.000 C 1713.482 1266.000,1722.150 1251.977,1749.012 1222.020 C 1781.260 1186.055,1795.408 1175.026,1824.763 1162.967 C 1895.667 1133.839,1892.193 1135.567,1881.848 1134.567 C 1876.539 1134.054,1859.206 1137.092,1843.330 1141.317 C 1805.602 1151.359,1801.758 1151.133,1815.000 1139.653 C 1834.910 1122.393,1861.550 1112.349,1900.500 1107.418 C 1924.990 1104.317,2038.922 1103.078,2036.057 1105.943 M2637.858 1129.500 C 2637.881 1137.750,2638.463 1140.769,2639.153 1136.209 C 2639.842 1131.649,2639.824 1124.899,2639.112 1121.209 C 2638.400 1117.519,2637.836 1121.250,2637.858 1129.500 M3973.998 1217.382 C 4021.044 1269.740,4063.931 1324.082,4122.000 1404.914 C 4156.230 1452.563,4136.589 1410.614,4093.426 1343.886 C 4078.800 1321.274,4031.100 1255.973,4004.212 1221.750 C 4002.396 1219.439,4002.361 1218.000,4004.121 1218.000 C 4008.946 1218.000,4043.846 1251.078,4067.406 1277.979 C 4110.959 1327.712,4139.780 1376.180,4230.833 1552.811 C 4256.438 1602.483,4285.625 1656.683,4295.694 1673.255 C 4305.762 1689.828,4314.000 1704.988,4314.000 1706.944 C 4314.000 1727.601,4249.342 1630.914,4196.715 1531.560 C 4176.209 1492.848,4161.305 1470.219,4161.109 1477.500 C 4160.971 1482.623,4196.010 1552.908,4213.928 1583.450 C 4248.828 1642.939,4288.170 1697.552,4325.352 1738.124 C 4335.747 1749.467,4343.583 1759.417,4342.765 1760.235 C 4340.141 1762.859,4319.384 1744.530,4285.376 1709.561 C 4217.520 1639.786,4172.344 1572.705,4109.965 1449.093 C 4094.828 1419.098,4081.781 1395.219,4080.971 1396.029 C 4078.554 1398.446,4105.782 1459.095,4132.584 1510.998 C 4156.760 1557.815,4168.363 1578.059,4192.049 1614.750 C 4204.100 1633.418,4203.300 1638.039,4190.750 1622.250 C 4162.607 1586.844,4118.441 1517.934,4084.625 1456.670 C 4057.343 1407.243,3990.000 1279.318,3990.000 1276.921 C 3990.000 1275.930,4000.271 1285.555,4012.824 1298.310 C 4032.814 1318.620,4034.822 1320.010,4028.996 1309.500 C 4025.337 1302.900,4001.903 1271.402,3976.921 1239.505 C 3951.940 1207.608,3928.802 1177.908,3925.504 1173.505 C 3915.225 1159.781,3952.744 1193.728,3973.998 1217.382 M3423.189 1214.224 C 3479.262 1273.416,3515.235 1322.279,3536.974 1368.780 C 3553.724 1404.612,3590.237 1525.016,3587.098 1534.066 C 3585.638 1538.276,3558.272 1484.252,3537.170 1435.500 C 3513.248 1380.233,3480.124 1320.269,3473.403 1320.064 C 3470.367 1319.971,3476.838 1334.739,3511.497 1407.000 C 3555.833 1499.439,3571.051 1537.712,3561.000 1531.500 C 3555.927 1528.365,3557.582 1532.778,3568.406 1551.245 C 3591.338 1590.372,3565.711 1564.031,3503.957 1485.000 C 3450.636 1416.761,3445.648 1411.277,3458.928 1435.500 C 3475.439 1465.615,3520.451 1529.947,3544.642 1558.003 C 3557.210 1572.580,3566.742 1585.258,3565.823 1586.177 C 3560.379 1591.621,3492.180 1523.382,3461.690 1481.983 C 3430.286 1439.343,3410.402 1403.003,3389.956 1350.883 C 3367.490 1293.613,3344.544 1226.869,3345.911 1222.768 C 3346.482 1221.054,3354.801 1234.467,3364.396 1252.575 C 3396.689 1313.519,3405.620 1329.380,3406.916 1328.084 C 3407.625 1327.375,3395.264 1297.463,3379.447 1261.614 C 3363.630 1225.765,3351.179 1194.962,3351.779 1193.163 C 3353.960 1186.619,3414.933 1287.407,3478.419 1402.500 C 3520.032 1477.941,3548.154 1524.000,3552.601 1524.000 C 3556.675 1524.000,3555.267 1517.801,3549.284 1509.399 C 3546.141 1504.985,3521.641 1461.576,3494.840 1412.936 C 3468.040 1364.296,3428.762 1295.583,3407.556 1260.239 C 3386.350 1224.896,3369.000 1194.693,3369.000 1193.121 C 3369.000 1191.550,3382.632 1203.348,3399.292 1219.340 C 3443.452 1261.725,3442.835 1254.663,3397.717 1201.309 C 3385.249 1186.564,3375.037 1173.374,3375.024 1171.998 C 3374.981 1167.441,3397.935 1187.566,3423.189 1214.224 M3647.782 1284.000 C 3677.461 1313.934,3676.372 1312.354,3624.300 1249.939 C 3602.477 1223.781,3585.339 1201.661,3586.215 1200.785 C 3587.091 1199.909,3598.314 1208.596,3611.154 1220.091 C 3623.994 1231.586,3668.250 1269.875,3709.500 1305.178 C 3777.892 1363.710,3866.640 1441.856,3904.500 1476.884 C 3912.750 1484.517,3917.953 1490.815,3916.063 1490.881 C 3914.173 1490.946,3881.773 1470.557,3844.063 1445.572 C 3806.353 1420.586,3770.100 1396.794,3763.500 1392.700 L 3751.500 1385.256 3762.000 1396.436 C 3773.691 1408.883,3837.505 1457.445,3874.500 1482.048 C 3906.494 1503.325,3933.725 1524.275,3931.839 1526.161 C 3927.777 1530.223,3841.107 1477.709,3792.557 1441.768 C 3725.047 1391.791,3648.151 1320.030,3609.145 1270.605 C 3587.604 1243.310,3555.546 1196.402,3553.162 1188.692 C 3552.280 1185.836,3567.520 1200.375,3587.029 1221.000 C 3606.538 1241.625,3633.877 1269.975,3647.782 1284.000 M4272.899 1339.934 C 4289.444 1348.436,4317.349 1368.188,4349.362 1394.059 C 4366.336 1407.777,4380.722 1419.000,4381.331 1419.000 C 4381.940 1419.000,4381.732 1416.300,4380.869 1413.000 C 4380.006 1409.700,4379.993 1407.000,4380.840 1407.000 C 4386.628 1407.000,4470.231 1477.461,4506.284 1512.725 C 4536.793 1542.566,4594.417 1627.092,4627.935 1691.169 C 4641.698 1717.482,4644.149 1726.850,4636.500 1723.915 C 4630.247 1721.515,4630.866 1724.609,4639.422 1738.500 C 4651.724 1758.473,4647.319 1773.342,4632.964 1760.297 C 4621.783 1750.135,4618.871 1755.754,4628.827 1768.282 C 4633.915 1774.684,4637.448 1780.552,4636.679 1781.321 C 4633.398 1784.602,4564.799 1733.666,4523.099 1696.987 C 4495.185 1672.434,4468.727 1642.641,4411.648 1571.486 C 4367.216 1516.098,4342.854 1482.146,4345.583 1479.417 C 4346.468 1478.532,4360.147 1490.564,4375.982 1506.154 C 4398.651 1528.472,4390.612 1518.232,4338.179 1458.000 C 4263.559 1372.280,4246.212 1350.788,4249.221 1347.779 C 4253.673 1343.327,4466.805 1564.199,4572.693 1683.000 C 4635.961 1753.984,4655.116 1771.347,4614.276 1720.693 C 4575.527 1672.634,4507.445 1599.268,4364.253 1451.265 C 4308.567 1393.709,4261.607 1344.003,4259.898 1340.809 C 4255.973 1333.475,4259.826 1333.216,4272.899 1339.934 M1518.496 1379.521 C 1514.643 1382.485,1485.618 1399.554,1453.996 1417.454 C 1330.601 1487.299,1291.986 1512.273,1231.138 1561.584 C 1200.865 1586.118,1187.596 1593.035,1203.238 1576.127 C 1219.129 1558.952,1287.361 1504.134,1318.500 1483.525 C 1385.898 1438.920,1556.843 1350.023,1518.496 1379.521 M4400.989 1438.488 C 4404.858 1442.607,4408.685 1445.315,4409.493 1444.507 C 4411.485 1442.515,4400.844 1431.000,4397.012 1431.000 C 4395.330 1431.000,4397.120 1434.370,4400.989 1438.488 M3767.820 1540.551 C 3784.445 1562.798,3798.811 1581.000,3799.744 1581.000 C 3800.677 1581.000,3797.146 1573.495,3791.898 1564.322 C 3786.650 1555.149,3783.308 1546.712,3784.471 1545.572 C 3792.305 1537.895,3876.000 1672.199,3876.000 1692.449 C 3876.000 1701.636,3871.704 1697.060,3848.958 1663.645 C 3837.328 1646.558,3825.829 1630.933,3823.406 1628.922 C 3810.711 1618.386,3825.864 1649.376,3860.743 1705.281 C 3874.051 1726.610,3884.286 1744.714,3883.488 1745.512 C 3880.048 1748.952,3866.923 1732.298,3835.405 1684.500 C 3773.101 1590.014,3717.931 1487.951,3734.796 1498.374 C 3736.333 1499.324,3751.194 1518.304,3767.820 1540.551 M3735.029 1554.236 C 3748.873 1592.131,3771.029 1641.971,3773.107 1639.893 C 3773.736 1639.264,3768.794 1625.054,3762.125 1608.314 C 3749.139 1575.719,3746.663 1564.290,3754.281 1572.107 C 3756.635 1574.523,3771.624 1599.450,3787.589 1627.500 C 3820.128 1684.668,3832.783 1703.459,3890.175 1779.835 C 3930.072 1832.929,3936.030 1842.000,3931.001 1842.000 C 3927.561 1842.000,3890.670 1804.144,3853.527 1762.500 C 3837.339 1744.350,3821.416 1726.800,3818.144 1723.500 C 3804.660 1709.903,3825.666 1742.023,3847.608 1768.554 C 3869.437 1794.948,3881.063 1812.000,3877.229 1812.000 C 3872.360 1812.000,3845.456 1789.511,3833.292 1775.272 C 3782.872 1716.255,3740.773 1638.217,3724.502 1573.610 C 3707.468 1505.973,3713.405 1495.046,3735.029 1554.236 M4493.324 1541.250 C 4521.462 1572.686,4555.968 1616.965,4588.500 1663.382 C 4603.350 1684.571,4618.604 1705.415,4622.398 1709.703 L 4629.296 1717.500 4622.726 1704.000 C 4604.270 1666.078,4486.991 1518.000,4475.413 1518.000 C 4473.818 1518.000,4481.878 1528.463,4493.324 1541.250 M1918.447 1554.085 C 1913.085 1562.762,1804.817 1611.022,1719.000 1642.989 C 1637.912 1673.193,1619.489 1680.489,1620.855 1681.855 C 1625.386 1686.386,1769.946 1637.318,1821.667 1613.693 C 1839.359 1605.612,1855.555 1599.000,1857.657 1599.000 C 1866.981 1599.000,1802.247 1640.171,1726.500 1682.416 C 1675.649 1710.776,1662.620 1718.973,1677.038 1713.534 C 1697.230 1705.916,1746.125 1680.648,1788.000 1656.190 L 1834.500 1629.031 1818.000 1644.287 C 1755.420 1702.148,1601.838 1771.355,1495.857 1789.451 C 1456.372 1796.193,1421.241 1794.441,1412.073 1785.273 C 1404.869 1778.069,1433.735 1756.633,1498.500 1721.092 C 1566.576 1683.735,1554.879 1685.040,1473.000 1723.937 C 1435.862 1741.580,1426.296 1745.074,1425.487 1741.291 C 1424.930 1738.685,1426.756 1734.033,1429.544 1730.951 C 1437.122 1722.578,1476.245 1703.247,1513.500 1689.468 C 1545.062 1677.796,1560.447 1673.025,1680.000 1637.848 C 1742.308 1619.514,1792.659 1601.185,1860.000 1572.323 C 1907.195 1552.096,1922.659 1547.270,1918.447 1554.085 M1428.000 1616.173 C 1370.831 1669.407,1295.832 1745.360,1280.344 1765.708 C 1260.637 1791.596,1235.494 1836.000,1240.541 1836.000 C 1241.221 1836.000,1247.464 1827.563,1254.415 1817.250 C 1276.520 1784.458,1302.054 1754.680,1345.364 1711.182 C 1386.718 1669.650,1418.288 1642.288,1421.337 1645.337 C 1423.955 1647.955,1409.874 1667.130,1331.624 1767.503 C 1185.701 1954.682,1118.880 2033.724,1087.938 2055.756 C 1075.777 2064.416,1077.274 2062.259,1134.000 1989.394 C 1179.529 1930.913,1206.000 1892.975,1206.000 1886.206 C 1206.000 1878.207,1188.954 1895.314,1151.450 1940.953 C 1145.372 1948.348,1139.634 1953.634,1138.698 1952.698 C 1134.900 1948.900,1217.101 1822.805,1249.966 1782.015 C 1276.413 1749.191,1316.638 1706.859,1354.500 1672.004 C 1383.001 1645.767,1460.809 1581.291,1464.000 1581.266 C 1464.825 1581.259,1448.625 1596.967,1428.000 1616.173 M4497.338 1644.381 C 4515.202 1664.531,4579.746 1726.692,4601.377 1744.579 C 4606.809 1749.071,4611.980 1752.020,4612.867 1751.133 C 4616.783 1747.217,4489.167 1623.000,4481.229 1623.000 C 4479.663 1623.000,4486.912 1632.621,4497.338 1644.381 M1428.260 1700.485 C 1403.393 1749.746,1341.324 1845.599,1309.942 1883.204 C 1267.995 1933.469,1196.547 2004.547,1192.269 2000.269 C 1191.437 1999.437,1208.699 1979.296,1230.628 1955.512 C 1252.558 1931.727,1273.200 1909.027,1276.500 1905.066 L 1282.500 1897.866 1272.776 1904.619 C 1267.428 1908.333,1238.833 1934.913,1209.232 1963.686 C 1179.630 1992.459,1154.564 2016.000,1153.528 2016.000 C 1150.466 2016.000,1155.035 2009.650,1172.953 1989.000 C 1198.496 1959.564,1232.162 1917.086,1293.026 1837.500 C 1420.270 1671.115,1436.196 1655.747,1362.976 1770.000 C 1332.459 1817.619,1321.886 1835.886,1323.756 1837.756 C 1327.664 1841.664,1358.974 1797.715,1413.859 1711.279 C 1435.830 1676.677,1442.986 1671.314,1428.260 1700.485 M1572.000 1720.764 C 1481.008 1755.708,1422.000 1779.932,1422.000 1782.343 C 1422.000 1795.030,1571.713 1764.952,1594.572 1747.672 C 1604.250 1740.356,1594.871 1741.915,1552.382 1754.687 C 1512.874 1766.562,1476.000 1773.857,1476.000 1769.797 C 1476.000 1768.566,1486.463 1763.269,1499.250 1758.025 C 1543.288 1739.964,1605.258 1712.010,1606.804 1709.507 C 1607.657 1708.128,1607.937 1707.116,1607.427 1707.257 C 1606.917 1707.399,1590.975 1713.476,1572.000 1720.764 M589.120 1822.500 C 593.277 1843.950,607.616 1926.975,620.985 2007.000 C 644.647 2148.641,650.017 2176.983,652.689 2174.311 C 654.575 2172.425,643.977 2089.632,626.748 1971.659 C 618.460 1914.903,612.177 1866.969,612.787 1865.138 C 614.100 1861.200,631.974 1909.084,645.023 1951.500 C 656.684 1989.405,667.688 2043.944,672.260 2086.500 C 675.829 2119.720,673.994 2244.185,669.408 2280.000 L 667.295 2296.500 662.048 2278.500 C 654.216 2251.634,651.388 2246.159,652.749 2260.500 C 653.375 2267.100,655.302 2290.725,657.031 2313.000 C 658.760 2335.275,660.978 2360.250,661.960 2368.500 C 664.767 2392.086,658.542 2381.365,651.508 2350.500 C 648.124 2335.650,639.908 2294.475,633.251 2259.000 C 621.474 2196.244,612.973 2161.027,610.256 2163.744 C 607.432 2166.568,627.174 2301.231,640.607 2370.770 C 658.111 2461.383,640.386 2423.577,608.956 2303.262 C 598.832 2264.506,576.525 2143.636,567.291 2077.500 C 557.849 2009.877,552.153 1949.259,549.267 1885.683 C 546.573 1826.311,548.077 1796.774,553.892 1794.857 C 558.560 1793.318,559.969 1800.521,565.463 1854.000 C 575.253 1949.300,596.083 2098.981,600.533 2106.000 C 605.287 2113.500,600.929 2043.366,589.814 1933.500 C 576.227 1799.192,574.560 1776.743,578.453 1780.500 C 580.163 1782.150,584.964 1801.050,589.120 1822.500 M4666.400 1792.600 C 4676.233 1802.433,4679.700 1809.000,4675.059 1809.000 C 4671.672 1809.000,4647.000 1787.720,4647.000 1784.799 C 4647.000 1778.766,4656.309 1782.509,4666.400 1792.600 M538.175 1871.250 C 541.541 1990.617,552.272 2090.207,573.170 2196.000 C 592.922 2295.993,625.633 2409.770,649.503 2461.500 C 663.960 2492.831,669.364 2508.000,666.071 2508.000 C 661.085 2508.000,650.571 2489.990,627.083 2441.215 C 596.687 2378.094,571.196 2313.383,555.304 2259.000 C 548.313 2235.075,540.091 2208.075,537.033 2199.000 C 531.731 2183.264,531.463 2182.986,531.249 2193.000 C 530.744 2216.608,561.815 2348.076,573.151 2370.296 C 576.368 2376.602,578.957 2384.852,578.905 2388.630 C 578.810 2395.418,578.754 2395.428,574.151 2389.500 C 565.847 2378.803,532.142 2309.417,518.045 2274.000 C 501.775 2233.123,484.910 2170.716,478.305 2126.950 C 472.706 2089.842,471.984 2007.950,476.930 1970.837 C 484.263 1915.805,510.086 1812.000,516.442 1812.000 C 518.278 1812.000,518.760 1814.237,517.572 1817.250 C 509.807 1836.944,508.332 2055.259,515.762 2085.000 C 517.205 2090.775,518.621 2094.825,518.909 2094.000 C 519.197 2093.175,521.284 2032.425,523.547 1959.000 C 527.525 1829.927,529.166 1806.000,534.043 1806.000 C 535.304 1806.000,537.164 1835.363,538.175 1871.250 M1156.434 1878.131 C 1129.626 1931.032,1052.326 2050.528,1019.700 2089.500 C 989.776 2125.246,873.036 2244.105,867.912 2244.043 C 863.360 2243.988,866.487 2232.916,895.455 2146.500 C 946.375 1994.600,957.584 1978.658,1053.852 1921.220 C 1092.302 1898.279,1157.413 1863.205,1161.801 1863.071 C 1163.066 1863.032,1160.651 1869.809,1156.434 1878.131 M1503.262 1902.226 C 1499.281 1905.540,1487.131 1913.122,1476.262 1919.073 C 1379.868 1971.856,1307.611 2016.869,1303.946 2026.419 C 1302.979 2028.938,1302.803 2031.000,1303.555 2031.000 C 1304.306 2031.000,1321.182 2020.804,1341.055 2008.343 C 1402.744 1969.663,1489.221 1923.221,1492.833 1926.833 C 1496.364 1930.364,1260.985 2112.480,1206.000 2148.759 C 1168.258 2173.661,1115.888 2202.000,1107.612 2202.000 C 1099.676 2202.000,1105.325 2196.617,1133.836 2177.015 C 1182.861 2143.309,1275.326 2063.326,1270.661 2058.661 C 1269.769 2057.769,1251.158 2069.068,1229.303 2083.770 C 1207.449 2098.471,1187.527 2111.686,1185.034 2113.136 C 1177.133 2117.729,1212.254 2082.440,1246.500 2051.375 C 1304.264 1998.976,1335.009 1978.610,1423.158 1934.358 C 1492.589 1899.503,1519.496 1888.710,1503.262 1902.226 M1483.559 1981.624 C 1461.232 2008.871,1406.222 2066.264,1377.783 2091.981 C 1343.757 2122.751,1314.034 2143.422,1281.588 2158.880 C 1254.963 2171.565,1144.301 2208.698,1137.242 2207.316 C 1134.634 2206.805,1163.550 2191.137,1201.500 2172.497 C 1278.400 2134.726,1338.885 2099.900,1359.109 2081.750 C 1377.848 2064.933,1366.401 2068.666,1326.098 2092.518 C 1292.977 2112.119,1270.711 2124.000,1267.097 2124.000 C 1262.827 2124.000,1280.048 2107.885,1305.000 2088.531 C 1467.259 1962.676,1467.000 1962.869,1467.000 1967.866 C 1467.000 1969.667,1456.531 1982.247,1443.737 1995.820 C 1413.790 2027.590,1408.443 2034.000,1411.889 2034.000 C 1413.439 2034.000,1432.186 2017.727,1453.550 1997.838 C 1491.600 1962.413,1505.419 1954.947,1483.559 1981.624 M4651.394 2187.750 C 4657.042 2213.030,4662.968 2237.021,4674.920 2283.000 C 4692.553 2350.833,4706.881 2422.071,4709.092 2452.905 C 4710.805 2476.791,4710.675 2477.419,4702.962 2482.473 C 4692.990 2489.007,4650.785 2492.693,4583.921 2492.869 C 4556.653 2492.941,4522.903 2494.399,4508.921 2496.108 C 4431.498 2505.574,4355.200 2540.449,4231.500 2622.916 C 4181.556 2656.212,4171.600 2664.266,4176.522 2667.386 C 4178.710 2668.773,4254.413 2669.929,4344.750 2669.954 C 4435.088 2669.979,4508.971 2671.013,4508.936 2672.250 C 4508.901 2673.488,4491.688 2684.585,4470.686 2696.910 C 4297.654 2798.459,4209.111 2884.511,4126.411 3031.500 C 4094.417 3088.365,4064.546 3139.762,4042.807 3175.350 C 4020.119 3212.491,4018.597 3220.981,4034.867 3219.655 C 4050.582 3218.374,4092.757 3200.756,4162.500 3166.338 C 4254.816 3120.781,4299.364 3090.311,4358.736 3032.117 C 4422.098 2970.012,4466.993 2905.993,4528.525 2790.000 C 4584.349 2684.769,4620.748 2630.581,4684.194 2558.250 C 4707.449 2531.739,4713.726 2527.748,4717.344 2537.176 C 4723.560 2553.373,4725.751 2633.608,4722.364 2721.000 C 4715.193 2906.042,4705.084 2988.905,4684.445 3031.814 C 4643.568 3116.801,4506.240 3235.913,4395.662 3282.291 C 4356.549 3298.696,4330.140 3308.502,4255.500 3334.340 C 4102.342 3387.358,4039.458 3418.663,3976.466 3473.249 C 3923.668 3519.001,3844.353 3622.487,3838.092 3653.791 C 3836.085 3663.823,3836.167 3663.917,3845.303 3662.089 C 3850.385 3661.073,3873.884 3651.602,3897.522 3641.042 C 3949.080 3618.010,3976.785 3607.827,4036.994 3589.779 C 4162.513 3552.153,4203.823 3525.485,4335.771 3396.907 C 4408.889 3325.657,4443.280 3296.456,4504.500 3253.639 C 4527.600 3237.483,4555.950 3216.764,4567.500 3207.597 C 4598.519 3182.977,4651.641 3130.213,4667.157 3108.612 C 4674.619 3098.223,4681.143 3090.143,4681.656 3090.656 C 4683.542 3092.542,4653.364 3221.049,4647.187 3237.437 C 4637.974 3261.879,4621.446 3285.572,4591.125 3317.799 C 4530.116 3382.645,4456.308 3442.057,4371.000 3494.989 C 4343.775 3511.881,4307.325 3534.512,4290.000 3545.279 C 4243.248 3574.335,4209.209 3600.991,4163.754 3644.144 L 4123.008 3682.826 4055.754 3689.560 C 3931.340 3702.016,3896.237 3709.792,3842.197 3736.872 C 3803.120 3756.453,3779.710 3772.197,3743.683 3803.124 C 3686.424 3852.277,3626.700 3921.241,3592.096 3978.161 C 3566.447 4020.351,3568.244 4026.877,3599.622 4005.502 C 3693.631 3941.461,3710.083 3932.290,3800.026 3893.797 C 3883.562 3858.046,3902.519 3846.358,3976.193 3785.179 C 4039.230 3732.834,4104.181 3691.693,4103.960 3704.250 C 4103.939 3705.488,4090.908 3724.050,4075.004 3745.500 C 4011.909 3830.596,3967.608 3909.114,3931.811 3999.292 C 3918.151 4033.703,3915.565 4044.000,3920.581 4044.000 C 3925.037 4044.000,3945.541 4029.118,3972.000 4006.679 C 4015.432 3969.846,4057.097 3937.593,4104.734 3903.930 C 4205.964 3832.397,4287.778 3754.750,4337.549 3682.972 C 4364.599 3643.963,4371.946 3637.219,4404.000 3621.981 C 4443.158 3603.367,4483.151 3576.062,4523.747 3540.225 C 4542.582 3523.598,4558.556 3510.556,4559.244 3511.244 C 4561.270 3513.270,4516.616 3617.856,4496.685 3657.769 C 4457.360 3736.520,4417.643 3792.213,4353.665 3858.318 C 4281.548 3932.834,4253.168 3952.510,4096.500 4036.614 C 3881.499 4152.033,3805.909 4213.016,3721.882 4338.841 C 3698.685 4373.576,3689.631 4392.631,3694.166 4397.166 C 3697.202 4400.202,3723.549 4384.781,3760.589 4358.286 C 3816.088 4318.587,3839.679 4304.891,3951.000 4247.747 C 4172.010 4134.296,4212.051 4108.776,4276.542 4040.268 C 4290.786 4025.137,4305.335 4010.729,4308.873 4008.251 C 4314.606 4004.235,4314.368 4005.363,4306.681 4018.623 C 4292.747 4042.658,4250.941 4103.646,4231.716 4127.986 C 4183.508 4189.016,4132.424 4232.914,3957.000 4364.056 C 3836.584 4454.075,3792.962 4496.789,3728.284 4588.009 C 3703.407 4623.095,3651.000 4704.248,3651.000 4707.684 C 3651.000 4718.452,3717.576 4693.296,3811.500 4647.038 C 3916.395 4595.377,3989.740 4536.764,4061.288 4447.420 C 4112.119 4383.947,4149.476 4327.788,4205.918 4230.000 C 4224.489 4197.825,4266.778 4126.950,4299.895 4072.500 C 4372.988 3952.319,4397.345 3908.719,4453.237 3798.000 C 4502.134 3701.136,4533.554 3634.635,4553.163 3586.500 C 4580.800 3518.662,4584.615 3510.000,4586.862 3510.000 C 4589.454 3510.000,4598.122 3536.327,4610.124 3580.650 C 4617.188 3606.738,4618.196 3615.982,4618.121 3654.000 C 4618.047 3691.050,4616.897 3701.726,4610.364 3726.000 C 4592.499 3792.382,4564.131 3856.451,4500.614 3973.873 C 4395.970 4167.324,4364.633 4260.550,4360.106 4391.872 C 4357.430 4469.480,4365.705 4633.705,4372.640 4640.640 C 4376.302 4644.302,4383.623 4630.530,4399.560 4590.000 C 4419.220 4540.003,4460.969 4455.884,4488.897 4410.000 C 4499.442 4392.675,4517.944 4362.300,4530.013 4342.500 C 4588.371 4246.760,4634.072 4135.365,4648.500 4053.693 C 4656.086 4010.755,4659.728 3922.300,4658.148 3819.353 C 4656.000 3679.347,4647.592 3631.972,4605.744 3524.078 L 4592.005 3488.655 4617.967 3408.578 C 4655.587 3292.546,4673.423 3227.129,4695.013 3126.000 C 4711.411 3049.191,4730.827 2920.361,4736.347 2851.743 C 4737.544 2836.864,4739.960 2824.502,4741.789 2823.896 C 4749.434 2821.365,4793.781 2940.265,4804.185 2991.190 C 4816.484 3051.387,4817.326 3138.497,4807.155 3298.500 C 4801.457 3388.150,4802.938 3503.068,4810.435 3553.060 C 4821.174 3624.665,4843.870 3693.596,4872.852 3742.626 C 4895.556 3781.035,4974.448 3899.110,4987.656 3914.447 C 4995.484 3923.538,4999.749 3926.451,5001.974 3924.226 C 5003.862 3922.338,5006.618 3886.802,5008.795 3836.279 C 5012.672 3746.308,5014.237 3730.394,5028.056 3640.500 C 5040.419 3560.075,5044.088 3508.776,5042.001 3445.500 C 5039.038 3355.614,5027.763 3296.336,4994.640 3196.500 C 4959.513 3090.624,4931.794 3040.721,4855.503 2946.000 C 4798.621 2875.378,4782.673 2853.833,4761.212 2818.615 L 4743.000 2788.730 4742.971 2703.115 C 4742.919 2547.970,4734.655 2449.693,4714.267 2361.775 C 4694.997 2278.680,4661.963 2181.000,4653.131 2181.000 C 4651.319 2181.000,4650.552 2183.980,4651.394 2187.750 M1259.588 2370.044 C 1182.491 2451.565,1135.321 2507.072,1087.696 2572.319 C 1060.343 2609.792,1051.052 2625.000,1055.512 2625.000 C 1059.962 2625.000,1083.141 2598.521,1112.543 2559.850 C 1171.918 2481.757,1300.353 2341.853,1304.035 2351.259 C 1307.845 2360.995,1229.979 2483.981,1165.859 2569.500 C 1098.083 2659.896,986.672 2792.393,924.343 2856.725 C 885.939 2896.364,872.018 2908.046,879.217 2894.594 C 881.236 2890.821,908.079 2849.882,938.867 2803.617 C 996.001 2717.764,1021.711 2676.711,1019.641 2674.641 C 1017.490 2672.490,973.731 2729.968,943.133 2775.135 C 909.365 2824.983,905.774 2829.774,903.717 2827.717 C 902.931 2826.931,916.003 2801.178,932.766 2770.489 C 1051.888 2552.398,1107.517 2480.501,1236.856 2377.472 C 1266.871 2353.562,1291.934 2334.000,1292.552 2334.000 C 1293.170 2334.000,1278.336 2350.220,1259.588 2370.044 M1302.393 2406.365 C 1275.557 2473.475,1219.305 2584.533,1189.372 2629.500 C 1159.303 2674.671,1004.687 2829.687,997.185 2822.185 C 996.270 2821.270,1005.251 2810.279,1017.142 2797.761 C 1029.034 2785.242,1037.930 2775.000,1036.913 2775.000 C 1035.896 2775.000,1027.610 2781.750,1018.500 2790.000 C 1002.687 2804.320,996.000 2808.021,996.000 2802.451 C 996.000 2801.050,1007.556 2786.537,1021.680 2770.201 C 1119.938 2656.555,1218.560 2524.531,1283.409 2419.828 C 1297.604 2396.908,1309.674 2379.523,1310.231 2381.193 C 1310.788 2382.864,1307.261 2394.191,1302.393 2406.365 M4614.979 2514.000 C 4626.541 2514.000,4635.288 2514.712,4634.417 2515.583 C 4633.546 2516.454,4615.433 2521.896,4594.167 2527.677 C 4545.045 2541.030,4509.540 2552.699,4507.375 2556.202 C 4506.448 2557.703,4507.446 2558.284,4509.594 2557.493 C 4515.797 2555.208,4627.221 2526.000,4629.734 2526.000 C 4630.980 2526.000,4632.000 2528.182,4632.000 2530.850 C 4632.000 2534.428,4633.770 2535.214,4638.750 2533.848 C 4642.463 2532.830,4650.900 2531.141,4657.500 2530.096 L 4669.500 2528.195 4660.500 2537.861 C 4641.931 2557.803,4570.798 2592.549,4506.000 2613.329 C 4488.675 2618.885,4477.316 2623.849,4480.758 2624.360 C 4484.200 2624.870,4509.038 2620.438,4535.954 2614.510 C 4562.870 2608.582,4587.054 2604.176,4589.696 2604.719 C 4602.668 2607.385,4537.083 2636.612,4503.000 2643.354 C 4479.933 2647.916,4347.419 2648.372,4333.500 2643.936 C 4314.613 2637.918,4317.032 2636.999,4430.074 2607.254 C 4514.668 2584.995,4603.593 2554.569,4594.290 2551.068 C 4592.525 2550.404,4570.250 2555.862,4544.790 2563.199 C 4412.795 2601.232,4275.000 2635.914,4275.000 2631.104 C 4275.000 2629.869,4308.394 2617.675,4349.210 2604.005 C 4424.058 2578.937,4456.809 2566.420,4438.500 2569.880 C 4433.550 2570.816,4405.385 2578.273,4375.911 2586.451 C 4346.437 2594.630,4321.585 2600.585,4320.685 2599.685 C 4317.931 2596.931,4360.773 2578.570,4415.444 2559.072 C 4520.707 2521.532,4499.610 2523.410,4380.985 2562.140 C 4355.952 2570.313,4333.934 2577.000,4332.058 2577.000 C 4310.890 2577.000,4423.125 2525.071,4461.000 2517.341 C 4488.660 2511.696,4493.802 2511.413,4544.729 2512.728 C 4571.805 2513.428,4603.418 2514.000,4614.979 2514.000 M1648.500 2554.739 C 1637.249 2564.143,1558.870 2602.756,1521.444 2617.331 C 1484.165 2631.850,1459.892 2637.333,1362.000 2653.348 C 1263.875 2669.402,1248.456 2673.456,1196.004 2696.991 C 1173.929 2706.896,1154.323 2715.000,1152.434 2715.000 C 1146.135 2715.000,1148.894 2709.383,1158.750 2702.144 C 1186.175 2681.999,1237.165 2659.671,1307.864 2636.846 C 1335.015 2628.081,1355.659 2620.386,1353.741 2619.747 C 1347.904 2617.801,1278.627 2635.768,1235.929 2650.301 C 1192.502 2665.082,1191.000 2665.444,1191.000 2661.126 C 1191.000 2653.619,1246.515 2628.971,1286.406 2618.768 C 1299.108 2615.519,1343.438 2608.186,1384.917 2602.472 C 1426.397 2596.759,1476.334 2589.486,1495.888 2586.311 C 1515.443 2583.135,1532.715 2581.324,1534.271 2582.286 C 1537.760 2584.442,1519.935 2590.855,1494.000 2596.773 C 1461.594 2604.169,1431.000 2613.718,1431.000 2616.437 C 1431.000 2619.925,1433.710 2619.725,1460.376 2614.268 C 1493.746 2607.440,1561.815 2584.704,1603.500 2566.462 C 1645.195 2548.216,1647.005 2547.517,1653.000 2547.345 C 1655.726 2547.267,1653.951 2550.182,1648.500 2554.739 M1562.677 2620.608 C 1554.834 2628.452,1508.310 2646.883,1411.500 2680.499 C 1360.350 2698.260,1314.450 2714.938,1309.500 2717.560 C 1301.018 2722.054,1300.887 2722.388,1307.218 2723.369 C 1329.607 2726.836,1480.048 2675.453,1563.790 2635.737 C 1583.199 2626.531,1599.902 2619.000,1600.907 2619.000 C 1612.073 2619.000,1526.813 2672.182,1468.500 2701.591 C 1395.141 2738.588,1340.383 2754.174,1205.361 2776.488 C 1116.974 2791.095,1090.584 2797.062,1126.500 2794.320 C 1186.562 2789.735,1320.834 2769.451,1366.107 2758.122 C 1382.391 2754.048,1396.437 2751.437,1397.321 2752.321 C 1400.326 2755.326,1371.914 2765.896,1340.660 2773.400 C 1263.213 2791.994,1115.335 2809.483,1084.486 2803.695 C 1075.142 2801.942,1074.107 2800.986,1077.340 2797.091 C 1082.926 2790.360,1160.663 2752.612,1187.383 2743.655 C 1200.098 2739.393,1212.525 2734.598,1215.000 2732.999 C 1225.723 2726.071,1202.700 2730.839,1170.000 2742.318 C 1111.322 2762.917,1107.172 2764.172,1104.992 2761.992 C 1102.103 2759.103,1126.462 2734.698,1138.091 2728.830 C 1158.710 2718.427,1227.040 2694.333,1252.500 2688.489 C 1267.350 2685.080,1316.519 2676.053,1361.765 2668.428 C 1440.911 2655.091,1484.455 2644.518,1539.000 2625.393 C 1569.626 2614.655,1568.379 2614.906,1562.677 2620.608 M4362.791 2639.153 C 4367.351 2639.842,4374.101 2639.824,4377.791 2639.112 C 4381.481 2638.400,4377.750 2637.836,4369.500 2637.858 C 4361.250 2637.881,4358.231 2638.463,4362.791 2639.153 M1096.845 2704.338 C 1066.130 2736.425,1041.000 2763.472,1041.000 2764.444 C 1041.000 2771.502,1085.632 2727.669,1126.475 2680.500 C 1154.169 2648.518,1156.200 2646.000,1154.310 2646.000 C 1153.419 2646.000,1127.560 2672.252,1096.845 2704.338 M1553.534 2674.975 C 1526.639 2697.620,1456.182 2737.894,1448.145 2735.215 C 1446.310 2734.603,1452.839 2729.164,1462.654 2723.128 C 1499.539 2700.445,1561.594 2664.366,1564.034 2664.187 C 1565.427 2664.084,1560.702 2668.939,1553.534 2674.975 M4532.766 2711.039 C 4527.370 2718.993,4510.754 2742.375,4495.843 2763.000 C 4462.257 2809.456,4436.965 2849.376,4437.108 2855.708 C 4437.247 2861.889,4445.918 2851.625,4473.608 2812.500 C 4513.776 2755.743,4527.719 2738.519,4530.913 2741.713 C 4532.957 2743.757,4532.914 2746.010,4530.784 2748.623 C 4529.044 2750.755,4511.993 2780.529,4492.891 2814.787 C 4454.167 2884.235,4434.511 2914.914,4405.673 2950.913 C 4380.271 2982.623,4331.646 3031.670,4297.134 3060.395 C 4254.446 3095.924,4196.136 3135.136,4192.057 3131.057 C 4190.591 3129.591,4194.615 3126.240,4254.000 3079.472 C 4315.505 3031.034,4365.639 2977.592,4389.060 2935.500 C 4395.117 2924.614,4394.251 2925.171,4379.723 2941.500 C 4328.026 2999.611,4276.119 3047.378,4216.747 3091.479 C 4180.159 3118.657,4129.354 3152.152,4109.350 3162.285 L 4096.500 3168.794 4102.500 3162.005 C 4105.800 3158.272,4126.050 3141.597,4147.500 3124.952 C 4214.526 3072.938,4303.855 2981.289,4343.688 2923.670 C 4352.307 2911.201,4358.785 2901.000,4358.083 2901.000 C 4357.381 2901.000,4345.676 2913.488,4332.072 2928.750 C 4271.161 2997.087,4191.361 3073.546,4126.972 3125.262 C 4067.436 3173.081,4058.823 3173.663,4104.523 3126.779 C 4142.124 3088.205,4186.810 3038.453,4212.431 3006.638 C 4236.962 2976.177,4237.089 2976.000,4234.523 2976.000 C 4233.306 2976.000,4211.984 2995.913,4187.140 3020.250 C 4134.662 3071.660,4137.358 3066.160,4200.907 2992.177 C 4241.486 2944.934,4268.797 2914.355,4352.006 2823.000 C 4371.513 2801.583,4371.778 2801.102,4357.500 2813.006 C 4340.344 2827.310,4266.699 2902.052,4203.390 2969.411 C 4179.679 2994.639,4159.581 3014.581,4158.727 3013.727 C 4157.873 3012.873,4165.722 3000.322,4176.169 2985.837 C 4240.789 2896.239,4304.633 2831.977,4383.366 2777.285 C 4410.261 2758.603,4469.409 2723.268,4480.999 2718.959 C 4484.025 2717.835,4472.325 2730.283,4455.000 2746.621 C 4373.470 2823.509,4300.758 2898.000,4307.235 2898.000 C 4308.827 2898.000,4342.891 2866.249,4382.932 2827.443 C 4454.036 2758.532,4473.000 2741.682,4473.000 2747.415 C 4473.000 2748.968,4460.733 2764.247,4445.740 2781.369 C 4396.137 2838.017,4405.700 2831.386,4473.296 2762.263 C 4509.998 2724.733,4540.600 2694.600,4541.302 2695.302 C 4542.004 2696.004,4538.163 2703.086,4532.766 2711.039 M4867.489 3010.411 C 4894.589 3065.810,4912.450 3107.686,4928.997 3154.619 C 4944.411 3198.338,4947.826 3204.647,4945.173 3184.500 C 4942.357 3163.110,4925.135 3101.470,4914.580 3075.000 C 4909.645 3062.625,4906.113 3051.970,4906.731 3051.322 C 4909.549 3048.370,4918.401 3059.930,4928.175 3079.327 C 4961.441 3145.347,5006.555 3285.819,5016.388 3354.000 C 5021.861 3391.948,5020.981 3522.466,5014.876 3578.415 C 5009.574 3627.003,4996.576 3702.717,4992.192 3710.550 C 4990.673 3713.266,4989.006 3648.827,4988.203 3556.357 C 4986.749 3388.792,4985.196 3367.211,4970.942 3316.500 L 4965.040 3295.500 4966.400 3318.000 C 4967.148 3330.375,4969.358 3352.650,4971.311 3367.500 C 4976.150 3404.301,4976.918 3736.277,4972.175 3741.023 C 4964.403 3748.800,4954.019 3663.078,4939.466 3471.000 C 4928.239 3322.825,4922.743 3281.420,4904.227 3205.500 C 4892.275 3156.497,4890.262 3165.817,4900.213 3224.082 C 4911.312 3289.065,4916.187 3332.242,4924.536 3439.500 C 4933.658 3556.698,4941.653 3636.573,4951.614 3710.049 C 4958.665 3762.059,4970.533 3825.173,4975.703 3838.159 C 4977.351 3842.298,4976.820 3843.458,4973.728 3842.475 C 4963.118 3839.103,4932.543 3762.241,4917.251 3700.500 C 4911.132 3675.796,4901.837 3615.319,4896.042 3562.500 C 4883.568 3448.822,4876.399 3418.415,4879.419 3492.000 C 4881.489 3542.415,4889.197 3632.371,4892.852 3648.750 C 4896.521 3665.192,4892.516 3662.484,4884.663 3643.214 C 4872.290 3612.848,4860.508 3521.268,4854.018 3405.000 C 4850.053 3333.979,4850.054 3192.854,4854.018 3196.818 C 4855.679 3198.479,4860.251 3230.811,4864.180 3268.668 C 4869.511 3320.040,4871.406 3331.793,4871.651 3315.000 C 4872.125 3282.500,4867.400 3235.294,4853.699 3135.653 C 4847.056 3087.337,4842.043 3044.137,4842.560 3039.653 C 4843.290 3033.319,4846.124 3038.187,4855.261 3061.467 C 4861.729 3077.950,4867.537 3089.890,4868.166 3088.001 C 4869.646 3083.562,4863.012 3058.168,4846.370 3004.568 C 4839.016 2980.884,4833.000 2959.833,4833.000 2957.788 C 4833.000 2947.486,4847.618 2969.790,4867.489 3010.411 M4844.834 3453.576 C 4850.824 3539.699,4860.031 3603.889,4872.506 3646.500 C 4875.888 3658.050,4886.068 3686.400,4895.128 3709.500 C 4917.865 3767.473,4923.116 3783.000,4919.983 3783.000 C 4910.552 3783.000,4866.508 3695.288,4848.306 3640.257 C 4841.801 3620.591,4834.305 3591.675,4831.648 3576.000 C 4825.023 3536.904,4820.147 3438.698,4821.759 3376.801 C 4823.035 3327.758,4830.963 3226.150,4835.240 3204.000 C 4836.355 3198.225,4838.205 3241.009,4839.350 3299.076 C 4840.495 3357.143,4842.963 3426.668,4844.834 3453.576 M4625.993 3317.250 C 4625.968 3324.947,4591.304 3420.507,4581.368 3440.268 C 4567.207 3468.433,4541.616 3501.494,4514.767 3526.308 C 4493.073 3546.359,4440.639 3585.993,4407.405 3607.463 C 4369.243 3632.117,4372.876 3618.323,4425.153 3540.064 C 4468.264 3475.529,4494.868 3443.419,4561.743 3375.207 C 4615.894 3319.973,4626.013 3310.845,4625.993 3317.250 M4276.222 3347.978 C 4274.585 3349.615,4250.352 3363.215,4222.372 3378.199 C 4144.201 3420.063,4147.787 3420.004,4242.340 3377.868 C 4307.859 3348.670,4319.908 3345.313,4293.000 3363.753 C 4260.361 3386.120,4186.666 3429.581,4100.504 3477.274 C 4018.670 3522.573,3980.510 3545.512,3976.680 3551.708 C 3972.445 3558.561,3982.040 3554.298,4022.152 3531.504 C 4044.893 3518.581,4091.175 3492.707,4125.000 3474.006 C 4158.825 3455.305,4213.251 3423.892,4245.948 3404.200 C 4278.644 3384.507,4306.183 3369.183,4307.145 3370.145 C 4308.108 3371.108,4296.544 3384.490,4281.448 3399.884 C 4239.504 3442.654,4246.783 3441.958,4298.536 3398.249 C 4313.955 3385.226,4327.387 3375.387,4328.384 3376.384 C 4330.982 3378.982,4272.610 3437.203,4239.000 3465.536 C 4200.091 3498.336,4157.136 3526.464,4124.404 3540.575 C 4097.374 3552.228,3998.974 3582.722,3976.244 3586.489 L 3964.500 3588.436 3972.000 3582.291 C 3976.125 3578.911,4009.875 3562.400,4047.000 3545.601 C 4113.491 3515.513,4159.573 3491.635,4173.433 3480.087 C 4187.399 3468.452,4171.449 3473.947,4124.921 3496.802 C 4074.138 3521.746,3998.021 3556.441,3980.250 3562.744 C 3970.389 3566.241,3969.000 3566.163,3969.000 3562.109 C 3969.000 3558.586,3964.352 3560.083,3949.500 3568.389 C 3938.775 3574.386,3930.000 3578.024,3930.000 3576.471 C 3930.000 3572.852,3966.599 3542.066,4028.089 3493.959 C 4079.989 3453.357,4089.615 3444.194,4066.150 3457.728 C 4023.496 3482.331,3968.726 3521.861,3924.750 3559.782 C 3905.591 3576.304,3909.397 3566.990,3932.520 3540.769 C 3958.138 3511.718,3983.579 3488.096,4013.393 3465.675 C 4074.239 3419.917,4116.581 3399.489,4236.000 3358.275 C 4275.869 3344.515,4280.998 3343.202,4276.222 3347.978 M1104.956 3395.250 C 1093.542 3422.352,1086.698 3515.974,1091.743 3576.000 C 1093.483 3596.698,1098.152 3625.261,1102.164 3639.750 C 1107.694 3659.722,1108.491 3666.000,1105.496 3666.000 C 1103.330 3666.000,1080.991 3657.152,1055.852 3646.339 C 968.818 3608.900,893.680 3586.792,859.500 3588.566 C 838.090 3589.677,835.183 3595.709,853.072 3601.903 C 874.731 3609.401,919.194 3640.674,977.230 3689.227 C 1057.982 3756.785,1109.021 3812.320,1249.513 3985.500 C 1338.494 4095.185,1392.795 4157.344,1466.250 4233.607 C 1502.912 4271.669,1508.388 4278.000,1504.654 4278.000 C 1500.627 4278.000,1386.427 4183.878,1273.500 4087.485 C 1077.546 3920.222,1045.998 3898.830,873.099 3815.988 C 831.788 3796.195,795.875 3780.000,793.292 3780.000 C 778.120 3780.000,816.614 3832.731,922.502 3957.000 C 1034.116 4087.989,1120.970 4155.576,1275.093 4231.374 C 1322.964 4254.917,1349.728 4266.065,1471.500 4313.183 C 1530.920 4336.175,1613.619 4377.594,1668.000 4411.599 C 1756.250 4466.783,1835.295 4509.443,1911.750 4543.151 C 1947.138 4558.752,1946.496 4563.003,1908.750 4562.990 C 1820.384 4562.959,1734.314 4547.283,1573.401 4501.914 C 1494.430 4479.648,1418.844 4461.320,1371.792 4453.026 C 1281.375 4437.090,1177.508 4442.800,1030.500 4471.789 C 981.059 4481.539,925.772 4495.312,910.554 4501.671 C 901.466 4505.468,899.827 4507.165,903.344 4509.133 C 905.847 4510.534,935.481 4513.873,969.198 4516.553 C 1070.711 4524.622,1132.847 4538.705,1254.000 4581.100 C 1390.802 4628.971,1463.015 4652.973,1487.606 4658.745 C 1527.348 4668.073,1581.551 4671.974,1644.000 4669.999 C 1758.581 4666.375,1846.104 4645.074,1937.876 4598.478 L 1984.252 4574.930 2048.876 4598.714 C 2199.752 4654.241,2397.231 4708.224,2554.500 4736.930 C 2630.104 4750.730,2639.383 4754.352,2620.145 4762.555 C 2601.071 4770.688,2547.889 4787.593,2511.000 4797.249 C 2460.512 4810.464,2422.122 4812.367,2282.021 4808.595 C 2106.113 4803.859,2025.866 4809.749,1946.717 4833.206 C 1929.548 4838.294,1881.750 4855.100,1840.500 4870.552 C 1754.822 4902.648,1723.273 4912.191,1683.000 4918.197 C 1639.517 4924.682,1630.237 4929.794,1644.750 4939.268 C 1662.778 4951.038,1820.842 5006.137,1876.500 5020.053 C 1934.495 5034.553,1978.560 5040.558,2038.500 5042.128 C 2121.679 5044.308,2183.353 5035.060,2263.335 5008.415 C 2348.830 4979.933,2394.414 4953.310,2505.483 4866.991 C 2627.024 4772.534,2644.524 4765.339,2770.500 4758.041 C 2851.893 4753.326,2898.107 4747.750,2958.000 4735.420 C 3052.518 4715.962,3177.672 4686.290,3223.750 4672.414 C 3250.563 4664.340,3283.541 4650.541,3281.323 4648.323 C 3280.541 4647.541,3253.035 4652.863,3220.200 4660.152 C 3099.655 4686.908,3023.717 4701.579,3015.914 4699.621 C 3000.601 4695.778,2935.453 4624.168,2894.349 4566.000 C 2844.381 4495.286,2831.688 4457.906,2821.513 4351.500 C 2810.239 4233.597,2797.801 4168.658,2773.536 4101.000 C 2742.098 4013.346,2709.579 3957.747,2656.447 3900.807 C 2608.391 3849.306,2485.570 3744.000,2473.560 3744.000 C 2468.472 3744.000,2474.230 3758.339,2490.430 3786.015 C 2535.826 3863.566,2555.873 3929.800,2583.002 4091.874 C 2598.345 4183.539,2607.852 4228.805,2617.646 4256.837 C 2621.849 4268.868,2624.562 4279.438,2623.673 4280.327 C 2622.785 4281.215,2585.258 4264.306,2540.279 4242.752 C 2443.744 4196.492,2418.693 4185.724,2342.098 4157.566 C 2250.433 4123.866,2241.742 4121.068,2235.918 4123.378 C 2231.252 4125.230,2232.405 4127.262,2244.218 4138.014 C 2262.310 4154.482,2293.883 4190.687,2341.439 4249.500 C 2455.281 4390.290,2508.377 4438.660,2623.500 4506.459 C 2661.385 4528.770,2688.506 4543.306,2799.000 4600.522 C 2917.505 4661.887,2976.000 4696.689,2976.000 4705.829 C 2976.000 4712.058,2966.723 4715.534,2937.469 4720.266 C 2886.728 4728.472,2812.991 4731.896,2727.000 4730.038 C 2591.246 4727.104,2542.834 4716.583,2454.000 4670.707 C 2340.057 4611.865,2286.684 4534.094,2233.486 4349.393 C 2197.923 4225.924,2165.839 4159.743,2115.854 4106.757 C 2069.251 4057.355,1890.753 3922.712,1868.645 3920.285 C 1853.150 3918.583,1858.339 3945.385,1889.114 4026.000 C 1920.590 4108.451,1958.038 4175.393,2006.144 4235.205 C 2018.442 4250.495,2054.716 4290.017,2086.752 4323.032 C 2150.830 4389.066,2177.245 4420.744,2221.242 4484.321 C 2273.851 4560.343,2310.413 4599.982,2371.224 4646.927 C 2405.719 4673.556,2409.112 4677.000,2400.852 4677.000 C 2389.614 4677.000,2319.942 4658.482,2304.345 4651.349 C 2271.755 4636.445,2227.086 4583.498,2137.430 4453.500 C 2018.909 4281.649,1965.149 4223.525,1853.599 4146.627 L 1815.698 4120.500 1813.709 4083.000 C 1807.346 3962.997,1794.655 3916.048,1738.697 3805.500 C 1707.300 3743.473,1682.051 3704.235,1645.821 3661.164 C 1616.167 3625.912,1530.706 3537.000,1526.476 3537.000 C 1522.704 3537.000,1523.872 3540.646,1548.566 3606.000 C 1594.531 3727.643,1605.048 3758.927,1654.459 3921.000 C 1663.766 3951.525,1678.544 3993.713,1687.300 4014.750 C 1696.057 4035.788,1702.242 4053.000,1701.044 4053.000 C 1698.468 4053.000,1655.419 4034.012,1599.000 4007.991 C 1538.497 3980.087,1515.000 3972.795,1515.000 3981.925 C 1515.000 3990.007,1622.195 4119.389,1686.992 4189.517 C 1726.378 4232.143,1756.856 4259.522,1801.667 4292.534 C 1841.417 4321.818,1837.657 4316.698,1868.766 4383.886 C 1886.828 4422.895,1905.379 4454.016,1937.943 4499.939 C 1951.375 4518.881,1961.134 4534.789,1959.630 4535.290 C 1955.967 4536.511,1842.312 4482.951,1816.177 4467.687 C 1773.736 4442.901,1735.368 4410.820,1659.401 4336.605 C 1577.280 4256.378,1531.529 4194.663,1445.818 4048.500 C 1420.661 4005.600,1389.961 3954.975,1377.597 3936.000 C 1350.635 3894.624,1341.084 3875.057,1340.985 3861.000 C 1340.780 3831.809,1315.974 3756.203,1295.524 3722.443 C 1287.214 3708.724,1258.376 3664.425,1231.440 3624.000 C 1170.883 3533.119,1159.385 3511.237,1139.746 3449.490 C 1117.457 3379.412,1113.937 3373.925,1104.956 3395.250 M1111.271 3491.167 C 1112.434 3504.000,1114.877 3521.250,1116.700 3529.500 L 1120.015 3544.500 1123.391 3531.040 C 1125.279 3523.515,1127.702 3519.091,1128.887 3521.008 C 1130.053 3522.894,1135.852 3538.401,1141.774 3555.469 C 1162.182 3614.280,1205.252 3714.000,1210.245 3714.000 C 1213.076 3714.000,1201.430 3677.352,1184.890 3634.213 C 1175.051 3608.550,1167.000 3586.223,1167.000 3584.599 C 1167.000 3579.191,1172.843 3585.137,1195.518 3613.619 C 1207.885 3629.154,1221.478 3644.140,1225.723 3646.922 C 1239.782 3656.134,1281.864 3726.278,1302.933 3775.618 C 1316.059 3806.358,1324.644 3842.595,1319.894 3847.210 C 1312.485 3854.407,1283.311 3807.232,1273.693 3772.500 C 1266.178 3745.365,1247.154 3697.038,1245.702 3701.395 C 1244.999 3703.502,1249.454 3721.470,1255.601 3741.325 C 1272.343 3795.405,1267.769 3795.286,1210.087 3740.141 C 1176.958 3708.470,1171.963 3700.719,1153.780 3652.765 C 1146.327 3633.111,1138.828 3615.628,1137.115 3613.915 C 1131.201 3608.001,1133.818 3631.306,1142.569 3662.477 C 1147.281 3679.265,1150.234 3693.000,1149.130 3693.000 C 1144.343 3693.000,1130.725 3675.158,1123.566 3659.504 C 1109.909 3629.642,1106.534 3606.813,1104.846 3532.850 C 1103.832 3488.397,1104.315 3464.841,1106.218 3466.017 C 1107.835 3467.016,1110.109 3478.333,1111.271 3491.167 M4444.257 3483.750 C 4443.103 3485.813,4434.457 3498.975,4425.043 3513.000 C 4415.629 3527.025,4392.692 3563.475,4374.072 3594.000 C 4312.292 3695.278,4286.557 3729.229,4229.573 3784.623 C 4193.995 3819.209,4173.937 3835.937,4171.256 3833.256 C 4170.387 3832.387,4176.161 3824.146,4184.088 3814.943 C 4251.323 3736.880,4273.638 3708.797,4291.712 3679.500 L 4297.265 3670.500 4290.184 3676.500 C 4286.290 3679.800,4263.442 3706.125,4239.411 3735.000 C 4180.318 3806.006,4147.559 3841.666,4113.304 3872.274 C 4079.892 3902.129,3981.527 3976.527,3978.917 3973.917 C 3976.639 3971.639,3992.664 3952.895,4067.708 3870.062 C 4101.372 3832.903,4166.115 3759.975,4211.580 3708.000 C 4290.663 3617.594,4396.045 3507.045,4399.680 3510.680 C 4400.627 3511.627,4391.363 3528.444,4379.094 3548.051 C 4357.394 3582.728,4342.705 3609.000,4345.018 3609.000 C 4345.646 3609.000,4357.382 3592.463,4371.099 3572.250 C 4410.620 3514.016,4437.339 3480.887,4445.427 3480.091 C 4445.937 3480.041,4445.410 3481.688,4444.257 3483.750 M4307.950 3562.037 C 4302.203 3567.557,4272.863 3594.700,4242.750 3622.355 C 4166.467 3692.412,4169.291 3693.115,4250.903 3624.385 C 4276.425 3602.892,4297.883 3585.883,4298.588 3586.588 C 4300.273 3588.273,4298.628 3590.246,4205.725 3697.985 C 4117.721 3800.044,4031.987 3896.572,4016.974 3910.500 L 4007.273 3919.500 4011.842 3910.500 C 4014.355 3905.550,4035.635 3872.475,4059.132 3837.000 C 4082.628 3801.525,4105.100 3767.100,4109.069 3760.500 L 4116.286 3748.500 4102.216 3763.500 C 4083.895 3783.032,4060.200 3814.274,4022.127 3869.096 C 3982.473 3926.195,3977.390 3933.000,3974.393 3933.000 C 3967.006 3933.000,4020.977 3843.390,4059.841 3791.129 C 4107.647 3726.842,4177.878 3651.477,4227.966 3610.710 C 4252.400 3590.823,4309.861 3552.000,4314.860 3552.000 C 4316.807 3552.000,4313.698 3556.516,4307.950 3562.037 M1576.456 3622.500 C 1597.944 3666.950,1623.499 3728.998,1653.062 3808.500 C 1666.561 3844.800,1678.778 3876.525,1680.211 3879.000 C 1685.321 3887.822,1682.897 3876.009,1672.684 3842.315 C 1650.965 3770.661,1624.908 3699.852,1607.437 3665.003 C 1602.612 3655.380,1599.172 3645.984,1599.792 3644.123 C 1601.913 3637.761,1646.018 3707.873,1690.439 3788.221 C 1703.429 3811.718,1714.611 3830.389,1715.288 3829.712 C 1717.713 3827.287,1680.549 3753.707,1656.086 3712.500 C 1626.338 3662.388,1625.956 3661.592,1638.096 3675.000 C 1723.660 3769.498,1808.353 3989.028,1791.160 4071.750 C 1784.062 4105.898,1771.039 4092.079,1714.626 3990.538 C 1705.165 3973.509,1696.766 3960.234,1695.961 3961.039 C 1694.250 3962.750,1717.592 4017.226,1734.372 4050.683 C 1740.768 4063.434,1746.000 4074.572,1746.000 4075.433 C 1746.000 4079.818,1737.227 4076.026,1730.539 4068.750 C 1708.049 4044.285,1688.321 3993.910,1651.527 3867.000 C 1622.682 3767.508,1606.888 3721.804,1577.853 3653.802 C 1564.773 3623.168,1553.283 3593.468,1552.320 3587.802 C 1550.633 3577.875,1550.750 3577.719,1555.536 3583.500 C 1558.268 3586.800,1567.682 3604.350,1576.456 3622.500 M1079.906 3691.764 C 1145.001 3724.731,1156.656 3733.678,1222.609 3801.315 C 1298.035 3878.667,1316.247 3903.828,1373.298 4009.500 C 1404.412 4067.131,1422.909 4105.774,1421.460 4110.120 C 1420.832 4112.003,1410.057 4100.220,1397.515 4083.934 C 1359.899 4035.092,1354.098 4035.398,1386.773 4084.500 C 1396.655 4099.350,1416.900 4128.086,1431.763 4148.357 C 1446.626 4168.628,1457.896 4186.104,1456.808 4187.192 C 1452.167 4191.833,1399.515 4130.806,1277.983 3979.922 C 1227.668 3917.454,1175.937 3853.329,1163.026 3837.422 C 1150.115 3821.515,1138.271 3806.168,1136.706 3803.318 C 1129.084 3789.434,1146.852 3805.952,1196.614 3859.014 C 1265.494 3932.461,1295.912 3962.217,1288.150 3948.560 C 1275.925 3927.052,1218.980 3864.658,1138.671 3784.780 C 1092.377 3738.733,1056.525 3702.205,1059.000 3703.605 C 1075.230 3712.787,1136.495 3757.126,1156.500 3774.168 C 1217.583 3826.204,1257.505 3868.837,1311.552 3939.750 C 1331.358 3965.738,1348.147 3987.000,1348.859 3987.000 C 1355.295 3987.000,1286.159 3893.518,1241.253 3841.500 C 1201.222 3795.130,1169.750 3769.856,1053.177 3690.462 C 1030.999 3675.358,1015.161 3663.000,1017.982 3663.000 C 1020.802 3663.000,1048.668 3675.944,1079.906 3691.764 M3986.372 3717.385 C 3985.192 3720.925,3983.040 3721.853,3934.638 3739.699 C 3899.187 3752.770,3859.521 3770.521,3861.450 3772.450 C 3862.205 3773.205,3876.250 3768.499,3892.661 3761.992 C 3909.073 3755.486,3925.200 3750.156,3928.500 3750.148 C 3933.979 3750.135,3933.849 3750.636,3927.000 3755.928 C 3922.875 3759.114,3906.675 3768.781,3891.000 3777.410 C 3835.065 3808.200,3798.792 3832.058,3731.353 3882.418 C 3693.739 3910.507,3661.285 3932.853,3659.232 3932.076 C 3655.148 3930.531,3670.109 3915.662,3737.250 3854.537 C 3760.763 3833.132,3780.000 3814.953,3780.000 3814.139 C 3780.000 3810.941,3761.797 3823.742,3727.545 3851.028 C 3693.064 3878.496,3682.546 3882.895,3695.777 3864.313 C 3717.332 3834.042,3783.968 3785.455,3844.500 3755.874 C 3886.139 3735.525,3908.863 3727.520,3946.500 3719.942 C 3978.842 3713.430,3987.883 3712.850,3986.372 3717.385 M3998.617 3736.969 C 3996.353 3739.702,3978.739 3753.842,3959.475 3768.391 C 3919.664 3798.460,3912.857 3805.647,3937.204 3791.906 C 3961.752 3778.052,3958.635 3787.073,3932.143 3806.553 C 3900.941 3829.497,3854.163 3857.554,3828.118 3868.946 C 3791.075 3885.150,3796.029 3876.812,3842.061 3845.478 C 3874.827 3823.175,3879.436 3819.000,3871.292 3819.000 C 3865.232 3819.000,3845.557 3829.938,3794.125 3861.902 C 3758.670 3883.936,3746.513 3888.931,3755.917 3877.600 C 3765.383 3866.195,3865.549 3801.967,3931.758 3764.848 C 3987.019 3733.868,4008.666 3724.842,3998.617 3736.969 M4638.506 3810.546 C 4634.756 3880.091,4629.167 3927.108,4616.996 3991.500 C 4612.318 4016.250,4607.695 4043.250,4606.722 4051.500 L 4604.954 4066.500 4609.264 4055.412 C 4611.634 4049.314,4618.575 4025.689,4624.688 4002.912 C 4630.801 3980.135,4636.972 3960.218,4638.401 3958.650 C 4648.416 3947.666,4632.151 4053.519,4614.340 4115.236 C 4600.799 4162.159,4555.605 4267.444,4527.860 4316.701 C 4511.919 4345.003,4511.960 4333.073,4527.938 4293.992 C 4552.538 4233.822,4581.243 4138.733,4570.440 4153.196 C 4568.100 4156.330,4563.947 4165.780,4561.210 4174.196 C 4533.671 4258.900,4414.358 4524.000,4403.775 4524.000 C 4400.006 4524.000,4399.389 4526.838,4414.524 4474.582 C 4434.881 4404.292,4480.542 4268.624,4515.014 4176.000 C 4568.194 4033.111,4608.542 3911.542,4604.220 3907.220 C 4603.442 3906.442,4599.969 3913.611,4596.504 3923.152 C 4593.038 3932.694,4561.677 4017.450,4526.812 4111.500 C 4456.079 4302.302,4444.605 4335.192,4412.751 4438.435 C 4400.544 4477.999,4390.089 4507.937,4389.516 4504.965 C 4385.920 4486.292,4407.474 4343.042,4423.594 4278.479 C 4429.186 4256.084,4433.156 4237.156,4432.417 4236.417 C 4430.055 4234.055,4418.335 4263.543,4409.670 4293.649 C 4399.488 4329.027,4387.187 4388.843,4381.732 4429.500 L 4377.707 4459.500 4377.354 4407.385 C 4376.679 4307.939,4395.519 4229.528,4447.530 4115.311 C 4478.037 4048.319,4532.440 3951.075,4535.081 3958.818 C 4535.703 3960.642,4517.221 4011.787,4494.011 4072.472 C 4470.800 4133.158,4452.408 4183.408,4453.140 4184.140 C 4458.844 4189.844,4536.413 3999.415,4597.902 3828.750 C 4603.136 3814.225,4610.863 3811.621,4611.257 3824.250 C 4611.399 3828.788,4616.038 3814.460,4621.566 3792.411 C 4634.008 3742.792,4634.272 3742.072,4638.495 3746.295 C 4640.891 3748.691,4640.895 3766.251,4638.506 3810.546 M908.524 3849.369 C 972.672 3878.417,990.288 3887.608,1022.790 3908.989 C 1075.394 3943.593,1136.844 3992.432,1228.500 4072.480 C 1253.250 4094.096,1298.138 4132.470,1328.250 4157.756 C 1358.363 4183.042,1383.000 4204.348,1383.000 4205.103 C 1383.000 4205.859,1378.951 4205.587,1374.003 4204.501 C 1366.589 4202.872,1365.326 4203.358,1366.824 4207.262 C 1369.325 4213.779,1365.559 4213.081,1351.500 4204.422 C 1339.217 4196.857,1330.186 4194.638,1333.500 4200.000 C 1337.819 4206.988,1322.375 4201.882,1291.500 4186.115 C 1256.483 4168.232,1233.000 4157.483,1233.000 4159.338 C 1233.000 4163.377,1302.532 4202.692,1395.739 4251.354 C 1463.711 4286.840,1475.412 4293.696,1470.694 4295.269 C 1465.845 4296.885,1414.272 4276.884,1350.754 4248.753 C 1224.532 4192.853,1131.717 4135.214,1051.215 4062.736 C 1021.550 4036.028,971.306 3983.694,973.359 3981.641 C 973.930 3981.070,988.478 3991.155,1005.688 4004.052 C 1062.238 4046.428,1156.719 4110.978,1144.500 4098.889 C 1142.850 4097.256,1111.070 4071.560,1073.877 4041.786 C 1005.382 3986.953,936.046 3926.643,906.067 3895.822 L 889.633 3878.927 904.567 3880.825 C 925.377 3883.468,967.816 3909.773,1047.000 3969.109 C 1096.915 4006.512,1102.787 4009.474,1080.000 3985.752 C 1043.908 3948.179,980.912 3903.129,907.073 3862.087 C 884.208 3849.378,860.775 3835.694,855.000 3831.677 L 844.500 3824.375 853.408 3826.410 C 858.307 3827.529,883.109 3837.860,908.524 3849.369 M2559.444 3858.755 C 2572.795 3880.174,2599.461 3935.581,2614.253 3972.641 C 2629.422 4010.644,2639.028 4049.465,2648.983 4113.000 C 2667.390 4230.471,2672.660 4251.573,2696.936 4305.000 C 2715.120 4345.021,2716.678 4350.000,2711.015 4350.000 C 2699.362 4350.000,2664.629 4277.688,2639.669 4201.462 C 2629.681 4170.958,2620.883 4146.000,2620.118 4146.000 C 2615.750 4146.000,2634.959 4220.703,2651.871 4269.489 C 2658.542 4288.733,2664.000 4305.946,2664.000 4307.739 C 2664.000 4322.699,2641.604 4283.580,2627.222 4243.500 C 2617.248 4215.706,2611.930 4188.025,2600.997 4107.000 C 2595.987 4069.875,2589.239 4023.387,2586.000 4003.694 C 2582.762 3984.000,2580.836 3967.164,2581.720 3966.280 C 2584.767 3963.233,2588.561 3973.204,2596.377 4004.802 C 2608.612 4054.263,2612.925 4068.000,2616.220 4068.000 C 2620.143 4068.000,2617.871 4054.671,2606.506 4011.000 C 2596.414 3972.223,2582.465 3933.370,2563.242 3890.495 C 2549.085 3858.921,2544.926 3845.997,2548.925 3846.005 C 2550.341 3846.008,2555.075 3851.746,2559.444 3858.755 M939.000 3912.137 C 962.314 3934.600,1041.782 3998.468,1098.000 4039.926 C 1190.327 4108.012,1314.614 4191.000,1324.257 4191.000 C 1325.112 4191.000,1325.035 4188.975,1324.085 4186.500 C 1321.873 4180.735,1331.399 4180.453,1339.582 4186.040 C 1354.267 4196.065,1362.000 4200.567,1362.000 4199.090 C 1362.000 4195.909,1206.312 4083.047,1161.000 4053.380 C 1129.824 4032.967,1154.676 4052.815,1219.500 4100.100 C 1293.988 4154.433,1322.085 4176.805,1317.678 4178.274 C 1305.433 4182.356,1142.723 4067.871,999.000 3954.049 C 926.560 3896.680,913.457 3887.527,939.000 3912.137 M1710.251 3897.711 C 1709.831 3901.409,1764.067 4041.149,1774.016 4062.000 L 1783.320 4081.500 1784.375 4066.500 C 1786.494 4036.365,1768.498 3951.053,1753.064 3918.072 C 1741.857 3894.124,1741.082 3904.281,1751.526 3938.224 C 1766.539 3987.014,1774.687 4026.000,1769.871 4026.000 C 1768.650 4026.000,1760.715 4008.788,1752.240 3987.750 C 1736.846 3949.542,1710.727 3893.532,1710.251 3897.711 M2633.779 3915.804 C 2639.432 3924.437,2653.461 3946.968,2664.953 3965.874 C 2727.792 4069.252,2748.451 4129.751,2775.122 4288.500 C 2791.702 4387.190,2796.878 4410.413,2794.178 4374.000 C 2789.857 4315.718,2769.591 4181.639,2758.275 4136.456 C 2750.314 4104.675,2749.461 4098.233,2753.798 4102.650 C 2758.735 4107.678,2771.326 4149.428,2779.086 4186.500 C 2794.422 4259.764,2807.434 4380.663,2803.446 4412.843 L 2801.420 4429.186 2795.576 4421.843 C 2785.993 4409.804,2752.172 4338.629,2741.479 4308.000 C 2735.044 4289.569,2731.184 4281.891,2730.554 4286.267 C 2730.017 4289.989,2737.375 4315.925,2746.904 4343.902 C 2756.433 4371.880,2763.148 4395.835,2761.825 4397.135 C 2760.503 4398.436,2753.012 4392.547,2745.179 4384.050 C 2733.914 4371.830,2728.033 4361.167,2717.049 4333.050 C 2690.752 4265.731,2686.327 4247.887,2666.941 4131.000 C 2655.022 4059.132,2648.525 4031.812,2630.699 3978.603 C 2622.653 3954.583,2616.714 3934.286,2617.503 3933.497 C 2620.801 3930.199,2647.099 3993.281,2669.824 4059.000 C 2704.967 4160.633,2718.318 4196.843,2721.339 4198.710 C 2737.120 4208.463,2680.722 4031.532,2642.380 3951.000 C 2621.766 3907.705,2618.561 3899.992,2621.210 3900.054 C 2622.469 3900.084,2628.126 3907.171,2633.779 3915.804 M4312.430 3945.273 C 4266.701 3991.659,4187.868 4056.518,4110.939 4111.047 C 4090.830 4125.301,4073.484 4138.408,4072.392 4140.174 C 4069.173 4145.384,4103.835 4126.836,4140.462 4103.751 C 4178.743 4079.623,4204.726 4061.280,4242.000 4032.070 C 4256.025 4021.079,4271.414 4009.530,4276.197 4006.405 C 4284.844 4000.757,4284.875 4000.759,4281.627 4006.828 C 4279.831 4010.185,4261.686 4029.049,4241.306 4048.749 C 4183.192 4104.922,4143.796 4129.895,3982.881 4212.557 C 3881.810 4264.478,3852.598 4280.220,3814.676 4303.199 C 3804.874 4309.140,3794.877 4314.000,3792.462 4314.000 C 3784.859 4314.000,3797.122 4303.051,3832.482 4278.268 C 3874.773 4248.627,3900.185 4233.397,3960.605 4201.479 C 4011.412 4174.638,4025.684 4165.684,4022.589 4162.589 C 4021.588 4161.588,3997.983 4172.181,3970.134 4186.130 C 3892.807 4224.861,3823.495 4271.048,3766.198 4322.026 C 3752.178 4334.500,3739.996 4343.996,3739.128 4343.128 C 3736.958 4340.958,3774.864 4298.362,3798.037 4276.930 C 3862.730 4217.095,3931.624 4171.564,4046.187 4112.932 C 4079.564 4095.850,4106.364 4081.364,4105.741 4080.741 C 4100.959 4075.959,3949.266 4151.211,3902.120 4181.753 C 3885.976 4192.211,3872.062 4200.062,3871.200 4199.200 C 3867.611 4195.611,3941.586 4144.334,4001.613 4108.805 C 4030.750 4091.558,4072.845 4068.844,4206.000 3998.515 L 4228.500 3986.631 4204.500 4009.020 C 4191.300 4021.334,4181.379 4032.308,4182.453 4033.408 C 4184.478 4035.480,4260.372 3979.093,4305.000 3942.360 C 4319.025 3930.816,4331.818 3921.288,4333.430 3921.186 C 4335.041 3921.083,4325.591 3931.923,4312.430 3945.273 M2702.144 3985.500 C 2720.367 4014.700,2737.634 4049.366,2735.179 4051.821 C 2732.887 4054.113,2723.773 4040.298,2695.928 3992.324 C 2682.045 3968.405,2668.371 3944.935,2665.542 3940.168 C 2652.912 3918.887,2686.651 3960.673,2702.144 3985.500 M1386.886 3993.750 C 1392.424 4002.413,1410.945 4034.475,1428.043 4065.000 C 1485.159 4166.971,1510.466 4205.853,1559.384 4266.794 C 1575.014 4286.266,1587.144 4302.856,1586.340 4303.660 C 1581.716 4308.284,1506.815 4219.174,1479.555 4176.617 C 1449.797 4130.159,1381.932 4004.787,1375.696 3984.750 C 1372.301 3973.841,1376.120 3976.912,1386.886 3993.750 M1919.903 4026.750 C 1967.634 4111.985,1978.967 4131.357,1996.763 4158.130 C 2015.088 4185.699,2031.000 4204.265,2031.000 4198.078 C 2031.000 4196.445,2022.039 4181.022,2011.086 4163.805 C 1973.433 4104.613,1924.536 4013.893,1926.732 4007.303 C 1927.576 4004.771,2051.060 4161.318,2115.410 4246.500 C 2141.163 4280.589,2167.251 4321.581,2184.605 4355.222 C 2210.044 4404.538,2207.984 4412.558,2180.414 4371.543 C 2147.894 4323.164,2058.000 4218.047,2058.000 4228.398 C 2058.000 4232.572,2072.567 4256.504,2093.313 4286.413 C 2103.962 4301.765,2112.072 4314.928,2111.336 4315.664 C 2109.302 4317.698,2032.826 4234.833,2011.091 4207.045 C 1986.679 4175.835,1965.371 4139.816,1932.385 4074.000 C 1906.241 4021.837,1894.243 3993.000,1898.683 3993.000 C 1899.959 3993.000,1909.508 4008.188,1919.903 4026.750 M1987.284 4021.869 C 2019.949 4048.813,2091.908 4120.275,2112.550 4146.270 C 2149.320 4192.575,2170.689 4237.328,2195.917 4320.865 C 2202.563 4342.871,2207.925 4362.817,2207.833 4365.188 C 2207.741 4367.560,2190.748 4335.750,2170.071 4294.500 C 2127.938 4210.445,2102.601 4166.176,2084.514 4145.017 C 2061.439 4118.021,2066.459 4131.118,2102.714 4192.500 C 2124.544 4229.459,2129.354 4241.775,2117.915 4231.423 C 2114.569 4228.395,2096.682 4206.248,2078.166 4182.209 C 2059.650 4158.169,2028.976 4118.709,2010.001 4094.519 C 1977.173 4052.671,1962.717 4032.000,1966.280 4032.000 C 1967.170 4032.000,1980.409 4043.554,1995.699 4057.675 C 2024.094 4083.899,2040.143 4095.963,2031.042 4084.241 C 2028.591 4081.084,2012.053 4062.663,1994.292 4043.306 C 1976.532 4023.949,1962.000 4007.411,1962.000 4006.556 C 1962.000 4002.441,1968.509 4006.383,1987.284 4021.869 M1652.212 4110.242 C 1721.043 4184.226,1763.665 4222.504,1801.500 4244.315 C 1832.995 4262.472,1840.499 4262.780,1815.000 4244.870 C 1765.302 4209.964,1687.259 4137.227,1656.326 4096.986 C 1630.803 4063.781,1638.960 4068.908,1753.500 4158.056 C 1879.701 4256.281,1968.370 4327.507,1996.674 4353.392 C 2025.232 4379.510,2062.834 4419.008,2059.113 4418.981 C 2057.676 4418.971,2029.500 4397.837,1996.500 4372.018 C 1934.045 4323.153,1895.270 4296.000,1887.945 4296.000 C 1880.658 4296.000,1889.020 4305.083,1922.408 4333.437 C 1939.407 4347.873,1952.580 4360.420,1951.680 4361.320 C 1947.948 4365.052,1834.065 4290.871,1785.169 4252.858 C 1727.365 4207.919,1645.825 4122.326,1591.919 4050.000 L 1577.385 4030.500 1590.264 4044.000 C 1597.347 4051.425,1625.224 4081.234,1652.212 4110.242 M1701.850 4072.903 C 1755.929 4100.212,1852.299 4163.863,1893.803 4199.684 C 1929.488 4230.483,2002.611 4304.389,1999.991 4307.009 C 1998.319 4308.681,1961.461 4277.695,1953.009 4267.510 C 1944.651 4257.440,1902.000 4220.553,1902.000 4223.396 C 1902.000 4225.063,1927.816 4253.614,1959.370 4286.844 C 1990.923 4320.073,2016.182 4347.818,2015.501 4348.499 C 2014.820 4349.180,2004.866 4341.523,1993.381 4331.483 C 1963.421 4305.293,1913.910 4265.986,1831.500 4202.965 C 1736.329 4130.187,1695.000 4097.204,1695.000 4094.032 C 1695.000 4090.725,1711.596 4100.388,1771.500 4138.572 C 1797.900 4155.400,1824.225 4171.544,1830.000 4174.448 L 1840.500 4179.727 1831.500 4170.062 C 1820.448 4158.193,1780.729 4130.317,1731.284 4099.727 C 1690.802 4074.682,1677.255 4065.000,1682.695 4065.000 C 1684.623 4065.000,1693.242 4068.556,1701.850 4072.903 M2426.129 4206.344 C 2475.200 4227.631,2566.168 4273.127,2604.611 4295.610 C 2643.553 4318.384,2673.547 4343.868,2740.641 4411.188 C 2792.677 4463.398,2824.640 4499.360,2821.660 4502.340 C 2820.752 4503.248,2810.687 4494.994,2799.296 4483.996 C 2787.904 4472.998,2777.651 4464.000,2776.512 4464.000 C 2774.274 4464.000,2797.771 4492.886,2802.272 4495.668 C 2803.772 4496.595,2805.000 4499.347,2805.000 4501.783 C 2805.000 4508.648,2798.587 4504.081,2754.000 4465.461 C 2651.415 4376.607,2515.184 4275.813,2409.750 4210.759 C 2394.488 4201.342,2382.000 4193.043,2382.000 4192.318 C 2382.000 4188.600,2394.066 4192.435,2426.129 4206.344 M2402.469 4222.496 C 2510.783 4287.205,2616.970 4366.274,2757.000 4486.485 C 2837.217 4555.349,2904.773 4620.227,2900.605 4624.395 C 2899.988 4625.012,2854.194 4595.587,2798.840 4559.008 C 2693.238 4489.224,2668.155 4473.773,2675.897 4483.276 C 2682.046 4490.824,2751.548 4542.397,2793.750 4570.726 C 2813.138 4583.740,2829.000 4595.461,2829.000 4596.771 C 2829.000 4599.632,2823.707 4596.974,2760.000 4562.120 C 2597.846 4473.405,2521.268 4420.399,2450.803 4348.100 C 2418.724 4315.186,2333.249 4212.038,2335.785 4209.302 C 2336.396 4208.643,2356.169 4226.868,2379.725 4249.802 C 2445.967 4314.294,2542.525 4394.475,2600.852 4433.424 C 2619.914 4446.154,2625.000 4448.225,2625.000 4443.259 C 2625.000 4440.143,2590.340 4411.019,2553.985 4383.587 C 2499.546 4342.508,2384.759 4240.378,2360.603 4211.525 C 2342.526 4189.934,2352.218 4192.474,2402.469 4222.496 M4126.213 4278.666 C 4056.052 4351.524,3907.312 4493.092,3812.250 4577.491 C 3779.663 4606.423,3753.000 4631.290,3753.000 4632.752 C 3753.000 4643.815,3888.954 4520.721,4047.000 4366.560 C 4140.199 4275.652,4162.881 4254.881,4165.785 4257.785 C 4170.333 4262.333,4141.889 4306.057,4104.918 4351.352 C 4082.687 4378.587,4079.404 4384.192,4087.500 4381.085 C 4089.975 4380.135,4092.000 4380.395,4092.000 4381.662 C 4092.000 4389.629,4007.732 4488.717,3975.877 4518.208 C 3946.992 4544.948,3856.775 4603.960,3804.825 4630.096 C 3781.062 4642.050,3773.136 4643.742,3776.013 4636.245 C 3777.375 4632.696,3773.358 4633.730,3760.169 4640.323 C 3750.451 4645.180,3740.813 4648.557,3738.750 4647.827 C 3733.485 4645.964,3734.086 4637.983,3739.982 4631.468 C 3748.192 4622.395,3741.936 4621.574,3730.582 4630.234 C 3724.762 4634.673,3720.000 4636.813,3720.000 4634.988 C 3720.000 4625.104,3791.642 4533.463,3825.295 4500.298 C 3871.834 4454.437,4016.684 4339.684,4021.701 4344.701 C 4022.550 4345.550,4012.726 4357.492,3999.872 4371.240 C 3980.818 4391.618,3989.526 4384.859,4047.000 4334.661 C 4124.247 4267.193,4148.979 4246.979,4151.361 4249.361 C 4152.222 4250.222,4140.905 4263.409,4126.213 4278.666 M1901.648 4357.429 C 1991.110 4408.791,2058.636 4453.759,2097.000 4487.520 C 2166.045 4548.281,2247.309 4629.691,2243.108 4633.892 C 2239.702 4637.298,2093.075 4588.797,2043.247 4567.782 C 1982.698 4542.246,1957.524 4514.018,1894.993 4401.544 C 1869.503 4355.695,1861.307 4338.000,1865.559 4338.000 C 1866.796 4338.000,1883.035 4346.743,1901.648 4357.429 M2653.500 4354.916 C 2702.980 4404.521,2759.956 4458.000,2763.324 4458.000 C 2768.583 4458.000,2718.611 4407.589,2682.000 4375.962 C 2647.727 4346.355,2637.224 4338.599,2653.500 4354.916 M4063.311 4401.750 L 4054.500 4411.500 4064.250 4402.689 C 4073.338 4394.475,4075.379 4392.000,4073.061 4392.000 C 4072.545 4392.000,4068.157 4396.388,4063.311 4401.750 M1356.000 4468.869 C 1411.974 4476.858,1524.150 4504.979,1611.615 4532.947 C 1678.711 4554.402,1659.308 4553.789,1567.500 4531.554 C 1479.996 4510.360,1441.671 4503.581,1380.000 4498.387 C 1367.625 4497.345,1358.251 4497.246,1359.170 4498.166 C 1362.167 4501.169,1604.095 4552.581,1678.500 4566.025 C 1719.367 4573.410,1727.543 4577.316,1714.127 4583.045 C 1707.043 4586.070,1721.868 4586.762,1797.000 4586.911 C 1903.851 4587.122,1918.067 4590.073,1871.463 4602.369 C 1820.651 4615.774,1738.775 4622.722,1629.250 4622.921 C 1605.463 4622.965,1586.628 4623.628,1587.396 4624.396 C 1590.700 4627.700,1646.585 4635.411,1682.661 4637.542 C 1719.513 4639.718,1728.494 4641.506,1724.191 4645.809 C 1718.661 4651.339,1644.676 4653.782,1580.791 4650.543 C 1500.454 4646.470,1491.329 4644.451,1381.500 4606.435 C 1284.010 4572.690,1181.399 4538.457,1147.864 4528.489 C 1112.211 4517.892,1116.473 4512.710,1155.374 4519.358 C 1198.603 4526.745,1244.803 4539.781,1336.500 4570.463 C 1419.454 4598.219,1467.827 4611.561,1500.000 4615.560 C 1522.398 4618.344,1516.703 4613.355,1488.000 4605.048 C 1407.278 4581.687,1241.267 4524.549,1234.777 4517.893 C 1230.268 4513.270,1241.488 4515.377,1326.000 4535.023 C 1511.916 4578.242,1536.591 4583.130,1580.559 4585.449 L 1609.500 4586.975 1590.000 4582.252 C 1306.990 4513.699,1277.083 4507.282,1225.557 4504.059 C 1192.998 4502.022,1182.010 4498.794,1187.823 4492.972 C 1190.040 4490.752,1209.360 4488.956,1241.395 4487.993 L 1291.500 4486.486 1273.500 4482.192 C 1259.882 4478.944,1236.182 4478.032,1176.153 4478.446 C 1093.347 4479.017,1078.506 4476.220,1130.687 4469.877 C 1205.781 4460.749,1296.271 4460.344,1356.000 4468.869 M3967.359 4485.312 C 3950.310 4503.013,3884.048 4555.758,3840.496 4586.297 C 3819.943 4600.709,3798.936 4616.289,3793.813 4620.921 L 3784.500 4629.342 3795.000 4624.282 C 3828.313 4608.230,3965.976 4500.719,3979.347 4480.312 C 3986.725 4469.052,3980.532 4471.635,3967.359 4485.312 M3817.518 4536.750 C 3760.686 4594.070,3739.530 4618.209,3751.953 4611.560 C 3772.208 4600.720,3887.114 4479.000,3877.093 4479.000 C 3875.819 4479.000,3849.010 4504.988,3817.518 4536.750 M3720.000 4650.116 C 3720.000 4654.970,3696.727 4678.727,3694.326 4676.326 C 3691.981 4673.981,3697.775 4664.277,3707.803 4653.750 C 3714.639 4646.574,3720.000 4644.977,3720.000 4650.116 M2255.250 4829.021 C 2275.463 4830.063,2292.000 4831.809,2292.000 4832.903 C 2292.000 4833.996,2282.888 4837.760,2271.750 4841.267 L 2251.500 4847.644 2281.500 4845.982 C 2298.000 4845.068,2327.025 4842.646,2346.000 4840.600 C 2378.902 4837.052,2384.955 4837.045,2381.441 4840.559 C 2379.237 4842.763,2310.464 4857.666,2237.071 4871.843 C 2170.244 4884.752,2148.826 4891.705,2185.500 4888.585 C 2211.921 4886.337,2310.422 4871.334,2364.846 4861.267 C 2422.230 4850.653,2431.572 4852.677,2389.500 4866.608 C 2287.616 4900.344,2127.750 4930.598,1971.000 4945.808 C 1917.103 4951.037,1799.358 4953.310,1795.217 4949.200 C 1789.508 4943.533,1803.157 4940.582,1867.618 4933.545 C 1934.255 4926.270,2048.344 4911.214,2087.690 4904.504 C 2119.162 4899.136,2102.281 4895.995,2059.293 4899.220 C 2037.957 4900.821,1974.333 4906.826,1917.908 4912.565 C 1816.417 4922.888,1773.035 4925.347,1782.000 4920.269 C 1787.596 4917.099,1868.823 4902.463,2033.203 4875.006 C 2102.889 4863.365,2162.964 4852.613,2166.703 4851.111 C 2173.347 4848.442,2173.320 4848.376,2165.513 4848.190 C 2153.351 4847.901,1931.373 4878.516,1872.000 4888.671 C 1837.914 4894.501,1917.123 4864.175,1977.869 4848.138 C 2063.299 4825.584,2116.859 4821.893,2255.250 4829.021 M2505.000 4839.489 C 2493.538 4849.100,2394.689 4896.481,2347.500 4914.983 C 2324.400 4924.040,2291.663 4935.624,2274.750 4940.725 C 2257.838 4945.826,2230.358 4954.133,2213.685 4959.185 C 2197.012 4964.237,2184.108 4969.108,2185.009 4970.009 C 2190.180 4975.180,2329.377 4943.655,2365.837 4929.056 C 2410.569 4911.145,2398.654 4923.589,2345.599 4950.195 C 2215.901 5015.234,2093.267 5039.268,1972.133 5023.389 C 1913.396 5015.689,1817.749 4992.875,1813.175 4985.474 C 1811.726 4983.129,1813.707 4982.804,1819.804 4984.387 C 1832.095 4987.576,2023.137 4990.019,2060.795 4987.468 C 2119.342 4983.502,2084.823 4979.837,1961.829 4976.959 C 1843.662 4974.194,1814.825 4972.516,1806.144 4967.900 C 1799.563 4964.400,1826.080 4962.434,1903.500 4960.683 C 2000.984 4958.479,2090.319 4948.260,2196.000 4927.226 C 2305.834 4905.366,2407.942 4875.499,2470.835 4846.835 C 2487.151 4839.399,2503.200 4833.289,2506.500 4833.257 C 2512.013 4833.204,2511.891 4833.710,2505.000 4839.489 " stroke="none" fill="black" fill-rule="evenodd"/></svg>