<?xml version="1.0" standalone="no"?><svg xmlns="http://www.w3.org/2000/svg" viewBox="0 0 1440 320"><path fill="#3f5782" fill-opacity="1" d="M0,224L16,224C32,224,64,224,96,234.7C128,245,160,267,192,234.7C224,203,256,117,288,80C320,43,352,53,384,90.7C416,128,448,192,480,208C512,224,544,192,576,160C608,128,640,96,672,74.7C704,53,736,43,768,37.3C800,32,832,32,864,64C896,96,928,160,960,165.3C992,171,1024,117,1056,122.7C1088,128,1120,192,1152,192C1184,192,1216,128,1248,90.7C1280,53,1312,43,1344,32C1376,21,1408,11,1424,5.3L1440,0L1440,320L1424,320C1408,320,1376,320,1344,320C1312,320,1280,320,1248,320C1216,320,1184,320,1152,320C1120,320,1088,320,1056,320C1024,320,992,320,960,320C928,320,896,320,864,320C832,320,800,320,768,320C736,320,704,320,672,320C640,320,608,320,576,320C544,320,512,320,480,320C448,320,416,320,384,320C352,320,320,320,288,320C256,320,224,320,192,320C160,320,128,320,96,320C64,320,32,320,16,320L0,320Z"></path></svg>